<svg width="23" height="18" viewBox="0 0 23 18" fill="none" xmlns="http://www.w3.org/2000/svg">
<path d="M9.84859 13.6784L6.01575 17.5113C5.51669 18.0103 4.7062 18.0103 4.20713 17.5113L0.3743 13.6784C-0.124767 13.1794 -0.124767 12.3689 0.3743 11.8698C0.873367 11.3707 1.68385 11.3707 2.18292 11.8698L3.83583 13.5227V1.27761C3.83583 0.570933 4.40676 0 5.11344 0C5.82012 0 6.39105 0.570933 6.39105 1.27761V13.5227L8.04396 11.8698C8.54303 11.3707 9.35351 11.3707 9.85258 11.8698C10.3516 12.3689 10.3516 13.1794 9.85258 13.6784H9.84859ZM12.7791 17.8866C12.0724 17.8866 11.5015 17.3156 11.5015 16.6089C11.5015 15.9023 12.0724 15.3313 12.7791 15.3313H14.0567C14.7634 15.3313 15.3343 15.9023 15.3343 16.6089C15.3343 17.3156 14.7634 17.8866 14.0567 17.8866H12.7791ZM12.7791 12.7761C12.0724 12.7761 11.5015 12.2052 11.5015 11.4985C11.5015 10.7918 12.0724 10.2209 12.7791 10.2209H16.6119C17.3186 10.2209 17.8896 10.7918 17.8896 11.4985C17.8896 12.2052 17.3186 12.7761 16.6119 12.7761H12.7791ZM12.7791 7.66567C12.0724 7.66567 11.5015 7.09474 11.5015 6.38806C11.5015 5.68138 12.0724 5.11045 12.7791 5.11045H19.1672C19.8738 5.11045 20.4448 5.68138 20.4448 6.38806C20.4448 7.09474 19.8738 7.66567 19.1672 7.66567H12.7791ZM12.7791 2.55522C12.0724 2.55522 11.5015 1.98429 11.5015 1.27761C11.5015 0.570933 12.0724 0 12.7791 0H21.7224C22.4291 0 23 0.570933 23 1.27761C23 1.98429 22.4291 2.55522 21.7224 2.55522H12.7791Z" fill="#1A1C1C"/>
</svg>
