<svg width="385" height="296" viewBox="0 0 385 296" fill="none" xmlns="http://www.w3.org/2000/svg">
<path d="M324.12 147.27C326.072 147.27 328.002 147.681 329.785 148.475C331.569 149.27 333.165 150.431 334.471 151.882C335.776 153.334 336.762 155.044 337.364 156.902C337.967 158.759 338.172 160.723 337.966 162.665C335.637 184.679 328.342 205.877 316.631 224.661C304.92 243.445 289.099 259.324 270.361 271.102C251.622 282.88 230.456 290.249 208.456 292.653C186.457 295.057 164.199 292.435 143.36 284.983C141.522 284.325 139.842 283.288 138.43 281.94C137.019 280.591 135.906 278.96 135.165 277.154C134.424 275.347 134.071 273.405 134.129 271.453C134.187 269.501 134.655 267.583 135.502 265.824L170.428 193.276C171.754 190.523 173.947 188.282 176.671 186.899C179.394 185.516 182.497 185.067 185.501 185.622C195.113 187.397 205.042 185.494 213.319 180.292C221.596 175.089 227.617 166.967 230.189 157.533C230.993 154.585 232.744 151.984 235.171 150.129C237.599 148.275 240.568 147.27 243.623 147.27H324.12Z" fill="#6F0000" stroke="#F9F9F9" stroke-width="3" stroke-linejoin="round"/>
<path d="M135.502 265.824C134.655 267.583 133.448 269.145 131.958 270.407C130.469 271.669 128.731 272.604 126.857 273.151C124.983 273.698 123.015 273.845 121.08 273.582C119.146 273.318 117.288 272.651 115.629 271.623C88.9162 255.084 68.2401 230.377 56.6633 201.163C45.0865 171.949 43.2249 139.782 51.354 109.426C51.8592 107.54 52.7552 105.781 53.9839 104.264C55.2126 102.746 56.7466 101.504 58.4862 100.618C60.2259 99.7322 62.1324 99.222 64.0819 99.1208C66.0314 99.0195 67.9805 99.3295 69.8025 100.031L144.933 128.938C147.784 130.035 150.195 132.039 151.795 134.642C153.395 137.245 154.095 140.301 153.788 143.341C153.158 149.557 154.031 155.833 156.333 161.641C158.634 167.449 162.297 172.619 167.013 176.716C169.319 178.719 170.903 181.425 171.52 184.418C172.137 187.41 171.754 190.523 170.428 193.276L135.502 265.824Z" fill="#0088FF" stroke="#F9F9F9" stroke-width="3" stroke-linejoin="round"/>
<path d="M69.8022 100.031C67.9802 99.3302 66.3259 98.2537 64.9467 96.8717C63.5675 95.4897 62.4942 93.833 61.7966 92.0092C61.0989 90.1854 60.7924 88.2352 60.8969 86.2852C61.0015 84.3352 61.5148 82.4291 62.4035 80.6904C73.2426 59.4851 89.0949 41.2487 108.582 27.5661C128.07 13.8834 150.603 5.16861 174.224 2.17902C176.161 1.93389 178.127 2.09888 179.996 2.66327C181.865 3.22767 183.594 4.17885 185.072 5.45509C186.549 6.73133 187.742 8.30411 188.573 10.0713C189.403 11.8386 189.853 13.7607 189.893 15.7131L191.535 96.2187C191.597 99.2735 190.654 102.264 188.85 104.729C187.046 107.195 184.481 108.999 181.551 109.863C173.369 112.276 166.204 117.307 161.154 124.184C159.346 126.647 156.778 128.446 153.847 129.305C150.916 130.165 147.784 130.036 144.933 128.939L69.8022 100.031Z" fill="#FF8D28" stroke="#F9F9F9" stroke-width="3" stroke-linejoin="round"/>
<path d="M189.894 15.7125C189.854 13.7601 190.225 11.8212 190.983 10.0215C191.741 8.2219 192.868 6.60177 194.293 5.26631C195.717 3.93084 197.406 2.90989 199.25 2.26972C201.095 1.62954 203.053 1.38446 204.998 1.55036C242.77 4.77197 277.814 22.5435 302.738 51.116C304.021 52.5874 304.981 54.3123 305.555 56.1788C306.129 58.0452 306.304 60.0116 306.069 61.9502C305.834 63.8887 305.194 65.7562 304.191 67.4314C303.187 69.1066 301.843 70.552 300.245 71.6739L234.359 117.934C231.859 119.69 228.851 120.574 225.799 120.451C222.747 120.328 219.82 119.205 217.469 117.254C212.984 113.532 207.721 110.863 202.068 109.443C199.105 108.7 196.469 107.002 194.566 104.612C192.663 102.222 191.598 99.2729 191.536 96.2181L189.894 15.7125Z" fill="#FFCC00" stroke="#F9F9F9" stroke-width="3" stroke-linejoin="round"/>
<path d="M300.244 71.6745C301.842 70.5526 303.658 69.7794 305.574 69.4049C307.49 69.0305 309.463 69.0633 311.366 69.5011C313.268 69.9389 315.057 70.772 316.617 71.9464C318.177 73.1207 319.472 74.61 320.42 76.3175C329.934 93.4723 335.902 112.367 337.966 131.876C338.172 133.818 337.967 135.781 337.364 137.639C336.762 139.496 335.776 141.207 334.47 142.658C333.165 144.11 331.568 145.271 329.785 146.065C328.002 146.86 326.072 147.271 324.119 147.271H243.623C240.568 147.271 237.598 146.266 235.171 144.411C232.744 142.557 230.993 139.955 230.189 137.008C229.918 136.011 229.607 135.027 229.257 134.055C228.222 131.18 228.16 128.045 229.082 125.132C230.004 122.219 231.858 119.69 234.358 117.935L300.244 71.6745Z" fill="#34C759" stroke="#F9F9F9" stroke-width="3" stroke-linejoin="round"/>
</svg>
