<svg width="623" height="316" viewBox="0 0 623 316" fill="none" xmlns="http://www.w3.org/2000/svg">
<path d="M349.609 282.978C345.303 280.265 340.433 278.576 335.371 278.041C333.039 277.804 330.498 277.868 328.63 279.28C328.414 279.402 328.235 279.582 328.113 279.798C327.991 280.015 327.931 280.261 327.938 280.51C328.046 280.86 328.279 281.159 328.594 281.348C334.388 285.775 343.169 286.331 349.609 282.942" fill="#E0E0E0"/>
<path d="M349.245 282.596C345.946 280.172 342.867 277.462 340.045 274.497C337.224 271.504 335.247 267.817 334.315 263.812C334.128 263.219 334.072 262.593 334.151 261.977C334.229 261.36 334.441 260.768 334.77 260.241C342.103 265.971 347.869 273.377 349.281 282.578" fill="#E0E0E0"/>
<path d="M349.536 282.924C348.86 278.92 348.919 274.827 349.71 270.845C350.539 266.829 352.847 263.272 356.177 260.879C357.443 263.84 356.906 267.256 356.013 270.344C354.632 275.139 352.478 279.678 349.637 283.78" fill="#E0E0E0"/>
<path d="M356.722 295.804C352.359 296.342 348.524 298.637 345.299 301.589C342.022 304.571 339.741 308.489 338.768 312.812C343.049 312.547 346.684 309.523 349.316 306.143C351.949 302.764 353.771 299.038 356.667 295.877" fill="#E0E0E0"/>
<path d="M358.29 297.872C356.572 293.509 355.97 288.787 356.538 284.133C357.105 279.479 358.825 275.04 361.542 271.218C364.029 280.063 363.118 290.047 358.29 297.872Z" fill="#E0E0E0"/>
<path d="M367.791 309.186C363.801 308.932 359.824 309.86 356.358 311.855C352.892 313.849 350.092 316.822 348.307 320.4C348.07 320.883 347.851 321.493 348.179 321.921C348.345 322.085 348.549 322.206 348.773 322.273C348.997 322.34 349.234 322.35 349.463 322.304C353.308 322.058 356.751 319.744 359.484 317.111C362.217 314.479 364.74 311.445 367.837 309.168" fill="#E0E0E0"/>
<path d="M367.491 308.567C365.441 301.983 365.314 294.951 367.127 288.298C367.837 285.684 369.04 282.942 371.454 281.712C371.55 281.651 371.658 281.609 371.77 281.591C371.883 281.572 371.998 281.576 372.109 281.603C372.208 281.651 372.296 281.719 372.368 281.802C372.44 281.885 372.495 281.981 372.528 282.086C373.339 283.91 373.689 285.906 373.549 287.897C373.404 289.883 373.099 291.854 372.638 293.791C371.882 297.389 371.472 301.252 369.504 304.358C369.035 305.101 368.615 305.874 368.247 306.672C367.874 307.464 367.874 307.738 367.527 308.366" fill="#E0E0E0"/>
<path d="M392.614 312.31C390.793 305.223 392.733 296.633 397.169 290.821C397.497 290.393 397.934 289.911 398.472 289.983C399.292 290.065 399.51 291.159 399.474 291.987C399.14 299.271 396.763 306.314 392.614 312.31Z" fill="#E0E0E0"/>
<path d="M394.899 313.859C403.508 316.1 413.391 313.923 420.551 308.648C416.261 306.49 411.354 305.888 406.669 306.945C402.023 308.002 397.787 310.079 394.899 313.859Z" fill="#E0E0E0"/>
<path d="M396.814 309.14C401.633 301.279 410.879 296.15 420.098 295.686C419.032 299.43 415.953 302.345 412.483 304.103C409.012 305.861 405.131 306.626 401.305 307.373C399.821 307.656 397.78 307.974 396.814 309.14Z" fill="#E0E0E0"/>
<path d="M393.114 286.24C394.417 281.767 395.729 277.249 396.093 272.575C396.457 267.902 395.783 263.074 393.36 259.094C388.851 267.811 388.396 277.986 392.96 286.677" fill="#E0E0E0"/>
<path d="M408.281 278.579C413.546 269.005 424.295 261.362 435.172 260.287C430.973 270.735 419.531 278.806 408.281 278.579Z" fill="#E0E0E0"/>
<path d="M404.966 280.455C412.818 281.657 419.541 286.668 426.828 289.71C428.368 290.445 430.074 290.759 431.775 290.621C432.567 290.613 433.339 290.361 433.984 289.901C434.629 289.44 435.117 288.792 435.383 288.045C435.648 287.298 435.677 286.487 435.467 285.723C435.257 284.959 434.817 284.277 434.207 283.771C433.166 282.81 431.942 282.07 430.609 281.594C422.611 278.26 414.039 278.178 405.613 280.2" fill="#E0E0E0"/>
<path d="M400.421 285.966C402.197 286.476 402.808 287.396 404.21 288.599C409.023 292.701 414.719 295.635 420.853 297.171C421.482 297.325 422.32 297.389 422.675 296.815C423.03 296.241 422.602 295.713 422.247 295.267C419.582 292.136 416.12 289.784 412.227 288.462C408.392 287.032 405.076 285.31 400.503 285.684" fill="#E0E0E0"/>
<path d="M395.291 252.69C398.512 255.66 402.319 257.923 406.467 259.335C410.615 260.747 415.012 261.276 419.376 260.888C419.776 260.894 420.164 260.754 420.469 260.496C421.08 259.841 420.351 258.82 419.64 258.274C412.562 252.753 403.981 250.458 395.291 252.699" fill="#E0E0E0"/>
<path d="M401.368 250.458C405.634 247.322 410.58 245.238 415.805 244.377C421.029 243.516 426.382 243.901 431.429 245.503C427.64 249.237 422.393 251.241 417.1 251.788C411.819 252.272 406.493 251.821 401.368 250.458Z" fill="#E0E0E0"/>
<path d="M398.991 235.172C398.299 228.103 398.745 222.519 398.253 215.423C398.253 214.849 398.099 214.175 397.561 213.966C396.823 213.683 396.213 214.594 395.967 215.341C394.937 218.634 394.673 222.118 395.196 225.529C395.718 228.939 397.013 232.184 398.982 235.017" fill="#E0E0E0"/>
<path d="M398.444 235.947C403.061 232.968 407.041 229.1 410.149 224.569C412.463 221.408 414.412 217.619 413.893 213.729C412.264 213.773 410.663 214.172 409.203 214.897C407.744 215.622 406.459 216.657 405.44 217.928C403.426 220.49 401.962 223.439 401.14 226.591C400.229 229.698 399.546 232.895 398.407 235.947" fill="#E0E0E0"/>
<path d="M409.922 232.758C420.463 228.854 430.22 223.097 438.735 215.76C435.292 214.376 431.357 215.205 427.913 216.598C420.052 219.768 413.63 225.125 409.768 232.676" fill="#E0E0E0"/>
<path d="M401.725 239.782C407.044 240.365 412.446 240.693 417.73 239.855C423.013 239.017 427.814 236.94 432.66 234.899C433.083 234.773 433.445 234.498 433.68 234.125C433.755 233.9 433.76 233.658 433.695 233.431C433.63 233.203 433.498 233.001 433.316 232.85C432.942 232.554 432.506 232.349 432.041 232.248C426.766 230.773 421.109 231.465 415.899 233.214C410.958 234.903 406.208 237.105 401.725 239.782Z" fill="#E0E0E0"/>
<path d="M371.307 252.927C367.663 245.639 367.918 237.058 371.052 229.506C373.256 232.868 373.529 237.149 373.12 241.148C372.71 245.147 371.498 249.274 371.425 253.291" fill="#E0E0E0"/>
<path d="M356.814 245.621C352.27 245.56 347.764 246.447 343.584 248.228C339.404 250.008 335.641 252.642 332.537 255.96C337.092 256.671 341.71 255.505 345.828 253.491C349.875 251.347 353.69 248.792 357.214 245.867" fill="#E0E0E0"/>
<path d="M347.068 242.36C342.631 241.995 338.368 241.449 334.105 242.761C329.842 244.072 325.961 247.024 324.23 251.132C328.411 251.468 332.604 250.675 336.373 248.836C340.124 247.001 343.703 244.834 347.068 242.36Z" fill="#E0E0E0"/>
<path d="M361.497 242.514C357.507 239.9 353.417 237.24 348.744 236.138C344.071 235.036 338.723 235.846 335.48 239.354C339.243 241.558 343.797 241.813 348.161 241.813C352.524 241.813 357.862 241.758 361.97 243.216" fill="#E0E0E0"/>
<path d="M361.514 242.715C354.7 236.02 352.113 223.995 354.864 214.849C360.243 223.087 362.594 232.936 361.514 242.715Z" fill="#E0E0E0"/>
<path d="M380.262 223.749C381.546 220.761 382.457 217.628 383.605 214.585C384.657 211.497 386.273 208.631 388.369 206.132C390.502 203.624 393.534 202.054 396.813 201.759C395.762 206.371 393.762 210.714 390.938 214.51C388.115 218.305 384.532 221.471 380.417 223.804" fill="#E0E0E0"/>
<path d="M376.873 227.703C374.741 224.779 372.318 220.798 369.403 218.593C366.488 216.389 362.763 215.086 359.237 215.924C361.061 219.12 363.605 221.846 366.666 223.887C369.727 225.929 373.222 227.229 376.873 227.684" fill="#E0E0E0"/>
<path d="M377.547 223.995C376.017 220.49 374.889 216.823 374.185 213.064C373.486 209.288 374.087 205.387 375.889 201.996C379.633 209.065 380.835 216.662 377.711 224.041" fill="#E0E0E0"/>
<path d="M380.298 202.033C382.42 195.018 388.842 189.853 395.784 187.458C396.648 187.102 397.587 186.964 398.517 187.057C398.977 187.107 399.413 187.292 399.77 187.588C400.126 187.885 400.387 188.28 400.521 188.724C400.776 189.917 399.783 190.983 398.863 191.775C393.441 196.401 387.138 199.881 380.334 202.005" fill="#E0E0E0"/>
<path d="M380.371 196.293C380.644 191.739 380.927 187.184 382.393 182.903C383.86 178.621 386.702 174.604 390.829 172.728C391.53 177.282 389.508 181.837 387.085 185.763C384.662 189.689 381.719 193.406 380.262 197.787" fill="#E0E0E0"/>
<path d="M380.263 199.409C378.514 194.299 378.332 187.804 375.271 183.358C373.13 180.243 369.705 178.121 367.865 174.823C366.751 177.985 366.905 181.455 368.293 184.506C369.687 187.523 371.605 190.268 373.959 192.614C376.218 195.028 378.159 196.849 380.263 199.409Z" fill="#E0E0E0"/>
<path d="M380.298 349.905C380.161 349.905 380.043 315.809 380.034 273.769C380.025 231.729 380.125 197.624 380.262 197.624C380.398 197.624 380.517 231.711 380.526 273.769C380.535 315.827 380.435 349.905 380.298 349.905Z" fill="#E0E0E0"/>
<path d="M410.086 247.789C409.675 247.984 409.249 248.142 408.811 248.262L405.276 249.456C402.306 250.467 398.216 251.934 393.789 253.755C389.362 255.577 385.254 257.171 382.858 259.221C381.918 260.007 381.17 260.998 380.672 262.118C380.335 262.91 380.271 263.402 380.225 263.393C380.18 263.384 380.225 263.275 380.225 263.038C380.277 262.7 380.36 262.368 380.471 262.045C380.922 260.856 381.657 259.796 382.612 258.957C384.035 257.757 385.625 256.769 387.331 256.024C389.225 255.113 391.321 254.202 393.543 253.291C397.989 251.469 402.106 250.048 405.121 249.119C406.624 248.645 407.854 248.299 408.701 248.071C409.152 247.929 409.616 247.835 410.086 247.789Z" fill="#E0E0E0"/>
<path d="M419.85 223.804C419.85 223.804 419.741 223.941 419.495 224.187L418.402 225.207C417.382 226.118 416.006 227.393 414.312 228.923L400.721 241.021C395.419 245.748 390.837 250.258 387.658 253.655C386.064 255.35 384.807 256.762 383.959 257.736L382.967 258.911C382.739 259.167 382.611 259.303 382.602 259.285C382.593 259.267 382.684 259.13 382.894 258.848C383.103 258.565 383.395 258.174 383.805 257.663C384.624 256.643 385.836 255.195 387.403 253.464C391.505 248.987 395.841 244.73 400.393 240.711C405.722 236.001 410.568 231.766 414.057 228.714L418.247 225.125L419.404 224.159C419.533 224.018 419.684 223.898 419.85 223.804Z" fill="#E0E0E0"/>
<path d="M395 245.821C394.854 245.767 395.966 243.207 397.068 239.964C398.17 236.721 398.708 233.997 398.89 234.025C398.769 236.115 398.324 238.174 397.569 240.128C397.093 241.523 396.543 242.891 395.92 244.227C395.69 244.799 395.38 245.336 395 245.821Z" fill="#E0E0E0"/>
<path d="M380.326 266.463C380.025 266.171 379.754 265.851 379.515 265.506L377.42 262.828C375.662 260.551 373.23 257.408 370.497 253.974C367.764 250.54 365.286 247.461 363.464 245.247C362.608 244.191 361.898 243.298 361.324 242.596C361.051 242.28 360.804 241.942 360.586 241.585C360.923 241.854 361.229 242.159 361.497 242.496C362.043 243.088 362.818 243.963 363.765 245.047C365.651 247.224 368.201 250.276 370.934 253.719C373.667 257.162 376.054 260.332 377.739 262.664C378.586 263.821 379.26 264.778 379.716 265.443C379.953 265.761 380.158 266.103 380.326 266.463Z" fill="#E0E0E0"/>
<path d="M373.794 258.073C372.474 256.619 371.535 254.86 371.061 252.954C370.548 251.283 370.338 249.534 370.442 247.789H370.66C370.56 248.181 370.487 248.39 370.451 248.381C370.414 248.372 370.405 248.153 370.451 247.752H370.669C370.791 249.453 371.097 251.136 371.58 252.772C372.189 254.59 372.929 256.362 373.794 258.073Z" fill="#E0E0E0"/>
<path d="M365.368 247.461C364.778 247.017 364.136 246.647 363.456 246.359C361.735 245.844 359.925 245.698 358.145 245.93C356.345 246.073 354.559 246.362 352.807 246.796C352.088 247.021 351.354 247.198 350.611 247.324C351.266 246.932 351.975 246.641 352.716 246.459C354.47 245.921 356.279 245.579 358.108 245.439C359.951 245.195 361.826 245.398 363.574 246.031C364.317 246.29 364.95 246.794 365.368 247.461Z" fill="#E0E0E0"/>
<path d="M363.365 244.892C363.365 244.974 362.254 244.446 360.441 243.826C358.082 243.029 355.635 242.524 353.153 242.323C350.663 242.139 348.16 242.268 345.702 242.706C343.816 243.043 342.678 243.398 342.65 243.316C342.89 243.166 343.151 243.052 343.425 242.979C344.151 242.732 344.89 242.525 345.638 242.36C350.622 241.268 355.817 241.664 360.578 243.498C361.291 243.758 361.988 244.062 362.664 244.409C362.92 244.535 363.156 244.698 363.365 244.892Z" fill="#E0E0E0"/>
<path d="M380.261 234.025C379.397 231.6 378.685 229.123 378.13 226.61C377.415 224.134 376.861 221.614 376.472 219.067C377.335 221.495 378.047 223.975 378.603 226.491C379.319 228.964 379.872 231.48 380.261 234.025Z" fill="#E0E0E0"/>
<path d="M380.398 234.025C379.717 232.488 378.925 231.002 378.03 229.579C377.028 228.239 375.859 227.033 374.55 225.99C375.049 226.108 375.511 226.346 375.898 226.682C376.884 227.407 377.743 228.291 378.439 229.297C379.498 230.672 380.174 232.303 380.398 234.025Z" fill="#E0E0E0"/>
<path d="M380.299 331.732C380.244 331.732 380.144 330.912 379.761 329.463C379.196 327.426 378.433 325.449 377.484 323.56C375.124 318.751 370.843 312.629 365.396 306.535C362.663 303.447 360.076 300.541 357.853 297.754C355.861 295.306 354.061 292.708 352.469 289.983C351.395 288.14 350.481 286.208 349.737 284.208C349.482 283.497 349.299 282.942 349.199 282.559C349.13 282.371 349.084 282.175 349.062 281.976C349.108 281.976 349.354 282.75 349.919 284.144C350.717 286.101 351.668 287.992 352.761 289.801C354.393 292.488 356.22 295.051 358.227 297.471C360.458 300.204 363.082 303.119 365.787 306.207C371.253 312.338 375.525 318.514 377.812 323.406C378.749 325.324 379.47 327.34 379.961 329.418C380.125 330.156 380.226 330.729 380.271 331.13C380.302 331.329 380.312 331.531 380.299 331.732Z" fill="#E0E0E0"/>
<path d="M407.189 301.324C406.735 301.617 406.263 301.881 405.777 302.117C404.509 302.837 403.291 303.643 402.134 304.531C400.417 305.865 398.808 307.333 397.324 308.922C395.639 310.744 393.899 312.766 392.122 314.989C388.579 319.434 385.263 323.369 383.277 326.512C382.266 328.07 381.537 329.39 381.055 330.31C380.829 330.801 380.57 331.276 380.28 331.732C380.28 331.732 380.28 331.586 380.408 331.331C380.535 331.076 380.654 330.693 380.881 330.228C381.502 328.887 382.205 327.585 382.986 326.33C384.908 323.114 388.205 319.124 391.74 314.679C393.516 312.456 395.274 310.379 396.996 308.603C398.512 307.017 400.16 305.563 401.924 304.258C403.116 303.38 404.38 302.605 405.705 301.944C406.169 301.707 406.552 301.57 406.798 301.461C407.044 301.352 407.189 301.306 407.189 301.324Z" fill="#E0E0E0"/>
<path d="M407.745 311.19C406.764 311.407 405.768 311.55 404.766 311.618C402.369 311.865 400 312.332 397.688 313.012C395.406 313.758 393.266 314.882 391.357 316.337C389.9 317.466 389.207 318.396 389.144 318.341C389.08 318.286 389.262 318.077 389.581 317.658C390.048 317.078 390.569 316.544 391.138 316.064C393.021 314.496 395.185 313.303 397.515 312.547C399.854 311.848 402.266 311.42 404.702 311.272C405.712 311.148 406.73 311.12 407.745 311.19Z" fill="#E0E0E0"/>
<path d="M390.008 317.257C389.853 317.175 391.202 315.116 392.24 312.356C393.279 309.596 393.452 307.127 393.625 307.155C393.701 307.688 393.686 308.23 393.579 308.758C393.418 310.045 393.113 311.31 392.668 312.529C392.218 313.739 391.638 314.897 390.937 315.981C390.702 316.456 390.388 316.887 390.008 317.257Z" fill="#E0E0E0"/>
<path d="M415.934 274.844C415.785 274.944 415.627 275.03 415.461 275.099L414.058 275.727C413.447 275.992 412.701 276.329 411.862 276.775C411.024 277.221 410.041 277.686 409.011 278.269L407.381 279.18C406.816 279.499 406.26 279.881 405.668 280.255C404.466 280.983 403.263 281.876 402.024 282.796C399.297 284.855 396.727 287.114 394.336 289.555C391.98 292.033 389.806 294.679 387.832 297.471C386.967 298.783 386.11 300.022 385.427 301.243C385.072 301.844 384.707 302.418 384.407 302.992L383.496 304.65C382.922 305.697 382.503 306.69 382.102 307.546C381.701 308.403 381.373 309.159 381.137 309.778C380.9 310.398 380.699 310.826 380.544 311.208C380.488 311.379 380.408 311.542 380.308 311.691C380.334 311.513 380.383 311.338 380.453 311.172C380.59 310.789 380.754 310.306 380.954 309.714C381.155 309.122 381.455 308.312 381.865 307.437C382.275 306.563 382.64 305.551 383.204 304.495L384.052 302.809C384.352 302.227 384.707 301.653 385.054 301.033C385.728 299.794 386.575 298.546 387.44 297.216C391.336 291.525 396.165 286.532 401.724 282.45C403.026 281.539 404.238 280.628 405.459 279.927C406.06 279.562 406.625 279.18 407.198 278.87L408.856 277.959C409.895 277.367 410.897 276.939 411.753 276.52C412.609 276.101 413.365 275.791 413.994 275.554L415.433 274.999C415.593 274.925 415.761 274.873 415.934 274.844Z" fill="#E0E0E0"/>
<path d="M394.628 289.118C394.833 288.429 395.243 287.819 395.803 287.369C397.116 286.231 398.785 285.586 400.522 285.547C402.227 285.547 403.916 285.878 405.495 286.522C406.161 286.735 406.793 287.042 407.372 287.433C406.69 287.302 406.022 287.107 405.377 286.85C403.82 286.317 402.186 286.046 400.54 286.048C398.908 286.083 397.329 286.635 396.031 287.624C395.53 288.09 395.061 288.589 394.628 289.118Z" fill="#E0E0E0"/>
<path d="M391.448 292.397C392.08 291.01 392.531 289.546 392.787 288.043C392.888 286.518 392.787 284.987 392.487 283.488C392.77 283.86 392.96 284.294 393.042 284.755C393.326 285.845 393.406 286.978 393.279 288.098C393.151 289.218 392.811 290.303 392.277 291.295C391.858 292.042 391.494 292.434 391.448 292.397Z" fill="#E0E0E0"/>
<path d="M283.984 184.524H187.972V366.028H283.984V184.524Z" fill="#E0E0E0"/>
<path d="M255.492 184.524H159.479V366.028H255.492V184.524Z" fill="#F5F5F5"/>
<path d="M248.422 221.882H166.01V193.114H248.422V221.882ZM167.021 220.871H247.411V194.126H167.021V220.871Z" fill="#E0E0E0"/>
<path d="M192.135 193.625H223.407V194.854C223.407 196.05 222.932 197.197 222.087 198.043C221.241 198.888 220.094 199.364 218.898 199.364H196.644C195.448 199.364 194.301 198.888 193.455 198.043C192.61 197.197 192.135 196.05 192.135 194.854V193.625Z" fill="#EBEBEB"/>
<path d="M248.422 258.428H166.01V229.661H248.422V258.428ZM167.021 257.417H247.411V230.672H167.021V257.417Z" fill="#E0E0E0"/>
<path d="M192.135 230.162H223.407V231.392C223.407 232.588 222.932 233.735 222.087 234.58C221.241 235.426 220.094 235.901 218.898 235.901H196.644C195.448 235.901 194.301 235.426 193.455 234.58C192.61 233.735 192.135 232.588 192.135 231.392V230.162Z" fill="#EBEBEB"/>
<path d="M248.422 294.975H166.01V266.199H248.422V294.975ZM167.021 293.964H247.411V267.219H167.021V293.964Z" fill="#E0E0E0"/>
<path d="M192.135 266.709H223.407V267.939C223.407 269.135 222.932 270.281 222.087 271.127C221.241 271.973 220.094 272.448 218.898 272.448H196.644C195.448 272.448 194.301 271.973 193.455 271.127C192.61 270.281 192.135 269.135 192.135 267.939V266.709Z" fill="#EBEBEB"/>
<path d="M248.422 331.522H166.01V302.755H248.422V331.522ZM167.021 330.511H247.411V303.766H167.021V330.511Z" fill="#E0E0E0"/>
<path d="M192.135 303.256H223.407V304.458C223.407 305.654 222.932 306.801 222.087 307.647C221.241 308.492 220.094 308.967 218.898 308.967H196.644C195.448 308.967 194.301 308.492 193.455 307.647C192.61 306.801 192.135 305.654 192.135 304.458V303.228V303.256Z" fill="#EBEBEB"/>
<path d="M259.508 177.729H155.215V186.765H259.508V177.729Z" fill="#EBEBEB"/>
<path d="M290.871 177.729H259.508V186.765H290.871V177.729Z" fill="#E0E0E0"/>
<path d="M122.112 16.7676L114.569 16.843L114.945 54.3645L122.487 54.289L122.112 16.7676Z" fill="#E0E0E0"/>
<path d="M68.4989 17.5661L48.9688 17.6718L49.0808 38.3861L68.611 38.2805L68.4989 17.5661Z" fill="#EBEBEB"/>
<path d="M87.9296 17.461L68.3994 17.5667L68.5115 38.281L88.0417 38.1754L87.9296 17.461Z" fill="#F5F5F5"/>
<path d="M48.9903 23.3978C61.9742 23.5011 74.9611 23.4403 87.9511 23.2156C88.0066 23.2156 88.0599 23.1936 88.0992 23.1543C88.1385 23.115 88.1606 23.0617 88.1606 23.0061C88.1606 22.9505 88.1385 22.8973 88.0992 22.858C88.0599 22.8187 88.0066 22.7966 87.9511 22.7966C74.9672 22.7359 61.9803 22.8179 48.9903 23.0426C48.9501 23.0517 48.9141 23.0743 48.8884 23.1066C48.8627 23.1388 48.8486 23.1789 48.8486 23.2202C48.8486 23.2615 48.8627 23.3015 48.8884 23.3338C48.9141 23.3661 48.9501 23.3886 48.9903 23.3978Z" fill="#E0E0E0"/>
<path d="M72.2633 37.9231L36.792 38.115L36.8833 54.9944L72.3547 54.8025L72.2633 37.9231Z" fill="#EBEBEB"/>
<path d="M107.569 37.7412L72.0977 37.9331L72.189 54.8125L107.66 54.6206L107.569 37.7412Z" fill="#F5F5F5"/>
<path d="M36.8107 42.8191C60.3766 43.0924 84.0245 42.8191 107.59 42.473C107.646 42.473 107.699 42.4509 107.739 42.4116C107.778 42.3723 107.8 42.319 107.8 42.2634C107.8 42.2079 107.778 42.1546 107.739 42.1153C107.699 42.076 107.646 42.0539 107.59 42.0539C84.0245 41.9355 60.3766 41.9446 36.8107 42.4638C36.7704 42.473 36.7345 42.4956 36.7087 42.5279C36.683 42.5601 36.6689 42.6002 36.6689 42.6415C36.6689 42.6828 36.683 42.7228 36.7087 42.7551C36.7345 42.7874 36.7704 42.8099 36.8107 42.8191Z" fill="#E0E0E0"/>
<path d="M160.991 55.0074H23.5488V61.0561H160.991V55.0074Z" fill="#E0E0E0"/>
<path d="M51.6228 57.9132H46.0479V78.5459H51.6228V57.9132Z" fill="#E0E0E0"/>
<path d="M134.919 57.9133H129.335V78.546H134.919V57.9133Z" fill="#E0E0E0"/>
<path d="M129.182 3.47323L121.64 3.51404L121.919 55.1178L129.461 55.077L129.182 3.47323Z" fill="#EBEBEB"/>
<path d="M140.966 13.0744L129.252 13.1378L129.478 54.9583L141.193 54.8949L140.966 13.0744Z" fill="#F5F5F5"/>
<path d="M140.887 21.157C138.942 21.3677 136.984 21.4377 135.029 21.3665C133.074 21.4381 131.117 21.368 129.172 21.157C131.118 20.9575 133.074 20.8906 135.029 20.9566C136.984 20.8909 138.941 20.9579 140.887 21.157Z" fill="#E0E0E0"/>
<path d="M140.887 19.3898C138.941 19.589 136.984 19.6559 135.029 19.5902C133.074 19.6563 131.118 19.5893 129.172 19.3898C131.117 19.1788 133.074 19.1088 135.029 19.1803C136.984 19.1091 138.942 19.1792 140.887 19.3898Z" fill="#E0E0E0"/>
<path d="M140.887 48.6127C138.941 48.8119 136.984 48.8788 135.029 48.8131C133.074 48.8792 131.118 48.8122 129.172 48.6127C131.118 48.4132 133.074 48.3463 135.029 48.4123C136.984 48.3466 138.941 48.4135 140.887 48.6127Z" fill="#E0E0E0"/>
<path d="M140.887 46.8545C138.941 47.0537 136.984 47.1206 135.029 47.0549C133.074 47.121 131.118 47.054 129.172 46.8545C131.118 46.655 133.074 46.5881 135.029 46.6541C136.984 46.5884 138.941 46.6554 140.887 46.8545Z" fill="#E0E0E0"/>
<path d="M135.21 43.0196C135.101 43.0196 135.01 38.8019 135.01 33.6005C135.01 28.399 135.101 24.1814 135.21 24.1814C135.319 24.1814 135.42 28.399 135.42 33.6005C135.42 38.8019 135.329 43.0196 135.21 43.0196Z" fill="#E0E0E0"/>
<path d="M153.767 23.3524H141.014V54.9163H153.767V23.3524Z" fill="#EBEBEB"/>
<path d="M127.468 12.2938C127.468 12.7226 127.341 13.1417 127.103 13.4983C126.864 13.8548 126.526 14.1327 126.13 14.2968C125.733 14.4609 125.297 14.5038 124.877 14.4201C124.456 14.3365 124.07 14.13 123.767 13.8268C123.464 13.5236 123.257 13.1373 123.173 12.7167C123.09 12.2962 123.133 11.8602 123.297 11.4641C123.461 11.0679 123.739 10.7293 124.095 10.4911C124.452 10.2529 124.871 10.1257 125.3 10.1257C125.874 10.1281 126.424 10.3573 126.83 10.7634C127.236 11.1694 127.465 11.7195 127.468 12.2938Z" fill="#E0E0E0"/>
<path d="M125.964 18.2511H124.625V48.9496H125.964V18.2511Z" fill="#E0E0E0"/>
<path d="M615.712 140.699L616.914 135.234C617.901 130.475 616.958 125.52 614.291 121.458C611.624 117.395 607.453 114.558 602.695 113.571C597.936 112.585 592.981 113.528 588.919 116.195C584.856 118.862 582.02 123.033 581.033 127.791L579.803 133.348C577.351 133.205 574.93 133.95 572.981 135.445C571.033 136.94 569.687 139.086 569.191 141.492L562.522 173.757C562.248 175.075 562.236 176.435 562.488 177.758C562.74 179.081 563.25 180.341 563.99 181.466C564.729 182.592 565.684 183.56 566.798 184.316C567.912 185.072 569.165 185.601 570.484 185.873L603.952 192.814C606.615 193.363 609.388 192.831 611.66 191.337C613.932 189.842 615.517 187.506 616.067 184.843L622.744 152.578C623.261 150.078 622.826 147.475 621.525 145.278C620.225 143.082 618.152 141.449 615.712 140.699ZM595.553 172.227L586.79 170.405L589.468 164.356C588.611 163.544 588.04 162.475 587.84 161.311C587.641 160.147 587.824 158.95 588.362 157.898C588.9 156.847 589.765 155.998 590.826 155.479C591.887 154.96 593.087 154.799 594.247 155.019C595.408 155.24 596.466 155.83 597.262 156.702C598.059 157.574 598.552 158.68 598.667 159.856C598.782 161.031 598.514 162.212 597.901 163.222C597.289 164.232 596.366 165.017 595.271 165.458C595.389 168.045 595.553 172.227 595.553 172.227ZM611.85 139.852L583.693 134.031L584.895 128.62C585.663 124.885 587.884 121.608 591.068 119.51C594.253 117.413 598.14 116.666 601.875 117.434C605.61 118.202 608.887 120.423 610.985 123.607C613.082 126.791 613.829 130.679 613.061 134.414L611.85 139.852Z" fill="#EBEBEB"/>
<path d="M347.842 71.7231C346.093 71.8286 344.347 71.4735 342.778 70.6933C341.209 69.9131 339.872 68.7351 338.9 67.2768C337.928 65.8185 337.356 64.1309 337.241 62.3824C337.125 60.6339 337.47 58.8857 338.241 57.3121L363.747 5.58004C364.517 3.99826 365.694 2.64986 367.157 1.67332C368.62 0.696786 370.317 0.127294 372.073 0.023327C373.823 -0.0969675 375.573 0.249523 377.144 1.02737C378.716 1.80522 380.053 2.98652 381.018 4.45048L413.065 52.4022C414.038 53.864 414.61 55.5558 414.723 57.3082C414.836 59.0606 414.487 60.8119 413.71 62.3868C412.933 63.9616 411.756 65.3047 410.297 66.2814C408.837 67.2581 407.147 67.8341 405.395 67.9518L347.842 71.7231ZM372.292 3.00209C371.06 3.07759 369.872 3.47935 368.847 4.16611C367.823 4.85288 366.999 5.79991 366.462 6.91L340.955 58.633C340.412 59.7365 340.169 60.9632 340.248 62.1905C340.328 63.4178 340.729 64.6026 341.411 65.6264C342.092 66.6502 343.031 67.477 344.132 68.0242C345.234 68.5714 346.46 68.8197 347.687 68.7443L405.24 64.9731C406.473 64.8937 407.664 64.4903 408.691 63.8038C409.718 63.1173 410.546 62.1719 411.091 61.0631C411.637 59.9543 411.88 58.7212 411.796 57.4884C411.712 56.2557 411.305 55.0668 410.615 54.0418L378.559 6.10838C377.883 5.08216 376.946 4.25386 375.845 3.7081C374.744 3.16234 373.518 2.91871 372.292 3.00209Z" fill="#E0E0E0"/>
<path d="M371.471 54.0236C371.439 53.523 371.509 53.021 371.677 52.5482C371.844 52.0755 372.107 51.6419 372.448 51.2738C372.789 50.9056 373.201 50.6107 373.659 50.4069C374.118 50.2031 374.613 50.0948 375.114 50.0884C375.604 50.037 376.099 50.0855 376.569 50.2307C377.04 50.3759 377.476 50.6149 377.851 50.9333C378.227 51.2517 378.534 51.6429 378.754 52.0832C378.974 52.5235 379.102 53.0039 379.132 53.4953C379.178 53.99 379.122 54.489 378.969 54.9616C378.815 55.4341 378.566 55.8702 378.238 56.243C377.909 56.6159 377.508 56.9176 377.059 57.1297C376.609 57.3417 376.121 57.4596 375.625 57.4761C375.123 57.5326 374.616 57.4872 374.132 57.3427C373.649 57.1982 373.2 56.9574 372.812 56.635C372.424 56.3125 372.105 55.915 371.875 55.4662C371.644 55.0175 371.507 54.5268 371.471 54.0236ZM369.722 24.0265L376.772 23.5437L377.137 45.9254L372.418 46.2533L369.722 24.0265Z" fill="#E0E0E0"/>
<path d="M236.816 153.598L246.536 178.457L240.497 178.43L235.65 163.154L236.816 153.598Z" fill="#E0E0E0"/>
<path d="M203.631 130.624L200.288 178.266L234.785 178.986L238.666 130.624H203.631Z" fill="#EBEBEB"/>
<path d="M207.083 134.459L204.296 174.112L229.939 175.315L233.528 134.222L207.083 134.459Z" fill="#FAFAFA"/>
<path d="M212.704 140.061L210.627 167.936H224.774L227.27 140.061H212.704Z" fill="#E0E0E0"/>
<path d="M28.503 257.636C36.7014 245.092 36.3826 226.746 26.59 215.405C23.5475 211.88 19.3025 208.819 14.6568 209.211C10.011 209.602 6.08486 213.692 4.63647 218.229C3.18808 222.765 3.72553 227.694 4.53626 232.385C5.72959 238.944 7.71543 245.666 12.2701 250.54C16.8248 255.413 22.6366 260.833 28.4939 257.636" fill="#6F0000"/>
<path d="M24.8407 317.621C26.3125 313.971 26.5996 309.951 25.6612 306.129C24.7229 302.307 22.6067 298.877 19.6119 296.323C17.7263 294.784 15.2577 293.591 12.9074 294.219C10.5572 294.848 8.89933 297.307 8.56229 299.776C8.38092 302.269 8.80599 304.77 9.80116 307.063C11.0036 310.334 12.6342 313.613 15.4307 315.717C18.2273 317.822 22.117 319.789 24.8407 317.612" fill="#6F0000"/>
<path d="M44.6346 313.312C42.3755 302.19 48.2783 289.911 58.2986 284.673C61.4322 283.051 65.2764 282.086 68.4282 283.671C71.5801 285.256 73.2015 289.218 72.9829 292.78C72.7643 296.342 70.9971 299.694 69.0841 302.755C66.4151 307.045 63.1266 311.208 58.5628 313.367C53.999 315.526 47.8502 317.211 44.6346 313.312Z" fill="#6F0000"/>
<path d="M43.2053 283.233C39.2791 270.553 45.9381 255.186 57.0333 247.916C60.4766 245.657 64.84 244.09 68.6933 245.557C72.5465 247.024 74.8968 251.451 75.0698 255.668C75.2429 259.886 73.5668 263.949 71.7085 267.729C69.0941 273.031 65.7692 278.26 60.7044 281.302C55.6396 284.345 47.3683 287.378 43.2053 283.233Z" fill="#6F0000"/>
<path d="M35.3178 345.186C35.384 344.988 35.4268 344.784 35.4453 344.576C35.5182 344.111 35.6002 343.528 35.7095 342.809C35.7641 342.417 35.8188 341.989 35.8826 341.524L36.1741 340.021C36.3836 338.937 36.5931 337.698 36.9483 336.377C37.1123 335.703 37.2854 335.002 37.4585 334.264C37.6316 333.526 37.8957 332.788 38.1235 332.005C38.5516 330.429 39.171 328.808 39.754 327.068C42.513 319.599 46.2929 312.548 50.9859 306.116C52.1063 304.668 53.1175 303.247 54.2015 302.026L55.7136 300.204C56.2329 299.658 56.7248 299.12 57.1985 298.61C58.1094 297.581 59.0203 296.715 59.8128 295.95L60.906 294.875L61.8807 294.019L63.2015 292.826C63.362 292.689 63.5113 292.54 63.6479 292.379C63.462 292.473 63.2902 292.593 63.1378 292.734L61.744 293.864C61.4343 294.11 61.0973 294.383 60.742 294.684C60.3867 294.984 60.0133 295.358 59.6124 295.731C58.8017 296.478 57.8634 297.326 56.8796 298.355L55.3675 299.931L53.8189 301.753C52.7258 302.964 51.6964 304.385 50.5577 305.834C48.2085 309.058 46.0782 312.436 44.1812 315.945C42.314 319.478 40.68 323.13 39.2895 326.876C38.7156 328.625 38.1052 330.265 37.6953 331.85C37.4767 332.643 37.2672 333.399 37.0577 334.136C36.8481 334.874 36.7297 335.585 36.584 336.268C36.2469 337.625 36.0556 338.864 35.8826 339.957C35.7915 340.504 35.7095 341.005 35.6366 341.479C35.5637 341.952 35.5455 342.39 35.5 342.772C35.4392 343.495 35.3846 344.087 35.336 344.548C35.3072 344.76 35.3011 344.974 35.3178 345.186Z" fill="#263238"/>
<path d="M35.6085 347.464C35.6205 347.379 35.6205 347.293 35.6085 347.208C35.6085 347.017 35.6085 346.771 35.5539 346.48C35.4901 345.787 35.399 344.849 35.2897 343.656C35.235 343.046 35.1622 342.362 35.0893 341.624C35.0164 340.887 35.0164 340.076 34.9709 339.201C34.9071 337.461 34.734 335.476 34.7978 333.289C34.7978 332.187 34.7978 331.039 34.7978 329.846C34.7978 328.653 34.9253 327.405 34.98 326.12C35.0711 323.542 35.4172 320.8 35.7269 317.922C36.5757 311.693 37.8757 305.534 39.6166 299.494C41.4632 293.474 43.7497 287.597 46.4578 281.913C47.7604 279.335 48.9628 276.848 50.2928 274.625C50.9487 273.514 51.5317 272.412 52.1693 271.4L53.9912 268.513C55.139 266.636 56.3597 265.069 57.3617 263.639C57.8718 262.938 58.3364 262.264 58.7919 261.672L60.0672 260.077L61.8162 257.864L62.2625 257.272C62.3627 257.144 62.4083 257.071 62.3992 257.062C62.39 257.053 62.3354 257.117 62.217 257.235L61.7342 257.791L59.9123 259.95L58.5914 261.517C58.1269 262.1 57.6805 262.765 57.1339 263.466C56.1046 264.878 54.8566 266.436 53.6906 268.294L51.7867 271.182C51.14 272.193 50.5388 273.295 49.8829 274.406C48.5256 276.611 47.3049 279.098 45.9841 281.694C43.2647 287.393 40.9868 293.292 39.1703 299.339C37.4136 305.405 36.1194 311.596 35.2988 317.858C35.0073 320.755 34.6703 323.506 34.6065 326.057C34.5518 327.35 34.4516 328.598 34.4425 329.801C34.4334 331.003 34.4425 332.151 34.4425 333.253C34.4425 335.457 34.6065 337.443 34.6976 339.183C34.7522 340.094 34.7887 340.868 34.8616 341.615C34.9344 342.362 35.0346 343.027 35.1075 343.647C35.2624 344.831 35.3808 345.769 35.4719 346.452C35.4719 346.744 35.5539 346.99 35.5812 347.181C35.5755 347.276 35.5847 347.371 35.6085 347.464Z" fill="#263238"/>
<path d="M14.2471 224.369C14.272 224.452 14.3088 224.532 14.3564 224.605L14.7025 225.261L16.1054 227.766C16.406 228.313 16.7704 228.896 17.1165 229.588L18.2187 231.784L19.4849 234.316C19.9131 235.227 20.3139 236.202 20.7694 237.213C21.2248 238.224 21.6803 239.299 22.154 240.419L23.5204 243.954C23.7572 244.564 23.9941 245.184 24.2309 245.821L24.8959 247.771L26.2714 251.842C28.0022 257.463 29.651 263.73 31.0447 270.38C32.4385 277.03 33.3403 283.452 34.0326 289.291C34.7249 295.13 35.0802 300.441 35.1986 304.895C35.3079 307.118 35.3352 309.131 35.3444 310.898C35.3535 312.666 35.3444 314.196 35.3444 315.453L35.2988 318.323C35.2988 318.623 35.2988 318.869 35.2988 319.07C35.2845 319.154 35.2845 319.24 35.2988 319.325C35.3099 319.243 35.3099 319.16 35.2988 319.079C35.2988 318.878 35.2988 318.632 35.2988 318.332C35.2988 317.63 35.3808 316.674 35.4446 315.462C35.5083 314.251 35.5448 312.729 35.5448 310.908C35.5448 309.086 35.5448 307.118 35.481 304.886C35.4081 300.423 34.9982 295.121 34.4243 289.245C33.8504 283.37 32.8211 276.957 31.4729 270.28C30.1247 263.603 28.4121 257.335 26.6358 251.706C26.1621 250.303 25.6975 248.943 25.2421 247.625C25.0143 246.96 24.7866 246.313 24.568 245.666C24.3493 245.02 24.0761 244.418 23.8301 243.844C23.3564 242.624 22.9192 241.44 22.4364 240.31C21.9536 239.18 21.4708 238.124 21.0153 237.104C20.5599 236.083 20.1044 235.118 19.6945 234.216L18.3827 231.693C17.9728 230.909 17.5993 230.171 17.244 229.497C16.8888 228.823 16.5062 228.24 16.1874 227.675C15.5588 226.646 15.0578 225.853 14.7025 225.225C14.5386 224.97 14.4019 224.76 14.3017 224.587C14.2015 224.414 14.2562 224.36 14.2471 224.369Z" fill="#263238"/>
<path d="M17.0332 301.361C17.2953 301.895 17.5999 302.407 17.9441 302.891C18.5454 303.857 19.3652 305.269 20.3308 307.045C21.2964 308.822 22.3622 310.981 23.4371 313.422C24.512 315.863 25.5322 318.623 26.4523 321.566C27.2828 324.329 27.973 327.132 28.5201 329.964C29.012 332.588 29.3582 334.966 29.5495 336.979C29.7408 338.992 29.8774 340.622 29.9229 341.752C29.9183 342.35 29.964 342.947 30.0596 343.537C30.1252 342.954 30.1465 342.366 30.1234 341.779C30.1234 340.641 30.1234 339.001 29.9229 336.97C29.7225 334.938 29.4675 332.542 29.012 329.901C28.4717 327.033 27.7784 324.196 26.9351 321.402C26.0608 318.614 25.0329 315.877 23.8561 313.203C22.89 311.024 21.8137 308.896 20.6314 306.827C19.6112 305.069 18.7367 303.675 18.0808 302.746C17.7638 302.261 17.4138 301.798 17.0332 301.361Z" fill="#263238"/>
<path d="M45.9207 260.214C45.9066 260.329 45.9066 260.445 45.9207 260.56C45.9207 260.833 45.9207 261.161 46.0027 261.562C46.0938 262.473 46.2213 263.721 46.3671 265.206C46.7041 268.294 47.1778 272.566 47.7335 277.285C47.7335 277.467 47.7335 277.649 47.7973 277.813V277.968H47.9521C52.5797 278.032 56.7518 278.077 59.7943 278.096H63.3561H64.3216C64.5403 278.096 64.6587 278.096 64.6587 278.096C64.5465 278.086 64.4338 278.086 64.3216 278.096L63.3561 278.05L59.8034 277.932C56.7882 277.85 52.6252 277.768 47.9612 277.695L48.1343 277.85L48.0797 277.321C47.524 272.612 47.0047 268.34 46.613 265.251C46.4126 263.758 46.2487 262.519 46.1211 261.608C46.0665 261.216 46.0118 260.888 45.9754 260.615C45.9791 260.479 45.9606 260.344 45.9207 260.214Z" fill="#263238"/>
<path d="M54.1172 249.21C54.1172 249.21 54.1172 249.328 54.1172 249.565C54.1172 249.802 54.1172 250.185 54.1172 250.604C54.1172 251.515 54.1172 252.835 54.1172 254.402C54.1172 257.609 54.2447 262.036 54.3631 266.928C54.3631 267.119 54.3631 267.319 54.3631 267.501V267.693H54.5544C58.588 267.381 62.6355 267.29 66.679 267.419C68.2185 267.465 69.4665 267.529 70.3227 267.574L71.3065 267.62C71.4241 267.641 71.5443 267.641 71.6618 267.62C71.5497 267.584 71.4333 267.562 71.3157 267.556C71.0879 267.556 70.76 267.483 70.3318 267.447C69.4665 267.356 68.2276 267.255 66.6881 267.174C62.6351 266.968 58.5731 267.023 54.5271 267.337L54.7275 267.511C54.7275 267.328 54.7275 267.128 54.7275 266.937C54.6091 262.045 54.4816 257.618 54.3722 254.411C54.3085 252.844 54.2538 251.569 54.2174 250.613L54.1627 249.583C54.1629 249.457 54.1476 249.332 54.1172 249.21Z" fill="#263238"/>
<path d="M63.7105 245.457C63.6041 245.802 63.5279 246.155 63.4827 246.513C63.3461 247.26 63.1639 248.235 62.9453 249.41C62.4807 251.852 61.752 255.231 60.7226 258.92L60.6133 259.303L60.9777 259.13L61.4149 258.92C64.4524 257.464 67.7082 256.517 71.0526 256.115C72.3279 255.951 73.3755 255.896 74.0951 255.869C74.4697 255.874 74.8441 255.853 75.2156 255.805C75.119 255.789 75.0206 255.789 74.9241 255.805C74.7328 255.805 74.4595 255.805 74.0951 255.805C73.0702 255.785 72.045 255.828 71.0253 255.933C67.6449 256.269 64.3493 257.194 61.2874 258.665L60.8501 258.875L61.1052 259.084C61.9848 255.939 62.6963 252.749 63.2368 249.529C63.4372 248.299 63.5738 247.297 63.6558 246.605C63.7047 246.224 63.7229 245.84 63.7105 245.457Z" fill="#263238"/>
<path d="M12.8164 312.556C12.8164 312.611 13.864 312.502 15.5492 312.438C17.7379 312.351 19.93 312.424 22.108 312.657L23.611 312.839H23.7841V312.675C24.1667 310.498 24.4946 308.576 24.695 307.209C24.8448 306.476 24.9392 305.734 24.9774 304.987C24.7635 305.708 24.6051 306.445 24.5037 307.191C24.2304 308.557 23.857 310.47 23.4561 312.657L23.6565 312.511C23.1646 312.438 22.6545 312.374 22.1353 312.32C19.9417 312.084 17.7312 312.047 15.531 312.21C14.6838 312.274 14.0006 312.356 13.536 312.429C13.2914 312.438 13.0492 312.481 12.8164 312.556Z" fill="#263238"/>
<path d="M9.4082 305.797C9.4082 305.852 10.4193 305.615 12.0499 305.415C14.1664 305.156 16.3052 305.135 18.4265 305.351C18.8182 305.351 19.2008 305.442 19.556 305.488H19.7473V305.305C19.9751 303.065 20.1572 301.079 20.2757 299.649C20.3671 298.887 20.4067 298.12 20.3941 297.353C20.2154 298.102 20.0936 298.863 20.0297 299.63C19.8566 301.042 19.6289 303.028 19.383 305.269L19.5925 305.105L18.4447 304.959C16.2904 304.738 14.1165 304.796 11.977 305.132C11.1572 305.269 10.5104 305.415 10.055 305.533C9.82863 305.592 9.61115 305.681 9.4082 305.797Z" fill="#263238"/>
<path d="M6.9668 241.722C7.08199 241.794 7.20403 241.855 7.33117 241.904L8.37875 242.378L12.2776 244.036L25.1855 249.383L25.8869 249.665L26.0509 249.738L26.1238 249.574L31.5894 237.258L33.2018 233.533C33.3657 233.114 33.5024 232.786 33.6208 232.512C33.6756 232.396 33.7153 232.274 33.7392 232.148C33.663 232.253 33.5988 232.366 33.5479 232.485L33.0742 233.469L31.3617 237.113C29.9315 240.283 27.973 244.591 25.805 249.392L26.0418 249.292L25.3404 249.009L12.396 243.762L8.45162 242.205L7.37672 241.804C7.24389 241.76 7.10625 241.733 6.9668 241.722Z" fill="#263238"/>
<path d="M3.81445 226.118C3.90992 226.21 4.01711 226.29 4.13328 226.354L5.04422 226.965L8.56954 229.151L20.3024 236.311L20.4937 236.429L20.5666 236.22L20.7852 235.655L25.7043 222.383L27.1526 218.347C27.3075 217.892 27.435 217.527 27.5261 217.236C27.5826 217.112 27.6194 216.98 27.6354 216.844C27.5657 216.963 27.5078 217.088 27.4624 217.218L27.016 218.293C26.6334 219.286 26.1051 220.643 25.4583 222.292C24.1557 225.717 22.3884 230.381 20.439 235.528C20.3662 235.719 20.2933 235.91 20.2295 236.092L20.4937 236.001L8.65153 228.941C7.17581 228.031 5.96426 227.366 5.07155 226.846L4.09684 226.291C4.00951 226.223 3.91478 226.164 3.81445 226.118Z" fill="#263238"/>
<path d="M4.84473 217.846C5.08699 218.024 5.34638 218.176 5.61902 218.302C6.12915 218.584 6.85789 218.994 7.75061 219.55C10.1089 221.008 12.2993 222.722 14.282 224.66L14.7284 225.097L14.5826 224.487C14.4278 223.84 14.282 223.157 14.1636 222.465C13.6713 219.26 13.8449 215.989 14.6737 212.854C14.9229 211.908 15.2271 210.978 15.5847 210.067C15.7384 209.737 15.8663 209.396 15.9673 209.047C15.766 209.353 15.5923 209.676 15.448 210.012C15.0364 210.913 14.6893 211.841 14.4096 212.791C13.4958 215.949 13.2843 219.27 13.7901 222.519C13.8994 223.23 14.0543 223.922 14.2183 224.578L14.5189 224.405C12.509 222.454 10.27 220.753 7.85082 219.34C6.93988 218.812 6.19291 218.429 5.66457 218.192C5.40312 218.051 5.12855 217.935 4.84473 217.846Z" fill="#263238"/>
<path d="M45.9727 298.646C45.9966 298.955 46.0515 299.26 46.1366 299.557C46.2642 300.15 46.4372 301.015 46.6376 302.09C47.1569 304.909 47.4796 307.761 47.6032 310.625V310.835H47.7672L48.5779 310.88C52.1488 311.099 55.3826 311.272 57.6873 311.381L60.4656 311.491C60.8049 311.524 61.1466 311.524 61.4859 311.491C61.1542 311.412 60.8155 311.366 60.4748 311.354L57.742 311.135C55.4008 310.953 52.167 310.744 48.6326 310.525L47.8219 310.48L47.9949 310.653C47.8719 307.77 47.5094 304.903 46.9109 302.081C46.6832 301.015 46.4646 300.15 46.2915 299.567C46.2115 299.251 46.1049 298.944 45.9727 298.646Z" fill="#263238"/>
<path d="M53.0527 288.498C53.0421 288.803 53.0604 289.108 53.1074 289.409C53.1894 290.074 53.2896 290.94 53.3989 291.969C53.663 294.137 54.0547 297.152 54.5102 300.523V300.669H54.656L55.822 300.75C59.4657 300.996 62.7815 301.37 65.1682 301.661L67.9921 302.035C68.3342 302.103 68.6818 302.139 69.0305 302.144C68.7008 302.024 68.3586 301.942 68.0103 301.898C67.3544 301.762 66.3979 301.589 65.2046 301.406C62.8271 301.024 59.5113 300.605 55.8402 300.359L54.6833 300.286L54.8473 300.441C54.3827 297.061 53.9363 294.064 53.6266 291.896C53.4626 290.876 53.3351 290.02 53.2258 289.355C53.1927 289.065 53.1348 288.778 53.0527 288.498Z" fill="#263238"/>
<path d="M61.3874 284.126C61.3327 284.126 61.5513 285.119 61.8064 286.722C62.1518 288.831 62.3466 290.962 62.3894 293.099V293.299H62.5898L63.191 293.217C65.449 292.946 67.7214 292.812 69.9957 292.817H72.0726C72.3237 292.848 72.5776 292.848 72.8287 292.817C72.5846 292.751 72.3342 292.711 72.0817 292.698C71.5898 292.643 70.8793 292.589 70.0048 292.561C67.7142 292.476 65.4205 292.573 63.1455 292.853L62.5351 292.935L62.7447 293.108C62.6944 290.967 62.4628 288.834 62.0523 286.732C61.8884 285.93 61.7335 285.292 61.606 284.855C61.5701 284.602 61.4964 284.357 61.3874 284.126Z" fill="#263238"/>
<path d="M13.9082 294.274C14.3688 295.521 14.9074 296.738 15.5206 297.918C16.0183 299.168 16.5964 300.385 17.2513 301.561C16.9342 300.259 16.4633 298.999 15.8485 297.808C15.3405 296.559 14.6894 295.373 13.9082 294.274Z" fill="#263238"/>
<path d="M9.38086 299.075C10.7581 299.277 12.1234 299.554 13.471 299.904C14.7775 300.378 16.0576 300.923 17.306 301.534C16.2246 300.599 14.9441 299.923 13.5621 299.557C12.2222 299.085 10.7932 298.92 9.38086 299.075Z" fill="#263238"/>
<path d="M554.369 378.025H436.667C429.723 377.893 423.104 375.06 418.215 370.128C413.325 365.196 410.55 358.553 410.478 351.608L411.744 55.1623C411.758 51.7793 412.439 48.4322 413.746 45.3122C415.054 42.1922 416.964 39.3603 419.366 36.9783C421.769 34.5963 424.617 32.7108 427.748 31.4294C430.879 30.1481 434.231 29.496 437.614 29.5104L555.863 30.0569C562.691 30.0883 569.228 32.8303 574.035 37.68C578.842 42.5297 581.526 49.0901 581.497 55.9184L580.267 352.373C580.251 355.758 579.569 359.107 578.259 362.228C576.949 365.35 575.037 368.182 572.632 370.564C570.227 372.947 567.376 374.832 564.243 376.112C561.109 377.392 557.754 378.042 554.369 378.025Z" fill="#263238"/>
<path d="M555.388 40.1045H532.323C531.571 40.1198 530.829 40.2834 530.141 40.5858C529.452 40.8882 528.829 41.3234 528.309 41.8666C527.789 42.4098 527.381 43.0503 527.108 43.7515C526.835 44.4526 526.704 45.2006 526.721 45.9527V50.1339C526.738 50.8859 526.606 51.6339 526.334 52.3351C526.061 53.0362 525.653 53.6767 525.133 54.2199C524.612 54.7631 523.99 55.1984 523.301 55.5008C522.612 55.8031 521.871 55.9667 521.119 55.9821H476.164C474.644 55.9439 473.201 55.3051 472.151 54.2057C471.101 53.1062 470.53 51.6356 470.562 50.1157V45.9071C470.596 44.3889 470.026 42.9192 468.977 41.821C467.928 40.7227 466.487 40.0856 464.968 40.0498H456.852H436.666C431.852 40.0498 427.236 41.9613 423.831 45.3641C420.427 48.7668 418.513 53.3822 418.511 58.1957L418.456 349.294C418.455 351.677 418.923 354.037 419.834 356.239C420.745 358.441 422.08 360.442 423.764 362.128C425.449 363.814 427.448 365.152 429.649 366.065C431.85 366.978 434.21 367.448 436.593 367.449L555.315 367.513C557.698 367.514 560.058 367.046 562.26 366.135C564.462 365.225 566.463 363.889 568.149 362.205C569.835 360.521 571.172 358.521 572.085 356.32C572.998 354.119 573.469 351.759 573.47 349.376L573.525 58.2776C573.527 55.8935 573.06 53.5322 572.15 51.3287C571.24 49.1251 569.904 47.1223 568.22 45.4348C566.536 43.7473 564.536 42.408 562.334 41.4934C560.132 40.5788 557.772 40.1069 555.388 40.1045Z" fill="#E0E0E0"/>
<path d="M146.37 360.043L159.451 278.578L130.083 276.784L124.927 360.025L146.37 360.043Z" fill="#263238"/>
<path d="M118.66 192.276L83.1787 196.84L83.5066 205.576L86.7587 360.972L109.268 361.291L120.126 228.951L118.66 192.276Z" fill="#263238"/>
<path d="M136.649 188.715L159.45 278.579L131.229 283.734L118.968 241.139L108.747 193.752L136.649 188.715Z" fill="#263238"/>
<path d="M110.142 198.307V198.726C110.142 199.017 110.142 199.427 110.142 199.965C110.096 201.058 110.033 202.697 109.951 204.711C109.759 208.828 109.459 214.795 109.04 222.155C108.211 236.885 106.781 257.226 105.296 279.69C104.567 290.922 103.92 301.625 103.41 311.372C103.273 313.804 103.201 316.182 103.018 318.486C102.836 320.791 102.654 323.041 102.472 325.191C102.135 329.518 101.807 333.544 101.515 337.224C100.941 344.576 100.495 350.533 100.222 354.651C100.085 356.709 99.985 358.294 99.9394 359.387C99.9394 359.934 99.9394 360.344 99.9394 360.626C99.9282 360.729 99.9282 360.833 99.9394 360.936C99.9394 361.018 99.9941 360.936 99.985 360.936H99.9303C99.9006 360.835 99.8853 360.731 99.8848 360.626C99.8848 360.344 99.8848 359.934 99.8848 359.387C99.8848 358.303 99.9759 356.7 100.094 354.641C100.322 350.524 100.723 344.567 101.26 337.206C101.543 333.562 101.843 329.491 102.171 325.173C102.341 323.005 102.517 320.77 102.7 318.468C102.873 316.164 102.936 313.786 103.073 311.354C103.556 301.607 104.193 290.903 104.895 279.662C106.38 257.199 107.846 236.848 108.757 222.146C109.195 214.785 109.55 208.837 109.796 204.701L110.069 199.955C110.105 199.427 110.133 199.017 110.151 198.726C110.14 198.586 110.137 198.446 110.142 198.307Z" fill="#455A64"/>
<path d="M122.558 203.107C122.676 203.107 121.647 215.496 120.29 230.745C118.932 245.994 117.694 258.356 117.557 258.347C117.42 258.337 118.468 245.958 119.825 230.709C121.182 215.46 122.43 203.098 122.558 203.107Z" fill="#455A64"/>
<path d="M133.989 295.003C133.871 295.003 130.409 283.006 126.265 268.13C122.12 253.254 118.85 241.175 118.977 241.139C119.105 241.103 122.548 253.136 126.693 268.012C130.838 282.887 134.108 294.975 133.989 295.003Z" fill="#455A64"/>
<path d="M99.7661 197.715C99.8749 197.976 99.9425 198.253 99.9665 198.535C100.081 199.302 100.081 200.081 99.9665 200.848C99.7961 201.992 99.4097 203.092 98.8278 204.091C98.1315 205.337 97.1336 206.387 95.9255 207.146C94.7174 207.906 93.338 208.349 91.9138 208.436C90.7613 208.52 89.6032 208.39 88.4978 208.054C87.7579 207.826 87.0552 207.491 86.4117 207.061C86.1637 206.921 85.9418 206.739 85.7559 206.523C86.6527 207.033 87.6027 207.442 88.5889 207.744C89.7743 208.095 91.021 208.19 92.2458 208.022C93.4707 207.853 94.6457 207.426 95.6928 206.769C96.7398 206.111 97.6348 205.238 98.3183 204.208C99.0018 203.178 99.458 202.014 99.6567 200.794C99.7993 199.774 99.836 198.742 99.7661 197.715Z" fill="#455A64"/>
<path d="M138.882 200.201C138.35 200.291 137.805 200.257 137.288 200.101C136.021 199.806 134.839 199.22 133.837 198.39C132.835 197.56 132.039 196.509 131.513 195.319C131.26 194.841 131.126 194.31 131.121 193.77C131.371 194.229 131.596 194.7 131.795 195.182C132.97 197.396 134.975 199.054 137.37 199.792C138.281 200.074 138.882 200.129 138.882 200.201Z" fill="#455A64"/>
<path d="M139.638 360.982C139.638 360.982 139.638 360.845 139.683 360.572C139.729 360.298 139.802 359.879 139.884 359.36C140.075 358.285 140.339 356.728 140.686 354.723C141.405 350.688 142.444 344.867 143.719 337.698C146.324 323.305 149.922 303.456 153.894 281.53C153.894 281.338 153.967 281.147 153.994 280.974V281.056C150.648 262.454 146.272 244.052 140.886 225.935C138.818 218.985 137.024 213.41 135.748 209.538C135.111 207.626 134.61 206.141 134.273 205.111L133.908 203.982C133.865 203.853 133.829 203.722 133.799 203.59L133.954 203.973L134.373 205.111C134.728 206.113 135.284 207.589 135.93 209.511C137.251 213.337 139.1 218.903 141.205 225.844C146.687 243.949 151.112 262.356 154.459 280.974V281.056C154.459 281.229 154.386 281.42 154.35 281.612C150.305 303.547 146.661 323.369 144.029 337.753C142.699 344.913 141.615 350.725 140.859 354.76C140.476 356.746 140.184 358.303 139.948 359.378C139.85 359.889 139.768 360.289 139.702 360.581C139.674 360.845 139.638 360.982 139.638 360.982Z" fill="#455A64"/>
<path d="M126.948 61.73C126.616 57.6881 124.775 53.9193 121.791 51.1731C118.807 48.4269 114.898 46.9046 110.843 46.9091H110.005C101.014 47.4647 96.459 55.4445 97.2516 64.4628L99.1281 111.831L119.743 111.713L119.451 92.4741C119.451 92.4741 128.096 91.0895 128.178 82.4538C128.233 78.1906 127.604 69.5458 126.948 61.73Z" fill="#B78876"/>
<path d="M119.542 92.4286C115.524 92.4461 111.587 91.3043 108.201 89.1401C108.201 89.1401 110.888 95.38 119.515 94.6058L119.542 92.4286Z" fill="#995037"/>
<path d="M125.154 68.3526C125.162 68.6757 125.041 68.9888 124.82 69.224C124.598 69.4593 124.293 69.5978 123.97 69.6097C123.813 69.6234 123.654 69.6052 123.504 69.5563C123.354 69.5074 123.215 69.4287 123.096 69.3249C122.977 69.2212 122.88 69.0946 122.811 68.9525C122.742 68.8105 122.703 68.6561 122.695 68.4984C122.687 68.1753 122.807 67.8622 123.029 67.627C123.251 67.3917 123.556 67.2532 123.879 67.2413C124.036 67.2301 124.193 67.2501 124.342 67.3C124.491 67.3498 124.629 67.4287 124.747 67.5319C124.866 67.6352 124.963 67.7609 125.033 67.9017C125.102 68.0425 125.144 68.1958 125.154 68.3526Z" fill="#263238"/>
<path d="M125.108 65.9842C124.953 66.1481 124.015 65.4558 122.685 65.4649C121.355 65.474 120.389 66.1481 120.243 65.9842C120.098 65.8202 120.325 65.6198 120.753 65.3101C121.321 64.9027 122.004 64.6859 122.703 64.6906C123.396 64.6866 124.072 64.9036 124.634 65.3101C125.044 65.6198 125.181 65.9113 125.108 65.9842Z" fill="#263238"/>
<path d="M112.1 68.6167C112.102 68.94 111.979 69.2518 111.757 69.4862C111.534 69.7207 111.229 69.8597 110.906 69.8738C110.749 69.885 110.591 69.8647 110.441 69.8143C110.291 69.7638 110.153 69.6842 110.035 69.5799C109.916 69.4757 109.819 69.349 109.75 69.2071C109.681 69.0652 109.64 68.911 109.631 68.7534C109.628 68.4325 109.75 68.1231 109.971 67.8903C110.192 67.6575 110.495 67.5195 110.815 67.5054C110.973 67.4917 111.132 67.5099 111.282 67.5587C111.433 67.6075 111.572 67.686 111.692 67.7897C111.812 67.8933 111.91 68.0199 111.98 68.1619C112.05 68.304 112.09 68.4586 112.1 68.6167Z" fill="#263238"/>
<path d="M112.046 66.7039C111.891 66.8587 110.953 66.1664 109.623 66.1755C108.293 66.1846 107.327 66.8587 107.182 66.6948C107.036 66.5308 107.264 66.3304 107.692 66.0207C108.262 65.6173 108.943 65.4008 109.641 65.4012C110.334 65.4016 111.009 65.6181 111.572 66.0207C111.973 66.3668 112.11 66.7039 112.046 66.7039Z" fill="#263238"/>
<path d="M116.9 76.1593C117.602 75.9412 118.326 75.8067 119.059 75.7585C119.396 75.7585 119.724 75.6583 119.779 75.4215C119.807 75.0691 119.728 74.7164 119.551 74.4103C119.223 73.5905 118.886 72.7251 118.531 71.8233C117.128 68.134 116.108 65.1006 116.263 65.0459C116.417 64.9913 117.665 67.9336 119.077 71.6229L120.043 74.2281C120.258 74.6397 120.322 75.1133 120.225 75.5672C120.173 75.6853 120.097 75.791 120.001 75.8774C119.905 75.9638 119.792 76.0288 119.67 76.0682C119.482 76.1186 119.29 76.1461 119.096 76.1502C118.367 76.2418 117.63 76.2448 116.9 76.1593Z" fill="#263238"/>
<path d="M113.003 77.0976C113.212 77.0976 113.221 78.5278 114.46 79.5571C115.699 80.5865 117.193 80.4134 117.248 80.6138C117.302 80.8142 116.902 80.8962 116.255 80.9235C115.41 80.9308 114.589 80.6442 113.932 80.1128C113.301 79.6008 112.895 78.8617 112.802 78.0541C112.739 77.4437 112.903 77.0885 113.003 77.0976Z" fill="#263238"/>
<path d="M112.046 63.7888C111.846 64.1168 110.589 63.6613 109.022 63.5065C107.455 63.3516 106.134 63.5065 106.007 63.133C105.952 62.9599 106.234 62.6775 106.808 62.4407C107.562 62.1621 108.37 62.0654 109.168 62.1583C109.967 62.2385 110.736 62.5104 111.409 62.9508C111.919 63.2969 112.137 63.634 112.046 63.7888Z" fill="#263238"/>
<path d="M124.124 61.9669C123.924 62.3404 122.767 62.3495 121.464 62.7048C120.162 63.0601 119.123 63.6157 118.786 63.3516C118.631 63.2331 118.722 62.887 119.123 62.4406C119.693 61.9093 120.389 61.533 121.145 61.3475C121.892 61.1506 122.676 61.1506 123.423 61.3475C123.969 61.5388 124.206 61.7939 124.124 61.9669Z" fill="#263238"/>
<path d="M93.0253 76.059C93.3312 76.513 93.7475 76.8816 94.2352 77.1302C94.7228 77.3789 95.2658 77.4992 95.8128 77.4801L96.9697 94.0955H95.5395C95.3182 94.0955 95.0991 94.1391 94.8946 94.2238C94.6902 94.3085 94.5044 94.4326 94.3479 94.5891C94.1914 94.7456 94.0673 94.9314 93.9826 95.1359C93.8979 95.3403 93.8543 95.5595 93.8543 95.7808C93.8543 96.0021 93.8979 96.2212 93.9826 96.4257C94.0673 96.6301 94.1914 96.8159 94.3479 96.9724C94.5044 97.1289 94.6902 97.253 94.8946 97.3377C95.0991 97.4224 95.3182 97.466 95.5395 97.466L121.529 97.3202C121.975 97.3202 122.404 97.1427 122.72 96.8267C123.036 96.5106 123.214 96.082 123.214 95.635C123.214 95.1881 123.036 94.7594 122.72 94.4434C122.404 94.1273 121.975 93.9498 121.529 93.9498H120.618V92.2008C120.618 92.2008 130.638 90.807 130.738 82.1258C130.784 77.9355 130.064 69.2907 129.317 61.4749C128.506 53.0761 120.527 45.4151 110.798 45.4515H109.823C99.4019 46.0163 93.9818 55.2259 94.9019 64.2442L95.1934 68.3252C94.7544 68.364 94.3286 68.4953 93.944 68.7104C93.5593 68.9255 93.2245 69.2195 92.9616 69.5731C92.4767 70.3559 92.2181 71.2577 92.2146 72.1784C92.0518 73.5259 92.3367 74.8895 93.0253 76.059ZM107.983 72.725C107.193 72.7298 106.411 72.579 105.679 72.2813C104.948 71.9835 104.283 71.5447 103.721 70.9898C102.587 69.8691 101.944 68.3438 101.934 66.7492C101.925 65.1547 102.549 63.6216 103.669 62.4873C104.79 61.353 106.316 60.7103 107.91 60.7006L121.784 60.6186C125.109 60.6186 127.313 63.0599 127.331 66.3849C127.349 69.7098 125.172 72.6339 121.866 72.6521L107.983 72.725Z" fill="#263238"/>
<path d="M95.2578 94.0318C95.2578 93.8952 101.224 93.7586 108.585 93.7221C115.945 93.6857 121.912 93.7221 121.912 93.877C121.912 94.0318 115.954 94.1503 108.585 94.1958C101.215 94.2414 95.2578 94.1867 95.2578 94.0318Z" fill="#455A64"/>
<path d="M119.826 97.2111C119.698 97.1565 119.944 96.4733 119.971 95.6079C119.999 94.7425 119.807 94.0502 119.971 93.9955C120.135 93.9409 120.518 94.6423 120.481 95.6261C120.445 96.6099 119.926 97.284 119.826 97.2111Z" fill="#455A64"/>
<path d="M115.69 97.5208C115.562 97.5208 115.453 96.7465 115.453 95.7991C115.453 94.8517 115.562 94.0865 115.69 94.0865C115.817 94.0865 115.927 94.8517 115.927 95.7991C115.927 96.7465 115.79 97.5299 115.69 97.5208Z" fill="#455A64"/>
<path d="M110.689 97.3386C110.561 97.3386 110.47 96.6098 110.479 95.7171C110.488 94.8244 110.616 94.1047 110.752 94.1139C110.889 94.123 110.971 94.8335 110.962 95.7262C110.953 96.6189 110.825 97.3386 110.689 97.3386Z" fill="#455A64"/>
<path d="M105.168 97.0196C105.041 97.0196 104.932 96.3911 104.932 95.6168C104.932 94.8425 105.041 94.2049 105.178 94.214C105.314 94.2231 105.414 94.8425 105.405 95.6168C105.396 96.3911 105.305 97.0105 105.168 97.0196Z" fill="#455A64"/>
<path d="M99.9945 97.3934C99.8669 97.3934 99.6119 96.7101 99.6028 95.7901C99.5937 94.8701 99.8578 94.1504 99.9763 94.1778C100.095 94.2051 100.076 94.9156 100.076 95.781C100.076 96.6464 100.122 97.366 99.9945 97.3934Z" fill="#455A64"/>
<path d="M96.6323 97.4024C96.5321 97.4661 96.0675 96.8103 96.022 95.8538C95.9765 94.8973 96.3955 94.1959 96.5048 94.2505C96.6141 94.3052 96.4592 94.9884 96.5048 95.8356C96.5503 96.6827 96.7599 97.3386 96.6323 97.4024Z" fill="#455A64"/>
<path d="M122.822 91.6544C123.498 91.4037 124.153 91.099 124.78 90.7435C125.501 90.2935 126.162 89.7549 126.748 89.1403C127.533 88.3503 128.087 87.3614 128.351 86.2799C128.607 84.9366 128.753 83.5749 128.789 82.208C128.898 80.7414 128.953 79.1564 128.925 77.4985C128.849 73.8904 128.569 70.2895 128.087 66.713C127.686 63.1311 126.765 59.6267 125.354 56.3101C124.19 53.6148 122.452 51.2057 120.262 49.2504C118.783 47.9364 117.067 46.9162 115.207 46.2443C113.877 45.7797 113.102 45.6795 113.111 45.6339C113.301 45.6279 113.491 45.6462 113.676 45.6886C114.214 45.7729 114.744 45.9008 115.261 46.0712C117.18 46.6858 118.955 47.6803 120.481 48.9953C122.747 50.9556 124.548 53.395 125.755 56.137C127.183 59.4893 128.104 63.0352 128.488 66.6583C128.969 70.2527 129.237 73.8725 129.29 77.4985C129.29 79.1655 129.235 80.7596 129.107 82.2445C129.054 83.6289 128.884 85.0064 128.597 86.3619C128.306 87.4928 127.707 88.5208 126.867 89.3315C126.256 89.9462 125.563 90.4735 124.808 90.8984C124.33 91.1671 123.827 91.3868 123.305 91.5542C123.147 91.6028 122.986 91.6363 122.822 91.6544Z" fill="#455A64"/>
<path d="M120.39 60.5185C120.317 60.5185 120.19 59.6076 119.834 58.0772C119.371 56.1305 118.706 54.2376 117.849 52.4294C116.979 50.6287 115.925 48.9224 114.706 47.3373C113.795 46.1258 113.103 45.4243 113.157 45.3788C113.847 45.8698 114.461 46.459 114.979 47.1278C116.301 48.6769 117.416 50.3917 118.295 52.229C119.175 54.0659 119.809 56.0108 120.181 58.0135C120.369 58.8343 120.44 59.6778 120.39 60.5185Z" fill="#455A64"/>
<path d="M110.169 60.7006C109.944 59.9952 109.816 59.263 109.786 58.5234C109.617 56.7523 109.583 54.9707 109.686 53.1945C109.794 51.4198 110.041 49.6563 110.424 47.9201C110.542 47.1916 110.753 46.4814 111.052 45.8068C111.014 46.5397 110.914 47.2681 110.752 47.9839C110.533 49.3139 110.287 51.1722 110.159 53.2218C110.032 55.2714 110.068 57.1479 110.159 58.4961C110.22 59.2296 110.223 59.9666 110.169 60.7006Z" fill="#455A64"/>
<path d="M100.268 93.7221C100.2 93.5529 100.157 93.375 100.14 93.1938C100.067 92.8476 99.9762 92.3375 99.8669 91.6725C99.6574 90.3425 99.375 88.4114 99.1382 86.0247C98.5026 79.7812 98.3716 73.4966 98.7465 67.2321C98.9174 63.7622 99.5767 60.3336 100.705 57.0478C101.649 54.3614 103.137 51.899 105.077 49.815C106.368 48.4059 107.914 47.2531 109.632 46.4172C110.115 46.1824 110.618 45.9903 111.135 45.8433C111.303 45.7715 111.482 45.7254 111.664 45.7067C111.664 45.7067 110.962 45.9617 109.778 46.6176C108.107 47.4969 106.607 48.6694 105.351 50.0792C103.481 52.159 102.05 54.5941 101.142 57.2391C100.055 60.4924 99.4175 63.879 99.2475 67.305C98.8802 73.5427 98.9624 79.7988 99.4934 86.0247C99.6938 88.4205 99.9216 90.3516 100.076 91.6816C100.149 92.3102 100.213 92.8203 100.259 93.2211C100.274 93.3876 100.277 93.5551 100.268 93.7221Z" fill="#455A64"/>
<path d="M107.491 93.5125C107.363 93.5125 107.199 88.9032 107.118 83.2099C107.036 77.5165 107.118 72.8981 107.218 72.8981C107.318 72.8981 107.518 77.5074 107.591 83.2008C107.664 88.8941 107.637 93.5125 107.491 93.5125Z" fill="#455A64"/>
<path d="M114.851 94.1412C114.845 93.1239 114.909 92.1073 115.042 91.0987C115.197 89.2313 115.388 86.6442 115.498 83.8112C115.607 80.9782 115.625 78.3456 115.616 76.4782C115.561 75.4642 115.577 74.4476 115.662 73.4357C115.851 74.4359 115.948 75.4512 115.953 76.4691C116.044 78.3456 116.09 80.9509 115.953 83.8295C115.817 86.708 115.598 89.2951 115.352 91.1169C115.274 92.1378 115.106 93.1498 114.851 94.1412Z" fill="#455A64"/>
<path d="M120.29 92.4103C120.993 91.7278 121.529 90.8924 121.857 89.969C122.513 88.2747 122.34 85.6967 122.403 82.8911C122.467 80.0854 122.504 77.5256 122.576 75.6856C122.564 74.6886 122.635 73.6923 122.786 72.7068C122.907 73.6948 122.95 74.6908 122.914 75.6856C122.914 77.5074 122.914 80.0763 122.914 82.8911C122.914 84.303 122.914 85.6239 122.832 86.8627C122.805 87.9645 122.596 89.0543 122.212 90.0875C121.942 90.7735 121.529 91.3944 121.001 91.9093C120.811 92.1353 120.566 92.308 120.29 92.4103Z" fill="#455A64"/>
<path d="M155.533 142.594L139.637 142.011C139.637 142.011 139.637 112.615 133.734 109.7L114.777 119.374L126.273 152.815C128.897 160.457 135 163.208 142.47 160.102L154.613 156.112L155.533 142.594Z" fill="#455A64"/>
<path d="M97.8715 97.7576V101.483L83.0323 107.76L86.1751 169.703C86.1751 169.703 78.8876 182.046 79.0698 191.101C79.0698 193.242 83.1781 196.886 83.1781 196.886C83.1781 196.886 102.791 198.288 117.566 196.795C131.822 195.355 136.978 190.208 136.978 190.208L139.638 184.624L137.224 177.337L137.024 117.662C137.038 116.182 136.755 114.714 136.19 113.346C135.625 111.978 134.79 110.738 133.735 109.7C132.724 108.7 131.467 107.984 130.091 107.623L120.071 103.114V98.2222L97.8715 97.7576Z" fill="#455A64"/>
<path d="M80.7915 172.117C83.1144 172.427 127.869 171.908 137.607 172.309L138.882 157.524L95.1115 150.51C95.1752 150.3 93.4626 150.51 93.6357 150.346L83.4059 107.65C83.1873 107.732 80.327 108.689 79.0608 110.456C76.3826 112.451 75.7267 115.084 74.6518 119.565L71.9646 160.594C71.6488 163.285 72.3939 165.994 74.0418 168.145C75.6897 170.297 78.1108 171.721 80.7915 172.117ZM72.0648 159.738C72.0648 159.638 72.0648 159.565 72.0648 159.537C72.0648 159.51 72.0739 159.619 72.0648 159.738Z" fill="#455A64"/>
<g opacity="0.3">
<path d="M127.658 182.01C116.627 183.832 105.131 183.258 94.1269 181.336C93.1249 181.163 91.8313 181.099 91.3941 182.001C91.2719 182.314 91.2492 182.656 91.3291 182.983C91.409 183.309 91.5875 183.602 91.8405 183.823C92.3707 184.251 92.9951 184.548 93.6623 184.688C98.4447 186 103.482 185.909 108.438 185.69C117.626 185.316 126.703 183.54 135.356 180.425L127.658 182.01Z" fill="#1A1C1C"/>
</g>
<path d="M92.9158 126.68C92.9158 126.68 92.9158 126.826 92.9158 127.108C92.9158 127.39 92.9158 127.828 92.9158 128.365C92.8703 129.495 92.7974 131.098 92.7063 133.202C92.5059 137.429 92.2053 143.514 91.8409 151.047L91.6952 150.865L138.973 157.287H139.2V157.515C139.027 159.547 138.836 161.715 138.645 163.892C138.399 166.77 138.153 169.612 137.925 172.3V172.482H137.734C128.591 173.611 119.38 174.101 110.169 173.948C101.743 173.848 94.2185 173.365 87.9421 172.91C85.1131 172.75 82.2998 172.382 79.5251 171.808C77.42 171.314 75.5255 170.166 74.1141 168.528C73.2017 167.527 72.5728 166.301 72.2922 164.976C72.2213 164.634 72.1847 164.286 72.1829 163.937C72.1708 163.819 72.1708 163.7 72.1829 163.582C72.2285 163.582 72.1829 164.065 72.3742 164.948C72.6734 166.243 73.3008 167.438 74.1961 168.419C75.604 169.998 77.4705 171.097 79.5342 171.562C82.2986 172.11 85.0998 172.454 87.9148 172.591C94.1911 173.01 101.706 173.457 110.123 173.502C119.317 173.625 128.509 173.12 137.634 171.99L137.424 172.199C137.661 169.521 137.898 166.679 138.153 163.801C138.335 161.605 138.526 159.446 138.699 157.424L138.9 157.67L91.6405 151.12H91.4857V150.965C91.9138 143.432 92.2599 137.356 92.4968 133.129C92.6243 131.043 92.7245 129.422 92.7974 128.292C92.7974 127.755 92.8703 127.381 92.8885 127.035C92.9067 126.689 92.9158 126.68 92.9158 126.68Z" fill="#263238"/>
<path d="M134.618 121.67C134.745 121.67 135.11 129.64 135.419 139.478C135.729 149.317 135.884 157.296 135.756 157.296C135.629 157.296 135.264 149.335 134.946 139.488C134.627 129.64 134.481 121.67 134.618 121.67Z" fill="#263238"/>
<path d="M95.5305 118.764C95.4485 118.764 95.1297 117.971 94.3645 116.787C92.3479 113.683 89.2012 111.487 85.5922 110.666C84.2167 110.365 83.324 110.347 83.3331 110.265C83.3422 110.183 83.5517 110.21 83.9525 110.201C84.5235 110.19 85.0941 110.236 85.656 110.338C87.5216 110.665 89.2933 111.396 90.8477 112.478C92.4021 113.56 93.7017 114.969 94.656 116.605C94.943 117.098 95.1839 117.616 95.3756 118.153C95.4634 118.346 95.5158 118.553 95.5305 118.764Z" fill="#263238"/>
<path d="M120.381 103.241C120.381 103.241 120.381 103.323 120.254 103.442C120.11 103.622 119.948 103.787 119.771 103.934C119.114 104.483 118.342 104.878 117.512 105.091C115.408 105.737 112.402 105.464 109.222 104.954C106.492 104.508 103.807 103.822 101.197 102.904C100.195 102.558 99.3752 102.221 98.856 101.993C98.5656 101.89 98.29 101.749 98.0361 101.574C98.0361 101.501 99.2841 101.975 101.297 102.595C103.919 103.413 106.595 104.049 109.304 104.498C112.465 104.999 115.399 105.309 117.421 104.781C118.516 104.51 119.531 103.982 120.381 103.241Z" fill="#263238"/>
<path d="M135.329 180.462C135.19 180.541 135.043 180.609 134.892 180.662L133.635 181.145C132.542 181.573 130.902 182.12 128.916 182.73C123.664 184.326 118.261 185.374 112.792 185.854C109.784 186.1 106.762 186.149 103.747 186C101.282 185.875 98.8273 185.602 96.3956 185.18C95.3572 185.035 94.428 184.798 93.6082 184.625C92.7883 184.452 92.096 184.278 91.5312 184.115L90.2286 183.741C90.0762 183.701 89.927 183.649 89.7822 183.586C89.9422 183.587 90.1015 183.608 90.2559 183.65L91.5768 183.932C92.1416 184.069 92.843 184.233 93.6628 184.37C94.4827 184.506 95.4118 184.725 96.4503 184.852C98.8651 185.221 101.298 185.461 103.738 185.572C106.736 185.685 109.738 185.624 112.729 185.39C118.175 184.891 123.564 183.887 128.825 182.393C130.838 181.819 132.469 181.327 133.571 180.954L134.864 180.553C135.013 180.498 135.17 180.467 135.329 180.462Z" fill="#263238"/>
<path d="M154.595 155.629L161.618 156.112L165.052 148.633L161.327 141.009L157.3 139.989L155.378 142.831L154.595 155.629Z" fill="#B78876"/>
<path d="M167.822 137.383C167.394 138.75 156.7 181.218 153.621 193.451C153.4 194.324 152.847 195.076 152.079 195.546C151.311 196.016 150.39 196.167 149.512 195.966C149.061 195.863 148.635 195.671 148.26 195.401C147.884 195.131 147.567 194.789 147.326 194.393C147.086 193.998 146.927 193.559 146.86 193.101C146.793 192.644 146.818 192.177 146.934 191.73L161.509 135.78L167.822 137.383Z" fill="#263238"/>
<path d="M171.174 153.908L169.435 160.721C175.811 162.124 179.555 163.372 179.555 163.372L181.259 156.458C181.587 155.129 181.375 153.723 180.67 152.549C179.965 151.374 178.824 150.527 177.496 150.191C176.165 149.847 174.752 150.046 173.567 150.742C172.382 151.439 171.522 152.577 171.174 153.908Z" fill="#455A64"/>
<path d="M172.113 173.42C172.716 173.538 173.342 173.413 173.854 173.072C174.366 172.731 174.722 172.201 174.846 171.598L176.722 161.578C176.837 160.968 176.704 160.337 176.354 159.825C176.004 159.312 175.465 158.96 174.855 158.845C174.245 158.73 173.614 158.863 173.102 159.213C172.589 159.563 172.237 160.103 172.122 160.712L170.245 170.687C170.131 171.297 170.263 171.928 170.613 172.44C170.963 172.953 171.503 173.305 172.113 173.42Z" fill="#455A64"/>
<path d="M165.563 136.946L163.805 136.491C168.58 119.535 174.939 103.066 182.798 87.3001C194.922 62.8506 215.938 29.9112 247.21 12.0295L261.621 4.55981L262.459 6.18128L248.084 13.5963C189.001 47.4285 165.791 136.053 165.563 136.946Z" fill="#455A64"/>
<path d="M257.304 8.79578C257.287 8.88799 257.256 8.9771 257.213 9.05995L256.912 9.82514C256.621 10.4901 256.265 11.5104 255.646 12.7675C253.928 16.3915 251.817 19.8159 249.351 22.9791C245.596 27.8363 241.036 32.0142 235.869 35.3313C229.307 39.5772 221.871 42.2892 214.116 43.2656L214.308 43.0196C214.808 47.3709 214.524 51.7767 213.47 56.0278C212.318 60.5338 210.542 64.8569 208.195 68.872C205.152 74.3276 201.266 79.2681 196.681 83.5107C192.444 87.4011 187.407 90.3175 181.924 92.0553L182.07 91.8003C182.864 95.217 183.189 98.726 183.035 102.23C182.965 103.86 182.804 105.484 182.552 107.095C182.234 108.653 181.969 110.174 181.523 111.65C181.077 113.125 180.612 114.446 180.166 115.776C179.911 116.423 179.619 117.051 179.355 117.671C179.111 118.294 178.832 118.902 178.517 119.493C177.965 120.616 177.357 121.71 176.695 122.772C176.385 123.282 176.094 123.783 175.784 124.266L174.873 125.632C172.936 128.383 170.71 130.918 168.232 133.193C167.385 133.986 166.657 134.523 166.201 134.915L165.664 135.343L165.481 135.48C165.481 135.48 165.481 135.416 165.645 135.316L166.156 134.86C166.602 134.45 167.303 133.895 168.141 133.093C170.569 130.787 172.755 128.238 174.664 125.487L175.575 124.111C175.875 123.637 176.167 123.127 176.486 122.626C177.114 121.615 177.67 120.504 178.253 119.356C178.553 118.782 178.818 118.181 179.073 117.534C179.328 116.887 179.61 116.286 179.865 115.639C180.311 114.328 180.84 112.989 181.186 111.54C181.532 110.092 181.878 108.607 182.188 107.068C182.428 105.474 182.583 103.868 182.653 102.258C182.786 98.7921 182.455 95.3241 181.669 91.946L181.614 91.7547L181.815 91.6909C187.231 89.9557 192.205 87.0617 196.39 83.2101C200.935 78.9803 204.787 74.0619 207.804 68.6352C210.131 64.6482 211.891 60.3557 213.032 55.8821C214.08 51.6858 214.367 47.3355 213.879 43.0379V42.8101H214.098C221.792 41.8568 229.174 39.1857 235.696 34.9943C240.831 31.7158 245.374 27.5917 249.133 22.7969C251.607 19.6656 253.744 16.2825 255.509 12.7037C256.147 11.4557 256.52 10.4537 256.839 9.7978L257.176 9.04173L257.304 8.79578Z" fill="#263238"/>
<path d="M161.145 156.677L183.181 161.969C183.34 162.008 183.489 162.077 183.621 162.174C183.753 162.27 183.864 162.392 183.949 162.531C184.034 162.671 184.09 162.826 184.114 162.988C184.139 163.149 184.131 163.314 184.092 163.472C184.055 163.629 183.988 163.778 183.894 163.909C183.8 164.04 183.681 164.151 183.544 164.235C183.407 164.32 183.254 164.377 183.095 164.402C182.936 164.428 182.773 164.421 182.616 164.383L160.845 159.182L161.145 156.677Z" fill="#263238"/>
<path d="M138.881 158.298C139.191 158.362 145.713 159.455 145.713 159.455L151.625 156.905C153.117 156.697 154.619 156.566 156.125 156.513L155.56 159.164C155.56 159.164 157.382 161.432 158.785 161.031C159.802 160.758 160.833 160.542 161.873 160.384C162.325 160.689 162.701 161.094 162.97 161.568C163.238 162.042 163.393 162.573 163.422 163.117C163.422 163.117 163.786 163.773 161.919 165.121C161.919 165.121 163.495 166.642 160.816 168.619C160.816 168.619 162.256 170.815 160.042 171.926C160.026 172.523 159.879 173.109 159.613 173.644C159.348 174.179 158.969 174.649 158.503 175.023C156.881 176.362 150.304 176.326 148.482 176.235C146.661 176.143 143.29 173.356 141.951 173.001C140.776 172.7 137.824 172.636 137.624 172.336L138.881 158.298Z" fill="#B78876"/>
<path d="M162.466 164.675C161.79 165.281 160.967 165.699 160.079 165.887C159.236 166.225 158.316 166.329 157.419 166.187C158.237 165.863 159.081 165.61 159.942 165.431C160.758 165.102 161.603 164.849 162.466 164.675Z" fill="#AA6550"/>
<path d="M162.284 166.834C162.284 166.834 162.229 167.208 161.856 167.672C161.359 168.245 160.735 168.695 160.034 168.984C159.076 169.462 157.999 169.649 156.937 169.521C156.937 169.376 158.312 169.202 159.842 168.547C160.507 168.284 161.123 167.911 161.664 167.444C162.01 167.08 162.22 166.789 162.284 166.834Z" fill="#AA6550"/>
<path d="M161.282 170.678C161.337 170.678 161.237 171.052 160.863 171.516C160.367 172.09 159.743 172.54 159.041 172.828C158.086 173.305 157.013 173.492 155.953 173.365C155.953 173.22 157.32 173.047 158.859 172.391C159.51 172.127 160.11 171.754 160.635 171.288C161.018 170.924 161.237 170.633 161.282 170.678Z" fill="#AA6550"/>
<path d="M166.948 140.717C168.077 141.198 169.157 141.787 170.173 142.476C170.173 142.476 172.131 144.735 170.956 146.119C170.956 146.119 173.306 147.586 170.856 149.936C170.856 149.936 171.94 151.758 169.581 153.179C169.581 153.179 171.248 154.746 167.331 155.821C163.414 156.896 159.779 155.721 158.995 155.138C158.212 154.555 158.995 152.587 158.995 152.587C158.995 152.587 156.627 150.528 158.64 149.353C158.534 149.056 158.51 148.736 158.572 148.427C158.634 148.118 158.78 147.832 158.992 147.6C159.205 147.367 159.478 147.197 159.78 147.108C160.082 147.019 160.403 147.014 160.708 147.094C160.593 146.913 160.524 146.708 160.505 146.494C160.487 146.281 160.52 146.067 160.602 145.869C160.685 145.671 160.813 145.496 160.978 145.359C161.142 145.222 161.337 145.127 161.546 145.081C162.713 144.612 163.835 144.039 164.898 143.368L166.456 142.667L166.948 140.717Z" fill="#B78876"/>
<path d="M170.855 149.927C170.35 150.307 169.774 150.583 169.161 150.738C167.709 151.204 166.184 151.405 164.661 151.33C163.136 151.28 161.634 150.943 160.234 150.337C159.639 150.12 159.096 149.782 158.64 149.344C158.64 149.28 159.296 149.645 160.361 150.027C161.752 150.525 163.212 150.804 164.688 150.856C166.162 150.92 167.638 150.773 169.07 150.419C170.172 150.136 170.828 149.863 170.855 149.927Z" fill="#AA6550"/>
<path d="M169.908 152.897C169.477 153.303 168.965 153.613 168.405 153.808C167.068 154.371 165.614 154.599 164.169 154.473C162.734 154.36 161.335 153.967 160.052 153.316C159.5 153.085 158.998 152.747 158.576 152.323C158.649 152.168 160.935 153.762 164.206 153.999C165.584 154.114 166.971 153.941 168.278 153.489C168.809 153.259 169.353 153.062 169.908 152.897Z" fill="#AA6550"/>
<path d="M170.955 146.11C170.6 146.526 170.141 146.84 169.625 147.021C168.428 147.554 167.144 147.863 165.835 147.932C164.526 148.036 163.208 147.903 161.946 147.54C161.415 147.424 160.917 147.191 160.488 146.857C161.01 146.94 161.524 147.062 162.028 147.221C163.268 147.477 164.537 147.557 165.799 147.458C167.061 147.379 168.306 147.124 169.497 146.702C170.408 146.392 170.909 146.046 170.955 146.11Z" fill="#AA6550"/>
<path d="M155.835 142.184L157.994 138.95H162.703L164.525 144.243C164.201 144.633 163.756 144.903 163.261 145.01C162.766 145.117 162.249 145.056 161.792 144.835C160.125 144.052 159.142 141.191 159.142 141.191L155.835 142.184Z" fill="#B78876"/>
<path d="M164.479 144.006C164.479 144.006 164.643 144.224 164.479 144.625C164.302 144.856 164.074 145.043 163.814 145.172C163.553 145.302 163.267 145.37 162.976 145.372C162.187 145.348 161.437 145.022 160.881 144.461C160.239 143.793 159.748 142.995 159.442 142.12L159.223 141.51L159.678 141.391C159.958 142.97 159.633 144.596 158.767 145.946C158.102 146.985 157.292 147.185 157.301 147.121C157.789 146.764 158.196 146.308 158.494 145.782C159.202 144.474 159.44 142.963 159.168 141.501L159.624 141.373L159.842 141.965C160.127 142.768 160.57 143.505 161.145 144.133C161.623 144.646 162.27 144.97 162.967 145.044C163.216 145.054 163.464 145.014 163.697 144.926C163.93 144.839 164.143 144.705 164.324 144.534C164.488 144.252 164.424 144.006 164.479 144.006Z" fill="#AA6550"/>
<path d="M332.146 102.804C332.228 98.8962 329.587 96.5915 325.77 96.7737L325.478 98.2768L318.4 94.9974C318.4 94.9974 324.777 94.6786 326.225 94.7514C327.674 94.8243 333.194 95.8719 333.768 100.745" fill="#6F0000"/>
<path d="M573.655 332.633H573.463C573.564 320.472 573.819 281.703 573.463 216.034C573.072 135.225 475.756 68.5258 475.756 68.5258C459.596 58.1047 456.199 56.3739 446.606 59.2342L425.017 65.9205C424.302 66.151 423.638 66.5203 423.066 67.0072C422.493 67.4942 422.022 68.0893 421.679 68.7585C421.336 69.4277 421.129 70.1579 421.069 70.9073C421.009 71.6567 421.097 72.4107 421.328 73.126L422.521 77.1432C422.983 78.5892 422.853 80.1593 422.16 81.5097C421.467 82.8601 420.267 83.881 418.823 84.3487L380.627 95.3802C377.658 96.2911 372.046 96.2365 371.126 93.1393L368.193 88.7212C367.79 87.2577 366.824 86.0134 365.506 85.2605C364.188 84.5076 362.626 84.3075 361.161 84.704L353.727 86.7445L338.241 91.3629C337.904 91.4631 337.567 91.5816 337.23 91.7C325.971 95.7719 322.737 110.247 330.726 119.174C342.131 131.927 371.919 165.431 393.262 191.138C419.369 222.583 418.413 259.522 418.413 259.522C418.413 259.522 418.623 315.645 418.668 332.615C418.668 334.574 418.668 336.013 418.668 336.787C418.67 336.854 418.686 336.919 418.714 336.979L418.859 350.77C418.858 353.153 419.326 355.512 420.237 357.714C421.148 359.915 422.484 361.916 424.168 363.601C425.853 365.286 427.852 366.623 430.053 367.535C432.254 368.447 434.614 368.916 436.996 368.916L555.718 368.989C560.524 368.999 565.137 367.101 568.544 363.712C571.951 360.324 573.875 355.721 573.892 350.916L573.655 332.633Z" fill="white"/>
<path d="M573.654 332.634C573.654 333.043 573.727 337.826 573.882 347.436C573.882 349.85 574.119 352.601 573.317 355.498C572.427 358.935 570.547 362.036 567.91 364.414C565.274 366.793 561.998 368.346 558.487 368.88C556.419 369.116 554.336 369.195 552.256 369.117H436.987C436.072 369.1 435.159 369.026 434.254 368.898C433.348 368.764 432.453 368.567 431.576 368.306C430.713 368.032 429.87 367.7 429.052 367.313C425.66 365.671 422.853 363.029 421.009 359.743C420.093 358.069 419.427 356.271 419.032 354.405C418.736 352.507 418.608 350.587 418.649 348.666C418.613 344.834 418.57 340.956 418.522 337.033V337.097C418.498 337.001 418.483 336.904 418.476 336.806V333.435C418.476 332.233 418.476 331.021 418.476 329.791C418.476 327.377 418.476 324.936 418.476 322.504C418.476 317.591 418.458 312.623 418.422 307.601C418.385 297.544 418.346 287.26 418.303 276.748C418.303 271.495 418.282 266.184 418.239 260.815C418.263 255.412 417.815 250.017 416.9 244.692C416.033 239.253 414.766 233.885 413.111 228.632L412.501 226.637L411.799 224.669C411.316 223.358 410.888 222.037 410.369 220.734L408.729 216.854C408.456 216.207 408.201 215.551 407.9 214.913L406.989 213.018C406.37 211.752 405.741 210.477 405.113 209.211C404.484 207.945 403.71 206.742 402.999 205.512C401.669 202.989 399.966 200.684 398.445 198.28C397.698 197.059 396.75 195.966 395.885 194.818C395.02 193.67 394.127 192.532 393.243 191.384L387.659 184.707C380.032 175.767 372.286 166.798 364.421 157.798C356.557 148.798 348.553 139.688 340.409 130.469L334.315 123.565L331.236 120.121C330.717 119.556 330.225 118.946 329.742 118.299C329.246 117.693 328.81 117.04 328.439 116.35C326.841 113.617 326.028 110.497 326.089 107.332C326.149 104.156 327.051 101.053 328.704 98.3407C329.697 96.6881 330.981 95.2284 332.493 94.032C333.253 93.4362 334.06 92.903 334.907 92.4379C335.335 92.2101 335.818 92.0462 336.228 91.8458C336.661 91.6347 337.108 91.4551 337.567 91.3083L348.434 88.0563L353.809 86.4621L359.156 84.9591C360.067 84.7222 360.905 84.4216 361.889 84.2577C362.839 84.1202 363.808 84.23 364.704 84.5765C365.587 84.9199 366.38 85.4615 367.021 86.1596C367.662 86.8576 368.135 87.6935 368.402 88.6028V88.5391L371.326 92.9571C371.474 93.3633 371.704 93.7346 372.002 94.048C372.3 94.3614 372.659 94.6102 373.057 94.779C373.885 95.1563 374.773 95.3815 375.681 95.444C377.524 95.6124 379.382 95.4111 381.146 94.8519L391.822 91.7638L412.929 85.6696L418.148 84.1666C419.004 83.9949 419.806 83.6208 420.488 83.0757C421.169 82.5305 421.71 81.8301 422.065 81.033C422.418 80.2403 422.58 79.3762 422.539 78.5097C422.465 77.6352 422.275 76.7745 421.974 75.9499L421.209 73.372C420.913 72.4933 420.801 71.563 420.881 70.6392C420.964 69.7091 421.266 68.8118 421.761 68.0204C422.257 67.2289 422.932 66.5656 423.732 66.0845C424.131 65.8525 424.556 65.669 424.999 65.5379L426.265 65.1462L428.806 64.3537L438.89 61.2292L443.9 59.6806C445.568 59.1705 447.216 58.6239 448.929 58.2322C450.624 57.7945 452.371 57.5952 454.121 57.6401C455.869 57.7286 457.592 58.085 459.232 58.6968C462.411 59.9768 465.461 61.5569 468.341 63.4155C471.238 65.2373 474.098 66.9863 476.886 68.8811C482.351 72.8072 487.571 76.9246 492.608 81.1332C497.646 85.3417 502.501 89.6413 507.183 94.0138C525.839 111.531 541.607 130.269 553.204 149.745C558.852 159.092 563.525 168.994 567.15 179.296C570.465 188.829 572.547 198.748 573.345 208.81C573.445 211.206 573.536 213.574 573.636 215.915V222.829C573.636 227.384 573.636 231.814 573.636 236.12C573.636 244.728 573.636 252.845 573.636 260.424C573.636 275.591 573.636 288.663 573.636 299.293C573.636 309.924 573.636 318.223 573.636 323.889C573.636 326.712 573.636 328.862 573.636 330.338C573.636 328.871 573.636 326.694 573.636 323.889C573.636 318.25 573.636 309.969 573.636 299.293C573.636 288.617 573.636 275.609 573.636 260.424C573.636 252.845 573.636 244.728 573.636 236.12C573.636 231.814 573.636 227.384 573.636 222.829V215.915C573.533 213.583 573.433 211.224 573.335 208.837C572.515 198.839 570.427 188.986 567.123 179.514C563.497 169.236 558.823 159.358 553.176 150.036C541.589 130.606 525.848 111.905 507.192 94.4237C502.516 90.0634 497.658 85.7759 492.617 81.5613C487.58 77.371 482.369 73.2536 476.913 69.3365C474.18 67.4509 471.274 65.6928 468.396 63.8709C465.538 62.0225 462.509 60.4545 459.35 59.1887C457.758 58.5934 456.083 58.2492 454.385 58.1685C452.673 58.1235 450.962 58.3166 449.302 58.7424C447.626 59.1249 445.968 59.6533 444.301 60.1907L439.3 61.7393L428.916 64.8821L426.383 65.6746C425.537 65.8842 424.718 66.1898 423.942 66.5855C423.207 67.0278 422.587 67.6367 422.131 68.3631C421.675 69.0894 421.397 69.9128 421.318 70.7667C421.244 71.6292 421.349 72.4978 421.628 73.3173L422.393 75.8953C422.705 76.7589 422.904 77.659 422.985 78.5734C423.027 79.5114 422.852 80.4463 422.475 81.3062C422.094 82.1682 421.514 82.9271 420.781 83.5198C420.036 84.0866 419.179 84.4873 418.267 84.6949L413.038 86.198L391.932 92.3012L381.255 95.3802C379.447 95.9546 377.543 96.1651 375.653 95.9996C374.693 95.9229 373.754 95.6826 372.875 95.2891C372.414 95.0885 372 94.7948 371.658 94.4264C371.316 94.058 371.054 93.6229 370.889 93.1484V93.2122L368.02 88.8215C367.77 87.9832 367.332 87.2128 366.741 86.5688C366.149 85.9248 365.418 85.4241 364.604 85.1048C363.78 84.7903 362.89 84.69 362.016 84.8133C361.169 84.9591 360.267 85.2688 359.384 85.5057L354.028 87.0087L348.653 88.6028L337.804 91.8458C337.358 91.9912 336.922 92.1677 336.501 92.3741C336.073 92.5654 335.636 92.7294 335.217 92.948C334.398 93.4034 333.615 93.9211 332.876 94.4966C331.383 95.6528 330.111 97.0693 329.123 98.6778C327.516 101.32 326.64 104.341 326.581 107.432C326.526 110.51 327.317 113.545 328.867 116.204C329.229 116.874 329.653 117.509 330.134 118.099C330.598 118.7 331.045 119.301 331.609 119.866L334.688 123.319L340.819 130.205C348.957 139.369 356.961 148.479 364.831 157.533C372.702 166.588 380.399 175.567 387.923 184.47L393.517 191.156C394.409 192.304 395.293 193.452 396.167 194.599C397.078 195.756 397.989 196.849 398.745 198.079C400.303 200.502 402.007 202.816 403.355 205.367L405.468 209.074L407.354 212.9L408.265 214.813C408.574 215.442 408.82 216.107 409.103 216.753L410.742 220.652C411.243 221.964 411.699 223.294 412.173 224.606L412.883 226.582L413.493 228.577C415.147 233.853 416.416 239.242 417.292 244.701C418.207 250.054 418.655 255.476 418.631 260.906C418.631 266.275 418.649 271.583 418.686 276.83C418.759 297.827 418.832 317.94 418.904 337.042V337.106C418.947 341.035 418.989 344.916 419.032 348.748C418.978 350.644 419.1 352.541 419.396 354.414C419.782 356.242 420.433 358.003 421.327 359.643C423.129 362.866 425.88 365.456 429.207 367.058C430.018 367.452 430.855 367.79 431.712 368.069C432.572 368.322 433.449 368.514 434.336 368.643C436.109 368.86 437.897 368.936 439.683 368.871H480.138L545.661 368.953H552.275C554.345 369.033 556.418 368.96 558.478 368.734C561.956 368.203 565.202 366.664 567.814 364.306C570.426 361.948 572.288 358.877 573.171 355.471C573.973 352.601 573.764 349.859 573.764 347.464C573.691 337.835 573.654 333.043 573.654 332.634Z" fill="#263238"/>
<path d="M464.853 223.546L437.504 226.435L438.034 231.453L465.383 228.564L464.853 223.546Z" fill="#263238"/>
<path d="M547.892 245.53C548.103 245.481 548.31 245.417 548.511 245.338C548.798 245.21 549.054 245.023 549.262 244.789C549.471 244.555 549.628 244.28 549.723 243.981C549.834 243.532 549.834 243.063 549.723 242.615C549.668 242.105 549.604 241.54 549.532 240.929C549.395 239.709 549.24 238.297 549.058 236.721C548.876 235.145 548.684 233.369 548.475 231.438C548.42 230.958 548.366 230.466 548.311 229.962C548.304 229.469 548.142 228.99 547.846 228.595C547.535 228.195 547.088 227.923 546.589 227.83C546.05 227.791 545.509 227.819 544.977 227.912L529.673 229.57L441.057 239.017C440.581 239.068 440.14 239.292 439.818 239.646C439.496 240 439.314 240.46 439.308 240.939C439.39 241.95 439.527 243.07 439.627 244.127C439.858 246.258 440.083 248.384 440.301 250.503C440.42 251.551 440.529 252.599 440.638 253.646C440.66 254.145 440.737 254.64 440.866 255.122C441.044 255.554 441.366 255.911 441.777 256.133C442.199 256.345 442.679 256.412 443.143 256.324L444.692 256.16L447.762 255.842L471.291 253.364L511.145 249.219L538.017 246.486L545.305 245.767L547.209 245.593C547.637 245.593 547.855 245.593 547.855 245.593L547.218 245.685L545.314 245.912L538.026 246.741L511.181 249.665L471.337 253.929L447.807 256.434L444.737 256.762L443.189 256.926C442.617 257.02 442.03 256.931 441.513 256.67C440.991 256.391 440.584 255.936 440.365 255.386C440.207 254.859 440.119 254.314 440.101 253.765C439.982 252.717 439.873 251.669 439.764 250.613C439.536 248.508 439.317 246.386 439.09 244.236C438.98 243.152 438.844 242.132 438.762 240.993C438.769 240.377 439.002 239.784 439.417 239.328C439.831 238.871 440.399 238.582 441.012 238.515L529.646 229.233L544.95 227.657C545.515 227.564 546.09 227.539 546.662 227.584C547.23 227.706 547.735 228.03 548.083 228.495C548.41 228.932 548.589 229.462 548.593 230.007C548.648 230.508 548.703 231 548.748 231.483C548.939 233.414 549.122 235.181 549.286 236.767C549.45 238.352 549.586 239.763 549.705 240.984C549.765 241.591 549.82 242.156 549.869 242.678C549.959 243.148 549.937 243.631 549.805 244.09C549.698 244.399 549.526 244.681 549.301 244.918C549.077 245.155 548.804 245.342 548.502 245.466C548.304 245.52 548.097 245.542 547.892 245.53Z" fill="#263238"/>
<path d="M496.99 239.636L446.967 244.92L447.462 249.613L497.486 244.329L496.99 239.636Z" fill="#E0E0E0"/>
<path d="M327.301 112.715C333.368 112.223 335.499 106.403 335.135 103.151C335.119 102.448 334.963 101.755 334.675 101.114C334.387 100.472 333.973 99.8948 333.459 99.4157C333.389 99.3465 333.304 99.2941 333.211 99.2625C333.118 99.2309 333.019 99.221 332.921 99.2335C333.395 101.201 334.798 104.699 330.899 107.933L326.436 108.899C326.655 110.185 326.944 111.46 327.301 112.715Z" fill="#E0E0E0"/>
<path d="M333.202 99.2152C333.658 99.452 334.314 102.194 333.658 104.171C332.1 108.826 329.103 109.563 327.473 109.636C326.134 109.597 324.813 109.329 323.565 108.844L311.058 103.979L311.905 102.249L324.658 107.459C324.658 107.459 329.213 109.491 331.335 105.328C331.801 104.529 332.061 103.627 332.091 102.703C332.122 101.779 331.921 100.862 331.508 100.035C331.508 100.035 332.629 98.9146 333.202 99.2152Z" fill="#6F0000"/>
<path d="M333.704 99.2699C333.704 99.3245 333.485 99.2699 333.248 99.2699C332.923 99.337 332.613 99.467 332.337 99.6525C331.609 100.053 331.426 100.727 331.335 100.727C331.244 100.727 331.199 100.518 331.335 100.199C331.471 99.7927 331.754 99.4517 332.128 99.2426C332.482 99.0072 332.906 98.8981 333.33 98.9328C333.613 99.033 333.74 99.2243 333.704 99.2699Z" fill="#263238"/>
<path d="M491.059 151.175C488.627 135.807 471.447 125.751 452.681 128.711C433.916 131.672 420.68 146.547 423.112 161.924C423.744 165.912 425.38 169.674 427.867 172.855L477.559 178.43C487.843 172.053 492.817 162.006 491.059 151.175Z" fill="#6F0000"/>
<path d="M458.711 155.903C459.887 155.347 460.86 154.439 461.495 153.304C462.131 152.169 462.396 150.864 462.254 149.572C461.735 146.201 458.201 143.951 454.347 144.543C450.494 145.135 447.779 148.351 448.299 151.721C448.552 153.009 449.205 154.184 450.165 155.079C451.125 155.974 452.343 156.543 453.646 156.704C443.125 159.729 445.12 169.211 445.12 169.211L470.507 165.294C470.507 165.294 469.56 155.538 458.711 155.903Z" fill="white"/>
<path d="M468.332 271.139L439.547 271.009L439.523 276.292L468.308 276.423L468.332 271.139Z" fill="#263238"/>
<path d="M552.2 303.547C552.424 303.523 552.647 303.484 552.865 303.429C553.179 303.329 553.467 303.163 553.712 302.943C553.957 302.724 554.153 302.454 554.286 302.154C554.463 301.702 554.528 301.215 554.478 300.732C554.478 300.195 554.478 299.603 554.478 298.956V294.52C554.478 292.853 554.478 290.995 554.478 288.963V287.405C554.531 286.892 554.42 286.375 554.159 285.93C553.869 285.495 553.438 285.173 552.938 285.019C552.379 284.923 551.81 284.892 551.244 284.928H535.129L441.804 284.545C441.299 284.544 440.812 284.73 440.435 285.066C440.059 285.402 439.82 285.865 439.764 286.367C439.764 287.433 439.764 288.608 439.764 289.719C439.764 291.966 439.764 294.201 439.764 296.424C439.764 297.535 439.764 298.637 439.764 299.74C439.726 300.26 439.75 300.783 439.836 301.297C439.963 301.763 440.25 302.17 440.647 302.445C441.058 302.719 441.549 302.847 442.041 302.809H446.905L471.683 302.946L513.586 303.201L541.825 303.42L549.513 303.511L551.517 303.556H549.513H541.825H513.586L471.683 303.429L446.914 303.329H442.05C441.445 303.362 440.846 303.202 440.337 302.873C439.828 302.518 439.457 301.996 439.29 301.397C439.184 300.83 439.154 300.251 439.199 299.676C439.199 298.583 439.199 297.471 439.199 296.369C439.199 294.146 439.199 291.912 439.199 289.665C439.199 288.526 439.199 287.442 439.199 286.249C439.281 285.616 439.59 285.035 440.07 284.614C440.55 284.193 441.166 283.961 441.804 283.962L535.102 284.472L551.207 284.591C551.818 284.553 552.43 284.596 553.029 284.718C553.607 284.9 554.099 285.285 554.414 285.802C554.699 286.295 554.824 286.866 554.769 287.433C554.769 287.961 554.769 288.48 554.769 288.991C554.769 291.022 554.769 292.88 554.724 294.547C554.678 296.214 554.724 297.699 554.724 298.983C554.724 299.627 554.724 300.219 554.724 300.76C554.765 301.263 554.687 301.768 554.496 302.236C554.351 302.545 554.14 302.818 553.879 303.039C553.618 303.259 553.313 303.42 552.984 303.511C552.728 303.58 552.461 303.592 552.2 303.547Z" fill="#263238"/>
<path d="M452.252 294.438C452.22 294.886 452.058 295.315 451.785 295.672C451.512 296.03 451.141 296.299 450.717 296.448C450.293 296.597 449.835 296.619 449.399 296.511C448.963 296.403 448.568 296.17 448.262 295.84C447.957 295.51 447.755 295.099 447.68 294.655C447.606 294.212 447.663 293.757 447.844 293.346C448.025 292.934 448.322 292.585 448.699 292.34C449.076 292.096 449.516 291.967 449.966 291.969C450.278 291.981 450.585 292.054 450.869 292.185C451.153 292.315 451.408 292.5 451.621 292.73C451.833 292.959 451.998 293.228 452.106 293.521C452.215 293.814 452.264 294.126 452.252 294.438Z" fill="#E0E0E0"/>
<path d="M459.386 294.438C459.354 294.886 459.191 295.315 458.919 295.672C458.646 296.03 458.275 296.299 457.851 296.448C457.427 296.597 456.969 296.619 456.533 296.511C456.096 296.403 455.701 296.17 455.396 295.84C455.091 295.51 454.888 295.099 454.814 294.655C454.74 294.212 454.796 293.757 454.977 293.346C455.158 292.934 455.456 292.585 455.833 292.34C456.21 292.096 456.65 291.967 457.099 291.969C457.412 291.981 457.718 292.054 458.002 292.185C458.286 292.315 458.542 292.5 458.754 292.73C458.967 292.959 459.132 293.228 459.24 293.521C459.348 293.814 459.398 294.126 459.386 294.438Z" fill="#E0E0E0"/>
<path d="M466.518 294.502C466.488 294.95 466.327 295.38 466.055 295.739C465.784 296.097 465.413 296.368 464.989 296.519C464.565 296.669 464.107 296.692 463.67 296.585C463.233 296.478 462.837 296.245 462.531 295.916C462.225 295.586 462.021 295.175 461.946 294.731C461.871 294.288 461.928 293.832 462.109 293.42C462.289 293.008 462.587 292.658 462.964 292.413C463.341 292.169 463.782 292.039 464.232 292.042C464.86 292.068 465.453 292.341 465.881 292.802C466.309 293.262 466.538 293.873 466.518 294.502Z" fill="#E0E0E0"/>
<path d="M473.687 294.538C473.655 294.986 473.493 295.415 473.22 295.772C472.948 296.13 472.577 296.399 472.153 296.548C471.729 296.697 471.271 296.719 470.834 296.611C470.398 296.503 470.003 296.27 469.698 295.94C469.392 295.61 469.19 295.199 469.116 294.755C469.041 294.312 469.098 293.857 469.279 293.446C469.46 293.034 469.757 292.685 470.134 292.441C470.511 292.196 470.952 292.067 471.401 292.069C471.714 292.08 472.021 292.152 472.306 292.282C472.59 292.412 472.846 292.598 473.059 292.827C473.271 293.057 473.436 293.326 473.544 293.62C473.652 293.913 473.701 294.225 473.687 294.538Z" fill="#E0E0E0"/>
<path d="M480.784 294.565C480.754 295.014 480.593 295.444 480.321 295.803C480.049 296.161 479.679 296.432 479.255 296.583C478.831 296.733 478.372 296.756 477.935 296.649C477.499 296.542 477.103 296.309 476.796 295.98C476.49 295.65 476.287 295.238 476.212 294.795C476.137 294.351 476.193 293.896 476.374 293.484C476.555 293.072 476.852 292.722 477.23 292.477C477.607 292.232 478.048 292.103 478.497 292.106C479.126 292.13 479.72 292.402 480.149 292.863C480.578 293.324 480.806 293.936 480.784 294.565Z" fill="#E0E0E0"/>
<path d="M487.924 294.602C487.894 295.052 487.732 295.484 487.46 295.844C487.187 296.204 486.815 296.476 486.389 296.627C485.964 296.778 485.503 296.802 485.065 296.694C484.626 296.587 484.229 296.353 483.921 296.023C483.614 295.692 483.41 295.278 483.334 294.833C483.259 294.388 483.315 293.93 483.497 293.517C483.678 293.103 483.977 292.752 484.356 292.506C484.735 292.26 485.177 292.131 485.629 292.133C485.942 292.144 486.25 292.216 486.535 292.346C486.82 292.476 487.076 292.661 487.289 292.89C487.503 293.12 487.669 293.389 487.778 293.683C487.886 293.977 487.936 294.289 487.924 294.602Z" fill="#E0E0E0"/>
<path d="M495.058 294.638C495.028 295.089 494.866 295.521 494.594 295.881C494.321 296.241 493.949 296.513 493.523 296.664C493.098 296.815 492.637 296.838 492.199 296.731C491.76 296.623 491.362 296.39 491.055 296.059C490.747 295.728 490.543 295.315 490.468 294.87C490.393 294.424 490.449 293.967 490.631 293.553C490.812 293.14 491.111 292.789 491.49 292.543C491.868 292.297 492.311 292.167 492.762 292.17C493.075 292.18 493.383 292.253 493.668 292.383C493.953 292.512 494.21 292.697 494.423 292.927C494.637 293.156 494.802 293.426 494.911 293.719C495.02 294.013 495.07 294.325 495.058 294.638Z" fill="#E0E0E0"/>
<path d="M502.19 294.666C502.16 295.114 501.999 295.544 501.728 295.902C501.457 296.26 501.087 296.531 500.663 296.682C500.24 296.833 499.782 296.856 499.345 296.75C498.908 296.644 498.512 296.412 498.206 296.083C497.899 295.755 497.695 295.344 497.619 294.901C497.543 294.458 497.598 294.002 497.778 293.59C497.957 293.178 498.253 292.828 498.629 292.582C499.005 292.336 499.445 292.205 499.895 292.206C500.524 292.232 501.117 292.505 501.547 292.965C501.976 293.425 502.207 294.036 502.19 294.666Z" fill="#E0E0E0"/>
<path d="M509.323 294.702C509.292 295.153 509.131 295.585 508.858 295.944C508.585 296.304 508.213 296.577 507.788 296.728C507.362 296.879 506.902 296.902 506.463 296.794C506.025 296.687 505.627 296.453 505.32 296.123C505.012 295.792 504.808 295.379 504.733 294.933C504.657 294.488 504.714 294.031 504.895 293.617C505.077 293.204 505.375 292.852 505.754 292.606C506.133 292.361 506.575 292.231 507.027 292.233C507.34 292.244 507.648 292.316 507.933 292.446C508.218 292.576 508.475 292.761 508.688 292.991C508.901 293.22 509.067 293.489 509.176 293.783C509.285 294.077 509.335 294.389 509.323 294.702Z" fill="#E0E0E0"/>
<path d="M447.589 175.287C453.127 181.844 460.934 186.073 469.451 187.13C477.868 188.141 486.632 185.189 493.455 180.179L447.589 175.287Z" fill="#6F0000"/>
<path d="M543.091 187.74C542.972 187.728 542.853 187.709 542.736 187.685L541.688 187.503L537.671 186.747C535.922 186.401 533.791 186 531.295 185.59C528.799 185.18 525.984 184.679 522.841 184.205C519.698 183.732 516.264 183.203 512.566 182.721C508.867 182.238 504.905 181.728 500.724 181.208C492.389 180.225 483.206 179.241 473.569 178.221C463.931 177.2 454.749 176.18 446.414 175.133C442.251 174.577 438.297 174.076 434.571 173.511C430.846 172.946 427.439 172.418 424.314 171.881C421.19 171.343 418.357 170.815 415.879 170.35L412.427 169.685L409.539 169.048L405.54 168.137L404.511 167.891C404.389 167.87 404.27 167.837 404.155 167.79C404.278 167.796 404.4 167.815 404.52 167.845L405.558 168.036L409.575 168.838L412.463 169.43L415.925 170.059C418.411 170.505 421.226 171.052 424.369 171.525C427.512 171.999 430.928 172.591 434.635 173.092C438.343 173.593 442.278 174.131 446.477 174.668C454.812 175.688 463.995 176.699 473.632 177.72C483.27 178.74 492.443 179.742 500.787 180.753C504.95 181.281 508.913 181.764 512.63 182.302C516.346 182.839 519.771 183.34 522.905 183.85C526.039 184.36 528.872 184.861 531.358 185.308C533.845 185.754 535.977 186.164 537.735 186.537L541.734 187.385L542.772 187.612C542.884 187.641 542.991 187.683 543.091 187.74Z" fill="#263238"/>
<path d="M311.431 102.585C311.332 102.571 311.234 102.547 311.139 102.513L310.301 102.23C309.564 101.975 308.48 101.611 307.095 101.101C303.225 99.5273 299.521 97.5744 296.036 95.2707C290.905 91.7803 286.287 87.5888 282.317 82.8182C277.458 76.9823 273.356 70.5547 270.111 63.6885C268.371 60.0448 266.877 56.401 265.556 52.8392C264.235 49.2775 263.17 45.7522 262.25 42.3999C260.63 36.4295 259.388 30.3627 258.533 24.2359C257.947 20.1047 257.588 15.9446 257.458 11.7743C257.458 10.2985 257.458 9.15076 257.458 8.37646C257.458 8.01209 257.458 7.72059 257.504 7.46553C257.492 7.36568 257.492 7.26476 257.504 7.16492C257.512 7.26496 257.512 7.36549 257.504 7.46553C257.504 7.69326 257.504 7.98476 257.504 8.37646C257.504 9.15076 257.504 10.2985 257.586 11.7743C257.787 15.9279 258.197 20.0688 258.815 24.1812C259.704 30.2884 260.976 36.3338 262.623 42.2815C263.534 45.6429 264.664 49.1226 265.939 52.6935C267.214 56.2644 268.745 59.8717 270.494 63.4972C273.723 70.3232 277.793 76.719 282.609 82.5358C286.535 87.295 291.103 91.4859 296.182 94.9883C299.629 97.3099 303.289 99.2986 307.113 100.928L310.283 102.139L311.112 102.467L311.431 102.585Z" fill="#263238"/>
<path d="M310.702 104.371C311.698 104.371 312.506 103.563 312.506 102.567C312.506 101.571 311.698 100.764 310.702 100.764C309.706 100.764 308.898 101.571 308.898 102.567C308.898 103.563 309.706 104.371 310.702 104.371Z" fill="#263238"/>
<path d="M310.702 104.389C310.342 104.389 309.99 104.282 309.69 104.082C309.391 103.882 309.157 103.598 309.019 103.265C308.881 102.932 308.845 102.565 308.916 102.212C308.986 101.859 309.159 101.534 309.414 101.279C309.669 101.024 309.994 100.851 310.347 100.781C310.7 100.71 311.067 100.746 311.4 100.884C311.732 101.022 312.017 101.256 312.217 101.555C312.417 101.855 312.524 102.207 312.524 102.567C312.524 103.051 312.332 103.514 311.991 103.856C311.649 104.197 311.186 104.389 310.702 104.389ZM310.702 100.746C310.34 100.737 309.984 100.836 309.678 101.03C309.373 101.225 309.132 101.506 308.987 101.838C308.842 102.17 308.8 102.538 308.865 102.894C308.93 103.25 309.099 103.579 309.352 103.839C309.605 104.098 309.93 104.276 310.284 104.35C310.639 104.424 311.008 104.391 311.343 104.255C311.679 104.118 311.966 103.885 312.168 103.584C312.37 103.284 312.479 102.93 312.479 102.567C312.479 102.334 312.433 102.103 312.343 101.888C312.254 101.672 312.123 101.476 311.958 101.311C311.793 101.146 311.598 101.016 311.382 100.926C311.167 100.837 310.936 100.791 310.702 100.791V100.746Z" fill="#263238"/>
</svg>
