<svg width="1408" height="806" viewBox="0 0 1408 806" fill="none" xmlns="http://www.w3.org/2000/svg">
<path d="M2400.39 -15.3945C2217.19 -15.3945 2032.65 -18.5563 1849.59 -14.1958C1666.52 -9.83528 1486.07 10.2301 1303.56 16.7101C1137.65 22.5994 974.077 21.0185 809.046 8.19754C661.139 -3.30315 517.466 -11.6073 368.35 -10.3565C237.65 -9.24463 115.196 3.29846 -13.8819 14.9902C-161.596 28.3845 -313.68 22.1304 -460.02 5.07043C-621.093 -13.7268 -773.012 -31.7074 -937.493 -33.7574C-1144.96 -36.3633 -1350.1 -10.895 -1557.71 -15.3945" stroke="#F9F9F9" stroke-miterlimit="10"/>
<path d="M2400.39 8.89209C2221.15 8.89209 2039.19 4.6358 1860.25 11.4459C1669.05 18.7076 1481.1 45.0098 1290.31 54.8775C1126.5 63.4593 961.601 57.5771 800.36 37.4006C656.412 19.6458 517.246 3.78455 370.109 4.5142C233.857 5.19174 110.578 26.9944 -21.688 44.6276C-171.821 64.6409 -320.387 57.049 -468.239 32.7795C-626.7 6.72051 -772.985 -21.3537 -938.593 -22.1007C-1146.42 -23.0562 -1349.52 11.8107 -1557.71 8.8747" stroke="#F9F9F9" stroke-miterlimit="10"/>
<path d="M2400.39 32.7971C2225.39 32.9013 2046.09 27.5853 1871.69 36.8796C1671.47 47.4596 1475.88 80.1028 1276.4 93.7403C1109.01 105.171 954.313 94.5394 792.856 65.8225C654.625 41.2228 520.737 16.5884 375.744 16.5363C232.372 16.5363 104.834 49.2837 -31.226 73.1885C-186.224 100.411 -329.156 92.4895 -480.608 59.6031C-634.754 26.1434 -776.283 -13.362 -942.799 -12.4934C-1150.32 -11.312 -1349.6 33.5963 -1557.71 32.7971" stroke="#F9F9F9" stroke-miterlimit="10"/>
<path d="M2400.39 56.3195C2229.81 56.4759 2053.21 50.5692 1883.64 62.0004C1674.25 76.107 1471.34 115.056 1262.69 132.638C1092.96 146.935 945.628 131.647 786.782 93.3927C655.725 61.8267 527.004 27.62 384.375 26.5429C233.637 25.3963 97.7423 70.374 -41.6708 100.655C-202.661 135.626 -340.122 128.19 -495.698 85.575C-643.852 44.9926 -782 -7.10793 -949.23 -4.18933C-1156.01 -0.575819 -1350.04 54.6518 -1557.65 56.3195" stroke="#F9F9F9" stroke-miterlimit="10"/>
<path d="M2400.39 79.4599C2234.18 79.6684 2060.33 73.3795 1895.35 86.7043C1677 104.338 1466.75 149.402 1249.41 170.909C1076.25 188.056 937.272 168.425 781.779 120.095C658.803 81.8747 535.277 37.7308 394.627 35.4029C236.523 32.8144 89.7161 91.2386 -52.913 127.148C-127.622 145.858 -206.372 163.387 -287.815 159.357C-367.527 155.396 -443.006 134.184 -512.712 110.713C-653.225 63.5118 -790.109 -1.46185 -957.311 3.50673C-1163.19 9.63927 -1350.73 75.1515 -1557.73 79.4078" stroke="#F9F9F9" stroke-miterlimit="10"/>
<path d="M2400.26 102.201C2238.09 102.461 2067.06 96.0161 1906.6 110.887C1679.91 131.838 1463.1 182.723 1237.71 207.948C1060.58 227.788 929.633 204.178 778.346 145.893C663.643 101.697 545.285 47.6854 405.9 44.0198C240.979 39.694 81.5552 111.86 -63.795 152.703C-139.933 174.106 -223.906 196.673 -308.95 191.705C-388.662 187.049 -463.343 161.615 -529.998 135.244C-662.897 82.6392 -798.38 4.54918 -965.994 11.5156C-1170.99 20.0629 -1351.3 95.5296 -1557.76 102.201" stroke="#F9F9F9" stroke-miterlimit="10"/>
<path d="M2400.23 124.542C2241.93 124.855 2073.44 118.409 1917.07 134.375C1682.99 158.297 1460.35 214.55 1227.97 243.145C1139.49 254.02 1055.63 260.309 968.965 241.234C898.351 225.685 836.231 198.393 776.31 170.805C669.111 121.484 555.948 58.2306 416.892 53.2794C245.924 47.1816 73.6921 132.429 -74.022 177.442C-151.48 201.051 -240.62 228.396 -328.907 222.61C-408.976 217.399 -482.668 188.091 -546.465 159.148C-672.3 102.097 -806.161 11.7935 -974.682 20.532C-1178.94 31.1466 -1351.77 115.96 -1557.87 124.629" stroke="#F9F9F9" stroke-miterlimit="10"/>
<path d="M2400.2 146.518C2245.23 146.848 2079.02 140.438 1926.25 157.133C1686.23 183.366 1459.36 244.448 1221.13 275.736C1132.34 287.393 1048.73 294.62 962.504 272.974C892.55 255.306 832.931 224.99 775.923 194.693C675.019 141.133 566.584 69.9398 426.841 63.9462C337.536 60.1068 247.737 89.5534 170.609 114.483C85.0424 142.14 2.77422 173.654 -82.7647 201.346C-161.377 226.78 -254.832 257.981 -346.088 251.466C-426.735 245.716 -499.273 213.42 -560.788 182.323C-680.85 121.519 -812.182 21.001 -982.326 31.1814C-1186.22 43.3422 -1351.83 136.599 -1557.9 146.588" stroke="#F9F9F9" stroke-miterlimit="10"/>
<path d="M2400.17 168.095C2247.98 168.425 2083.53 161.997 1933.7 179.005C1689.45 206.714 1459.93 271.966 1217.72 305.2C1129.35 317.361 1045.1 325.126 959.755 301.934C889.884 282.946 832.051 250.024 777.105 217.642C680.407 160.677 576.067 83.5773 434.62 76.9235C342.869 72.6499 250.458 104.546 172.121 130.918C83.6957 160.712 -1.04629 194.623 -89.4713 224.452C-169.183 251.362 -265.387 285.013 -359.089 278.151C-440.588 272.175 -511.889 237.864 -571.728 204.977C-688.079 141.063 -815.398 33.3356 -988.262 44.1935C-1192.16 56.9971 -1351.45 157.741 -1557.93 168.026" stroke="#F9F9F9" stroke-miterlimit="10"/>
<path d="M2400.12 189.29C2250.07 189.568 2086.63 183.018 1939 199.887C1692.69 228.031 1462.55 296.705 1218.46 330.842C1131.3 343.003 1045.49 350.925 961.352 327.576C890.903 308.032 833.868 273.339 779.939 239.584C684.779 179.926 583.518 99.7339 439.102 93.2713C345.317 89.0671 252.659 121.293 173.222 148.864C82.9283 180.134 -3.38022 215.783 -93.6469 247.089C-174.376 275.093 -270.992 309.283 -366.618 302.473C-449.079 296.601 -519.17 261.664 -578.267 227.371C-693.712 160.399 -814.956 49.9439 -991.861 60.6976C-1196.28 73.119 -1350.76 180.065 -1558.09 189.255" stroke="#F9F9F9" stroke-miterlimit="10"/>
<path d="M2400.09 210.137C2250.59 210.728 2087.68 203.362 1940.68 220.56C1696.05 249.243 1468.84 319.967 1226.68 354.903C1139.77 367.429 1054.01 374.934 969.928 351.863C898.462 332.214 840.3 297.104 785.574 262.932C688.655 202.406 586.322 121.189 440.009 113.615C345.565 108.733 253.456 140.559 173.662 168.564C83.2307 200.321 -2.91299 236.665 -93.3171 268.439C-174.431 296.965 -270.552 330.686 -366.893 323.389C-449.904 317.1 -519.583 282.094 -578.789 247.419C-694.701 179.509 -813.637 70.513 -991.943 80.6412C-1196.94 92.2461 -1349.82 202.111 -1558.01 210.137" stroke="#F9F9F9" stroke-miterlimit="10"/>
<path d="M2400.06 230.515C2249.93 231.592 2087.51 222.298 1939.99 240.695C1699.7 270.663 1477.61 342.551 1239.87 378.721C1151.91 392.115 1068.41 399.082 983.118 375.855C910.36 356.067 850.136 321.322 793.404 287.445C693.269 227.579 586.621 145.545 440.308 135.209C346.441 128.572 254.003 160.486 174.896 188.473C85.5636 220.074 0.711662 256.452 -88.593 288.088C-169.542 316.77 -265.663 350.23 -361.867 341.561C-444.63 334.108 -515.326 298.598 -575.357 264.305C-691.873 197.768 -814.245 90.8217 -990.407 100.655C-1195.9 112.138 -1349.28 222.628 -1557.96 230.515" stroke="#F9F9F9" stroke-miterlimit="10"/>
<path d="M2400.01 250.546C2249.02 251.831 2087.04 239.948 1938.62 259.423C1703.22 290.312 1486.93 363.138 1254.19 400.141C1165.49 414.283 1083.94 420.589 997.688 397.657C923.803 378.009 861.161 344.167 802.312 310.551C698.824 251.484 587.255 169.746 441.08 156.907C348.065 148.725 256.341 179.978 177.949 207.844C90.1286 239.114 7.06339 275.267 -80.702 306.52C-161.403 335.255 -256.617 367.759 -352.381 357.856C-435.227 349.274 -507.187 313.608 -568.565 279.68C-686.621 214.532 -813.006 110.262 -987.822 119.956C-1194.22 131.387 -1348.45 242.589 -1558.04 250.441" stroke="#F9F9F9" stroke-miterlimit="10"/>
<path d="M2399.95 270.194C2247.92 271.427 2086.03 256.4 1936.55 276.865C1706.54 308.327 1496.54 381.9 1269.28 419.547C1180.23 434.296 1100.21 439.838 1013.24 417.566C938.04 398.317 873.061 365.448 811.93 332.44C704.127 274.433 588.655 193.876 442.068 178.675C350.152 169.155 260.05 199.053 182.427 226.728C96.5311 257.373 15.5824 293.213 -70.2589 323.893C-150.658 352.645 -244.031 383.533 -339.217 372.536C-422.447 362.894 -495.892 327.367 -559.112 293.908C-679.531 230.202 -810.424 129.128 -984.305 138.77C-1191.97 150.288 -1347.38 262.237 -1558.23 270.142" stroke="#F9F9F9" stroke-miterlimit="10"/>
<path d="M2399.93 289.46C2246.66 290.433 2084.82 271.792 1934 293.143C1709.76 324.883 1506.44 399.116 1285.03 436.971C1196.03 452.224 1117.12 456.967 1029.71 435.668C953.158 417.01 885.897 385.288 822.265 353.287C709.569 296.6 590.579 217.972 443.442 200.582C265.877 179.578 86.4435 288.887 -57.4499 340.414C-137.546 369.114 -228.39 397.866 -322.753 385.826C-406.642 375.107 -481.626 339.928 -547.017 306.972C-670.488 244.76 -806.273 147.3 -979.715 156.994C-1188.92 168.668 -1345.81 281.434 -1558.17 289.46" stroke="#F9F9F9" stroke-miterlimit="10"/>
<path d="M2399.87 308.327C2245.26 308.866 2083.39 286.229 1931 308.327C1712.79 340.084 1516.47 414.665 1301.23 452.641C1212.53 468.277 1134.38 472.168 1046.72 452.103C968.772 434.227 899.176 403.911 833.043 372.918C715.454 317.847 592.918 241.842 445.039 222.298C270.168 199.227 98.4576 305.374 -42.7696 356.067C-120.86 384.054 -211.896 412.268 -303.674 397.848C-388.884 384.471 -463.95 352.037 -533.052 319.029C-660.068 258.398 -801.076 164.881 -974.518 174.679C-1185.51 186.58 -1344.08 300.197 -1558.23 308.449" stroke="#F9F9F9" stroke-miterlimit="10"/>
<path d="M2399.82 326.829C2243.75 326.829 2081.71 299.849 1927.62 322.764C1715.61 354.295 1526.51 429.188 1317.61 466.957C954.78 532.608 765.506 290.242 446.796 243.857C275.004 218.823 111.979 321.148 -26.6915 370.816C-104.424 398.613 -191.942 423.924 -282.566 408.689C-368.847 394.183 -445.673 362.46 -517.551 330.078C-648.526 271.011 -795.003 181.75 -968.802 191.705C-1181.74 203.865 -1342.18 318.368 -1558.31 326.829" stroke="#F9F9F9" stroke-miterlimit="10"/>
<path d="M2399.76 344.931C2242.18 344.202 2079.87 312.792 1923.94 336.384C1718.25 367.498 1536.37 442.566 1333.99 480.004C978.666 545.707 762.263 314.964 448.693 265.26C279.869 238.472 126.63 336.262 -9.51185 384.975C-86.9147 412.667 -170.612 434.644 -259.944 418.713C-347.38 403.078 -426.157 372.154 -500.921 340.449C-636.101 283.119 -788.158 198.15 -962.699 208.33C-1177.73 220.856 -1340.18 336.193 -1558.39 344.931" stroke="#F9F9F9" stroke-miterlimit="10"/>
<path d="M2399.71 362.651C2240.56 361.175 2077.92 325.178 1920.03 349.361C1720.65 379.902 1546.21 455.056 1350.1 491.99C1002.31 557.503 759.129 339.372 450.645 286.351C284.844 257.859 142.023 350.838 8.27217 398.595C-68.8558 426.131 -148.403 444.581 -236.36 428.129C-325.005 411.468 -405.816 381.223 -483.549 350.299C-623.072 294.707 -780.737 214.167 -956.157 224.573C-1173.3 237.481 -1337.89 353.687 -1558.28 362.721" stroke="#F9F9F9" stroke-miterlimit="10"/>
<path d="M2399.65 379.989C2238.96 377.748 2075.86 337.148 1915.88 361.835C1722.65 391.681 1555.42 466.87 1365.63 503.178C1025.23 568.308 756.051 363.277 452.624 307.076C289.82 276.917 157.718 364.944 26.249 411.781C-50.5492 439.143 -126.22 453.962 -212.721 436.919C-302.603 419.199 -385.531 389.718 -466.177 359.559C-610.071 305.704 -773.287 229.612 -949.808 240.278C-1169.23 253.551 -1335.86 370.573 -1558.45 379.989" stroke="#F9F9F9" stroke-miterlimit="10"/>
<path d="M2399.6 396.928C2237.43 393.939 2073.77 348.84 1911.95 373.943C1724.66 403.008 1564.49 478.179 1380.74 513.776C1047.08 578.402 752.945 386.712 454.439 327.367C294.603 295.576 173.249 378.651 43.9232 424.654C-32.5451 451.842 -104.506 463.03 -189.357 445.501C-280.476 426.704 -365.493 397.9 -449.025 368.575C-597.152 316.562 -765.811 244.761 -943.54 255.653C-1165.17 269.291 -1333.85 387.268 -1558.61 396.893" stroke="#F9F9F9" stroke-miterlimit="10"/>
<path d="M2399.54 413.501C2235.75 409.801 2071.71 360.375 1907.91 385.826C1726.25 414.057 1572.85 489.176 1394.82 524.008C1067.56 588.044 749.895 409.662 456.391 347.172C299.221 313.713 188.724 392.185 61.1853 437.267C-15.0356 464.194 -83.2302 472.012 -166.653 453.979C-258.953 434.105 -346.032 405.874 -432.285 377.401C-584.48 327.176 -758.334 259.597 -937.3 270.767C-1161.02 284.752 -1331.68 403.581 -1558.5 413.501" stroke="#F9F9F9" stroke-miterlimit="10"/>
<path d="M2399.49 429.675C2234.15 425.367 2069.64 371.876 1904.01 397.588C1727.54 424.967 1580.49 500.086 1407.79 534.102C1240.26 567.11 1062.03 529.846 905.551 490.028C754.648 451.617 611.195 401.236 458.038 366.404C302.848 331.103 203.868 405.874 77.2909 449.793C-90.7909 508.078 -262.941 434.157 -416.785 386.226C-572.662 337.722 -751.409 274.173 -931.557 285.586C-1157.25 299.867 -1329.79 419.529 -1558.61 429.692" stroke="#F9F9F9" stroke-miterlimit="10"/>
<path d="M2399.43 445.484C2232.56 440.672 2068.03 383.481 1900.27 409.384C1728.51 435.929 1587.31 510.996 1419.25 544.265C1253.26 577.168 1070.34 541.433 913.112 504.968C759.158 469.25 612.626 422.083 459.497 384.975C306.368 347.867 216.926 418.973 91.9711 462.266C-72.2901 519.161 -251.614 439.681 -402.791 395.121C-561.94 348.215 -745.222 288.522 -926.36 300.092C-1153.81 314.633 -1328.05 435.095 -1558.56 445.484" stroke="#F9F9F9" stroke-miterlimit="10"/>
<path d="M2399.38 460.894C2230.94 455.682 2066.54 395.295 1896.84 421.353C1729.17 447.082 1593.16 522.115 1429.56 554.741C1264.83 587.488 1077.73 553.212 919.792 519.769C763.117 486.57 613.644 442.235 460.762 402.852C388.637 384.28 335.779 383.516 266.045 407.473C209.368 426.947 161.431 455.23 104.835 474.844C29.329 501.042 -30.8121 500.312 -109.892 480.837C-204.914 457.402 -297.489 430.457 -390.724 404.276C-552.539 358.968 -739.807 302.75 -921.769 314.425C-1150.79 329.122 -1326.49 450.383 -1558.64 460.894" stroke="#F9F9F9" stroke-miterlimit="10"/>
<path d="M2399.32 475.938C2229.32 470.726 2065.41 407.455 1893.73 433.601C1729.39 458.635 1598.03 533.945 1437.72 565.737C1273.85 598.242 1083.31 565.39 924.738 534.467C766.166 503.543 613.917 461.502 461.53 419.807C391.109 400.541 339.626 397.813 270.496 421.649C215.688 440.55 169.95 468.451 115.279 487.491C40.1846 513.654 -19.022 510.875 -96.7272 490.757C-192.216 466.036 -286.221 439.143 -381.216 413.692C-545.065 369.809 -735.988 316.718 -918.225 328.427C-1148.51 343.211 -1325.39 465.202 -1558.67 475.782" stroke="#F9F9F9" stroke-miterlimit="10"/>
<path d="M2399.27 490.566C2227.67 485.493 2064.7 420.033 1891.09 446.248C1729.2 470.726 1601.93 546.61 1443.86 577.464C1280.2 609.447 1087.6 578.089 928.038 549.372C767.185 520.447 613.616 480.16 461.862 436.172C392.87 416.194 341.964 411.99 273.357 435.825C220.033 454.327 176.136 482.053 122.977 500.729C48.2403 526.979 -10.9113 522.723 -87.4345 501.841C-183.061 475.782 -278.166 448.82 -374.617 423.907C-539.538 381.292 -733.649 330.946 -915.749 342.568C-1146.94 357.335 -1324.67 480.021 -1558.94 490.566" stroke="#F9F9F9" stroke-miterlimit="10"/>
<path d="M2399.21 504.829C2226.04 500.225 2064.48 433.184 1888.95 459.469C1728.73 483.461 1604.21 559.674 1448.03 590.163C1284.9 621.99 1089.77 591.31 929.794 564.382C767.292 537.02 613.036 497.828 461.996 451.46C394.131 430.613 342.95 425.575 274.701 449.567C222.476 467.929 179.954 495.674 127.811 514.21C53.3493 540.686 -6.62701 535.683 -82.2432 513.845C-177.677 486.292 -273.496 459.139 -371.02 434.643C-536.435 393.106 -732.801 345.018 -914.159 356.467C-1145.9 371.077 -1324.07 494.423 -1558.89 504.829" stroke="#F9F9F9" stroke-miterlimit="10"/>
<path d="M2399.13 518.727C2225.08 514.592 2064.64 446.822 1888.04 473.35C1728.37 497.324 1604.6 573.468 1448.91 603.783C1285.94 635.506 1089.93 604.2 929.906 577.846C766.827 550.988 613.066 512.091 461.833 465.515C394.216 444.667 342.321 440.324 274.538 464.16C222.671 482.401 180.423 509.902 128.556 528.195C54.3412 554.358 -6.73441 549.494 -81.636 527.031C-176.658 498.54 -272.587 471.178 -370.522 446.926C-535.141 406.152 -734.063 358.603 -914.019 370.486C-1145.43 385.739 -1324.75 507 -1558.97 518.675" stroke="#F9F9F9" stroke-miterlimit="10"/>
<path d="M2399.07 532.399C2224.64 528.473 2064.67 460.251 1887.65 487.091C1728.23 511.274 1603.83 586.776 1448.03 616.9C1285.06 648.414 1089.49 615.736 929.712 589.208C767.155 562.211 614.053 523.383 461.776 479.013C317.636 437.024 246.197 501.598 127.482 541.867C53.2676 567.04 -8.19307 562.454 -82.4075 539.904C-177.017 511.153 -272.781 483.86 -370.689 459.886C-534.346 419.825 -735.851 372.05 -914.516 384.94C-1144.94 401.583 -1326.46 517.91 -1559.11 532.139" stroke="#F9F9F9" stroke-miterlimit="10"/>
<path d="M2399.02 545.863C2224.07 542.076 2064.48 473.35 1886.91 500.416C1727.49 524.738 1602.59 599.44 1446.71 629.286C1283.74 660.557 1088.75 626.628 929.217 600.013C767.293 572.999 614.768 534.345 461.612 492.216C318.681 452.885 244.686 516.312 125.888 554.758C51.6736 578.836 -10.3366 574.389 -83.8913 551.804C-178.061 522.896 -273.55 495.812 -371.431 472.255C-534.428 433.01 -737.94 385.739 -915.12 399.498C-1144.39 417.288 -1328.14 528.56 -1559.08 545.046" stroke="#F9F9F9" stroke-miterlimit="10"/>
<path d="M2398.96 559.084C2223.41 555.401 2064.07 486.119 1885.84 513.307C1726.61 537.594 1600.97 611.445 1444.98 640.978C1282.01 671.728 1087.65 636.948 928.421 610.316C767.265 583.388 615.071 545.029 461.365 505.228C319.45 468.52 242.927 530.54 123.827 567.197C49.42 590.076 -13.0574 585.629 -86.0624 563.062C-179.71 534.102 -275.007 507.331 -372.722 484.329C-535.307 446.023 -740.056 399.916 -916.027 414.387C-1144.17 433.132 -1330.03 539.175 -1559.22 557.694" stroke="#F9F9F9" stroke-miterlimit="10"/>
<path d="M2398.91 572.078C2222.61 568.43 2063.57 498.61 1884.44 525.815C1725.35 549.963 1598.93 622.98 1442.81 651.923C1279.89 682.134 1086.53 646.572 927.349 620.027C767.073 593.273 615.346 555.314 461.008 517.911C320.165 483.773 240.948 544.161 121.298 578.836C46.6441 600.483 -16.3283 595.879 -88.8659 573.381C-181.781 544.274 -277.127 518.374 -374.481 495.795C-536.928 458.548 -742.255 414.144 -917.208 429.275C-1143.86 448.785 -1332.01 549.477 -1559.19 569.751" stroke="#F9F9F9" stroke-miterlimit="10"/>
<path d="M2398.83 584.83C2221.73 581.182 2062.75 510.753 1882.74 537.924C1723.78 561.881 1596.52 633.925 1440.2 662.277C1277.34 691.811 1084.79 655.693 925.92 629.269C766.497 602.793 615.182 565.355 460.486 530.384C320.688 498.766 238.612 557.364 118.248 589.938C43.2361 610.246 -20.2034 605.382 -92.3288 582.988C-184.685 554.074 -279.683 528.659 -376.817 506.879C-539.347 470.796 -744.646 428.806 -918.665 444.337C-1143.86 464.438 -1334.16 559.622 -1559.35 581.477" stroke="#F9F9F9" stroke-miterlimit="10"/>
<path d="M2398.77 597.303C2220.77 593.638 2061.81 522.601 1880.78 549.563C1721.94 573.225 1593.77 644.227 1437.39 671.902C1274.62 700.705 1083.09 664.153 924.354 637.955C766.112 611.896 614.852 575.049 459.992 542.562C321.183 513.428 236.084 570.028 114.895 600.396C39.471 619.297 -24.4633 614.068 -96.2863 591.709C-188.011 563.071 -282.581 538.228 -379.4 517.337C-542.205 482.592 -746.872 443.399 -920.149 459.295C-1143.78 479.795 -1336.13 569.368 -1559.3 592.561" stroke="#F9F9F9" stroke-miterlimit="10"/>
<path d="M2398.72 609.534C2219.72 605.781 2060.63 534.067 1878.56 560.89C1719.82 584.135 1590.71 654.008 1434.18 680.935C1271.51 708.905 1081.03 672.093 922.648 646.19C765.506 620.478 614.411 584.465 459.495 554.48C321.649 527.813 233.361 582.276 111.265 610.315C35.3735 627.688 -29.0555 622.059 -100.659 599.892C-191.776 571.593 -285.953 547.414 -382.481 527.535C-545.808 494.127 -749.32 458.253 -921.964 474.427C-1143.98 495.274 -1338.31 579.027 -1559.38 603.418" stroke="#F9F9F9" stroke-miterlimit="10"/>
<path d="M2398.66 621.486C2218.6 617.629 2059.53 545.22 1876.11 571.679C1717.49 594.576 1587.36 663.267 1430.66 689.361C1268.13 716.41 1078.83 679.476 920.671 653.904C764.628 628.661 613.671 593.551 458.893 566.102C321.981 541.781 230.312 594.02 107.254 619.645C30.8406 635.541 -34.0831 629.304 -105.521 607.484C-196.002 579.614 -289.732 556.174 -385.887 537.368C-549.846 505.489 -751.709 473.315 -923.859 489.68C-1144.22 510.527 -1340.39 588.53 -1559.38 613.929" stroke="#F9F9F9" stroke-miterlimit="10"/>
<path d="M2398.61 633.143C2217.41 629.147 2058.18 556.043 1873.61 582.137C1714.9 604.496 1583.76 672.006 1426.87 697.196C1264.5 723.255 1076.52 686.338 918.36 661.148C763.472 636.444 612.625 602.341 458.011 577.446C322.034 555.54 226.792 605.347 102.717 628.435C25.7538 642.75 -39.6373 635.905 -111.021 614.19C-200.842 586.809 -294.105 564.188 -389.847 546.558C-554.438 516.312 -754.267 488.099 -926.032 504.655C-1144.66 525.624 -1342.59 597.547 -1559.49 623.814" stroke="#F9F9F9" stroke-miterlimit="10"/>
<path d="M2398.55 644.453C2216.23 640.336 2056.81 566.537 1870.61 592.196C1712.15 614.051 1579.91 680.24 1422.85 704.475C1260.68 729.509 1073.99 692.679 916.189 667.993C762.428 643.88 611.69 610.906 457.407 588.548C322.282 568.951 223.274 616.344 98.2367 636.774C20.7239 649.474 -45.1896 641.986 -116.6 620.427C-205.743 593.594 -298.505 571.855 -393.777 555.47C-559.44 526.979 -756.795 503.179 -928.286 519.7C-1145.21 540.547 -1344.71 606.424 -1559.55 633.439" stroke="#F9F9F9" stroke-miterlimit="10"/>
<path d="M2398.5 655.571C2214.86 651.211 2055.13 576.699 1867.62 601.872C1709.18 623.119 1575.79 687.989 1418.62 711.216C1256.58 735.138 1071.3 698.516 913.714 674.247C761.107 650.742 610.479 619.019 456.608 599.197C322.28 581.824 219.369 626.663 93.3974 644.366C15.3074 655.397 -51.1008 647.111 -122.622 625.847C-211.087 599.616 -303.335 578.818 -398.094 563.739C-564.774 537.125 -759.381 517.893 -930.651 534.432C-1145.87 555.192 -1346.8 614.78 -1559.6 642.42" stroke="#F9F9F9" stroke-miterlimit="10"/>
<path d="M2398.44 666.325C2213.48 661.739 2053.48 586.515 1864.4 611.132C1706.11 631.753 1571.64 695.25 1414.2 717.418C1252.38 740.211 1068.52 703.85 911.187 680.119C759.68 657.274 609.245 626.889 455.868 609.603C322.227 594.541 215.331 636.67 88.3971 651.732C9.7573 661.061 -57.1181 651.958 -128.886 630.885C-216.662 605.306 -308.376 585.513 -402.572 571.818C-570.242 547.218 -761.88 532.764 -933.068 549.233C-1146.61 569.75 -1348.81 623.05 -1559.66 651.245" stroke="#F9F9F9" stroke-miterlimit="10"/>
<path d="M2398.39 676.749C2212.14 671.919 2051.73 595.983 1861.19 620.009C1702.86 639.971 1567.27 702.06 1409.64 723.133C1248.04 744.728 1065.64 708.732 908.413 685.556C757.978 663.372 607.762 634.446 454.881 619.679C321.817 606.841 210.853 646.225 83.0117 658.507C3.79473 666.134 -63.5479 656.162 -135.591 635.402C-222.684 610.485 -313.859 591.713 -407.463 579.427C-576.259 556.964 -764.626 547.444 -935.759 563.792C-1147.41 584.048 -1350.81 630.919 -1559.71 659.584" stroke="#F9F9F9" stroke-miterlimit="10"/>
<path d="M2398.33 686.842C2210.73 681.752 2049.91 605.191 1857.8 628.487C1699.48 647.754 1562.76 708.436 1404.93 728.363C1243.56 748.689 1062.64 713.144 905.606 690.56C756.188 669.07 606.247 641.691 454.025 629.425C321.429 618.741 206.424 655.328 77.7584 664.831C-1.9533 670.72 -69.8182 659.845 -142.136 639.345C-228.553 615.137 -319.177 597.44 -412.139 586.619C-582.007 566.415 -767.049 561.915 -938.181 578.141C-1148.29 598.05 -1352.49 638.442 -1559.58 667.524" stroke="#F9F9F9" stroke-miterlimit="10"/>
<path d="M2398.28 696.571C2209.31 691.22 2048.01 613.877 1854.37 636.566C1696.07 655.137 1558.14 714.36 1400.12 733.053C1239.02 752.163 1059.62 717.018 902.612 695.059C754.183 674.212 604.573 648.518 452.983 638.737C320.634 630.19 201.699 663.928 72.0432 670.633C-8.24573 674.785 -76.3855 662.955 -149.39 642.733C-235.141 619.246 -325.212 602.647 -417.497 593.325C-805.061 552.864 -1184.85 621.121 -1559.96 674.977" stroke="#F9F9F9" stroke-miterlimit="10"/>
<path d="M2398.22 705.987C2207.85 700.341 2046.09 622.32 1850.85 644.296C1692.55 662.121 1553.44 719.867 1395.23 737.466C1234.4 755.36 1056.51 720.649 899.834 699.333C752.258 679.198 603.087 655.172 452.184 647.927C319.862 641.517 197.189 672.249 66.5716 676.245C-14.1846 678.677 -82.9016 665.821 -156.319 645.895C-241.088 622.737 -331.107 607.97 -422.501 599.805C-800.197 566.05 -1194.14 628.713 -1559.88 682.203" stroke="#F9F9F9" stroke-miterlimit="10"/>
<path d="M2398.17 715.02C2206.39 709.079 2044.14 630.381 1847.3 651.628C1688.98 668.774 1548.72 724.975 1390.31 741.392C1229.76 758.018 1053.4 723.776 896.893 703.172C750.114 683.802 601.465 661.478 451.25 656.596C318.681 652.288 192.544 680.119 60.9372 681.283C-20.2863 681.995 -89.4432 668.132 -163.438 648.448C-247.657 626.055 -337.072 612.557 -427.696 605.851C-600.34 593.082 -775.404 603.957 -946.619 619.575C-1152.06 638.32 -1357.79 658.889 -1559.93 689.066" stroke="#F9F9F9" stroke-miterlimit="10"/>
<path d="M2398.11 723.689C2206.59 717.557 2044.55 638.72 1847.91 658.142C1690.22 673.778 1549.68 727.789 1392.51 744.172C1233.63 760.728 1060.83 727.876 905.69 708.037C755.722 688.927 603.802 667.576 450.288 664.9C314.009 662.52 181.22 688.823 45.2425 685.748C-36.8331 683.889 -105.248 666.933 -180.479 648.101C-258.624 628.539 -341.14 617.334 -424.59 612.035C-602.209 600.761 -778.372 617.386 -953.875 633.074C-1156.45 651.176 -1360.85 665.109 -1560.07 695.372" stroke="#F9F9F9" stroke-miterlimit="10"/>
<path d="M2398.09 731.976C2205.24 725.548 2042.54 646.051 1844.45 664.727C1686.73 679.598 1545.06 732.185 1387.64 747.368C1229.1 762.587 1057.66 730.204 902.749 711.007C753.495 692.488 602.153 672.788 449.436 672.788C312.359 672.788 176.63 695.598 39.5255 689.778C-42.66 686.303 -111.652 668.375 -187.461 649.943C-265.083 631.076 -347.049 621.052 -429.785 617.091C-607.982 608.561 -781.094 630.503 -956.569 645.756C-1157.83 663.25 -1362.19 670.703 -1560.01 701.348" stroke="#F9F9F9" stroke-miterlimit="10"/>
<path d="M2398.03 739.863C2203.73 733.14 2040.7 653 1840.93 670.946C1683.15 685.122 1540.39 736.232 1382.75 750.235C1224.54 764.324 1054.45 732.167 899.615 713.596C751.187 695.754 600.422 677.826 448.502 680.362C310.436 682.673 172.04 702.06 33.7811 693.53C-48.5144 688.44 -118.056 669.556 -194.359 651.523C-271.322 633.334 -352.903 624.492 -434.869 621.868C-613.533 616.118 -783.786 643.271 -959.207 658.108C-1159.2 675.029 -1363.26 675.967 -1559.93 706.994" stroke="#F9F9F9" stroke-miterlimit="10"/>
<path d="M2397.98 747.351C2202.33 740.402 2038.61 659.584 1837.44 676.783C1679.64 690.282 1535.77 740.002 1377.89 752.754C1220 765.505 1051.29 733.783 896.867 715.854C748.796 698.655 598.745 682.412 447.65 687.502C308.375 692.193 167.615 708.106 28.2015 696.901C-54.2589 690.282 -124.295 670.373 -201.313 652.757C-278.331 635.141 -358.868 627.566 -440.064 626.246C-618.728 623.31 -786.727 655.554 -961.956 669.973C-1160.8 686.338 -1364.69 680.779 -1560.04 712.258" stroke="#F9F9F9" stroke-miterlimit="10"/>
<path d="M2397.95 754.439C2200.95 747.142 2036.66 665.838 1834.06 682.238C1676.17 695.077 1531.26 743.286 1373.16 754.96C1215.71 766.582 1048.04 735.068 893.899 717.748C746.267 701.174 597.041 686.634 446.688 694.225C306.038 701.331 163.189 713.787 22.5392 699.958C-59.6738 691.863 -130.535 670.911 -208.103 653.695C-284.241 636.809 -364.777 630.311 -445.094 630.259C-623.758 630.12 -789.613 667.298 -964.594 681.335C-1162.5 697.213 -1365.9 685.174 -1560.04 717.157" stroke="#F9F9F9" stroke-miterlimit="10"/>
<path d="M2397.92 761.093C2199.6 753.553 2034.82 671.571 1830.76 687.346C1672.79 699.507 1526.84 746.413 1368.54 756.836C1211.26 767.26 1045.27 735.989 891.095 719.277C743.766 703.363 595.282 690.456 445.809 700.514C303.647 710.069 158.957 719.068 17.0149 702.668C-65.1707 693.2 -136.636 671.189 -214.781 654.373C-290.563 638.077 -370.412 632.744 -449.986 633.925C-628.375 636.548 -792.499 678.486 -967.233 692.193C-1164.01 707.62 -1366.89 689.1 -1560.12 721.726" stroke="#F9F9F9" stroke-miterlimit="10"/>
<path d="M2397.87 767.329C2198.31 759.529 2032.95 676.992 1827.54 692.071C1669.49 703.694 1522.44 749.088 1364.06 758.522C1207.11 767.868 1042.46 736.649 888.372 720.562C741.318 705.257 593.576 693.965 444.955 706.438C301.199 718.495 154.722 724.089 11.7903 705.17C-70.3128 694.312 -142.383 671.259 -221.215 654.79C-296.529 639.154 -375.966 634.846 -454.853 637.226C-632.775 642.559 -795.497 689.048 -969.928 702.46C-1165.77 717.522 -1368.05 692.575 -1560.34 725.844" stroke="#F9F9F9" stroke-miterlimit="10"/>
<path d="M2397.84 773.132C2197.18 765.088 2031.22 681.96 1824.49 696.432C1666.36 707.515 1518.48 751.538 1359.74 759.929C1203.07 768.198 1039.63 737.031 885.789 721.5C738.927 706.647 591.927 697.057 444.186 711.893C298.753 726.486 150.956 728.745 6.78809 707.376C-75.1501 695.216 -147.908 671.12 -227.262 655.033C-302.191 639.849 -381.188 636.705 -459.251 640.214C-636.54 648.188 -798.135 698.968 -972.237 712.206C-1167.39 726.99 -1368.84 695.65 -1560.29 729.718" stroke="#F9F9F9" stroke-miterlimit="10"/>
<path d="M2397.81 778.465C2195.89 770.231 2029.49 686.547 1821.61 700.445C1663.34 711.007 1514.55 753.727 1355.65 761.093C1199.22 768.337 1037.05 737.171 883.344 722.126C736.62 707.759 590.335 699.767 443.418 716.914C296.501 734.061 147.248 733.053 1.9523 709.322C-79.7935 695.963 -153.266 671.102 -233.06 655.085C-307.274 640.162 -386.382 638.286 -463.482 642.924C-640.057 653.348 -800.745 708.228 -974.489 721.292C-1168.79 735.902 -1369.67 698.221 -1560.29 733.21" stroke="#F9F9F9" stroke-miterlimit="10"/>
<path d="M2397.64 783.434C2194.63 775.026 2027.86 690.786 1818.74 704.145C1660.53 714.204 1510.87 755.638 1351.77 762.048C1195.7 768.337 1034.57 737.066 881.033 722.456C734.39 708.558 588.793 702.078 442.728 721.483C293.914 741.236 143.782 737.119 -2.55825 711.06C-84.1391 696.571 -158.244 670.772 -238.505 654.981C-312.417 640.44 -391.112 639.606 -467.415 645.183C-550.673 651.28 -631.841 665.248 -711.773 680.744C-798.026 697.439 -886.781 722.908 -976.636 729.648C-1170.28 744.189 -1370.47 700.254 -1560.32 736.285" stroke="#F9F9F9" stroke-miterlimit="10"/>
<path d="M2397.64 787.777C2193.64 779.23 2026.57 694.451 1816.24 707.359C1657.89 717.088 1507.43 757.375 1348.14 762.83C1192.32 768.233 1032.35 736.771 878.943 722.525C732.301 708.94 587.281 703.989 442.068 725.583C291.633 747.959 140.51 740.853 -6.90143 712.536C-88.1249 696.901 -162.862 670.321 -243.535 654.755C-317.145 640.561 -395.483 640.666 -471.044 647.198C-554.136 654.355 -634.838 669.539 -714.302 686.025C-799.923 703.78 -888.816 730.569 -978.642 737.362C-1171.68 751.937 -1371.24 701.835 -1560.35 739.099" stroke="#F9F9F9" stroke-miterlimit="10"/>
<path d="M2397.64 791.721C2192.7 783.034 2025.2 697.752 1813.96 710.278C1655.5 719.694 1504.32 758.765 1344.9 763.438C1189.3 768.007 1030.4 736.18 877.102 722.3C730.432 709.044 585.934 705.483 441.573 729.249C289.406 754.213 137.597 744.311 -10.8593 713.822C-91.7805 697.213 -167.067 669.817 -248.153 654.425C-321.46 640.527 -399.33 641.499 -474.342 648.883C-557.242 657.048 -637.531 673.378 -716.583 690.768C-801.627 709.479 -890.63 737.448 -980.456 744.345C-1172.86 759.112 -1371.95 702.912 -1560.43 741.514" stroke="#F9F9F9" stroke-miterlimit="10"/>
<path d="M2397.64 795.178C2191.85 786.491 2024.07 700.618 1811.93 712.849C1653.27 722.004 1501.33 759.998 1341.74 763.907C1186.3 767.729 1028.39 735.433 875.26 721.83C728.536 708.818 584.45 706.577 440.969 732.376C287.235 760.016 135.041 747.507 -14.4601 715.003C-95.1064 697.439 -170.888 669.33 -252.304 654.077C-325.363 640.405 -402.959 642.142 -477.256 650.307C-560.046 659.411 -639.895 676.783 -718.59 695.007C-803.166 714.621 -892.224 743.546 -982.161 750.6C-1174.18 765.679 -1372.78 703.52 -1560.43 743.651" stroke="#F9F9F9" stroke-miterlimit="10"/>
<path d="M2397.64 798.131C2191.05 789.445 2023.11 703.033 1810.14 715.073C1651.46 724.037 1498.83 761.023 1339.1 764.324C1183.83 767.468 1026.96 734.599 873.831 721.188C727.024 708.332 583.213 707.29 440.556 735.086C285.228 765.366 132.951 750.495 -17.6489 715.976C-97.9378 697.561 -174.159 668.809 -255.877 653.66C-328.717 640.144 -405.928 642.542 -479.702 651.402C-562.383 661.356 -641.874 679.667 -720.239 698.655C-804.431 719.068 -893.406 748.741 -983.59 755.985C-1175.2 771.534 -1373.55 703.52 -1560.46 745.423" stroke="#F9F9F9" stroke-miterlimit="10"/>
<path d="M2397.64 800.598C2192.07 791.912 2024.68 705.5 1812.95 716.706C1645.63 725.548 1483.9 765.488 1315.08 764.671C1170.74 763.977 1025.92 734.009 883.341 721.118C731.862 707.429 586.869 707.811 440.172 737.118C277.505 769.536 125.09 752.493 -31.6944 713.943C-101.978 696.675 -168.936 673.118 -239.742 656.944C-314.671 639.832 -396.939 641.499 -474.04 651.002C-561.53 661.773 -645.282 682.273 -727.798 703.12C-810.973 724.211 -899.398 753.9 -989.087 760.849C-1178.75 775.46 -1375.99 703.329 -1560.43 746.83" stroke="#F9F9F9" stroke-miterlimit="10"/>
<path d="M2397.64 802.544C2191.49 793.979 2024.1 706.994 1811.79 718.217C1644.42 727.077 1481.95 766.079 1313.18 764.776C1168.96 763.646 1024.87 732.845 882.379 719.937C730.789 706.212 585.824 707.567 439.842 738.786C275.525 773.948 123.908 754.908 -34.1683 714.464C-104.122 696.571 -171.273 672.805 -242.271 656.614C-317.035 639.484 -398.946 641.499 -475.606 651.541C-563.042 662.989 -646.465 684.375 -728.733 705.778C-811.798 727.39 -900.195 757.41 -990.105 764.706C-1179.41 779.959 -1376.87 702.425 -1560.46 748.028" stroke="#F9F9F9" stroke-miterlimit="10"/>
<path d="M2397.64 803.934C2191.08 795.508 2023.82 708.002 1810.91 719.398C1643.52 728.363 1480.68 766.53 1311.7 764.81C1167.53 763.351 1024.13 731.559 881.692 718.547C730.02 704.649 584.835 706.855 439.787 739.95C273.876 777.788 123.468 757.149 -35.955 715.003C-105.744 696.571 -173.059 672.562 -244.113 656.179C-318.822 638.963 -400.018 641.135 -476.623 651.645C-653.611 675.967 -812.183 752.111 -990.874 767.468C-1179.85 783.712 -1377.83 700.949 -1560.46 748.845" stroke="#F9F9F9" stroke-miterlimit="10"/>
<path d="M2397.64 804.817C2190.75 796.565 2023.55 708.538 1810.39 720.213C1642.97 729.403 1479.59 766.823 1310.68 764.825C1166.48 763.088 1023.72 730.184 881.335 716.946C729.608 702.84 583.927 705.689 439.704 740.573C272.337 781.069 123.606 759.231 -37.3293 715.383C-106.541 696.568 -174.021 671.639 -245.24 655.899C-320.883 639.204 -399.633 640.559 -477.063 651.539C-654.353 676.694 -812.045 752.908 -991.369 769.377C-1180.09 786.75 -1378.93 698.931 -1560.35 749.364" stroke="#F9F9F9" stroke-miterlimit="10"/>
<path d="M2397.64 805.15C2190.53 797.141 2023.63 708.593 1810.25 720.701C1642.83 730.204 1479.23 766.999 1309.99 764.845C1165.77 763.004 1023.55 728.71 881.197 715.159C729.47 700.723 583.021 704.041 439.649 740.68C270.99 783.816 124.348 761.197 -38.1262 715.681C-186.555 674.125 -308.844 626.82 -476.926 651.176C-654.683 676.94 -811.633 752.511 -991.589 770.3C-1180.09 788.941 -1379.98 696.38 -1560.57 749.453" stroke="#F9F9F9" stroke-miterlimit="10"/>
</svg>
