<svg width="20" height="20" viewBox="0 0 20 20" fill="none" xmlns="http://www.w3.org/2000/svg">
<path d="M2.85714 0C1.28125 0 0 1.28125 0 2.85714V17.1429C0 18.7188 1.28125 20 2.85714 20H17.1429C18.7188 20 20 18.7188 20 17.1429V2.85714C20 1.28125 18.7188 0 17.1429 0H2.85714ZM5.71429 3.57143C6.89732 3.57143 7.85714 4.53125 7.85714 5.71429C7.85714 6.89732 6.89732 7.85714 5.71429 7.85714C4.53125 7.85714 3.57143 6.89732 3.57143 5.71429C3.57143 4.53125 4.53125 3.57143 5.71429 3.57143ZM12.1429 8.57143C12.5179 8.57143 12.8616 8.76786 13.058 9.08482L16.9866 15.5134C17.1875 15.8438 17.1964 16.2589 17.0089 16.5982C16.8214 16.9375 16.4598 17.1429 16.0714 17.1429H3.92857C3.53125 17.1429 3.16071 16.9196 2.97768 16.567C2.79464 16.2143 2.82143 15.7857 3.04911 15.4598L5.54911 11.8884C5.75 11.6027 6.07589 11.433 6.42857 11.433C6.78125 11.433 7.10714 11.6027 7.30804 11.8884L8.48661 13.5759L11.2277 9.08929C11.4241 8.77232 11.7679 8.57589 12.1429 8.57589V8.57143Z" fill="black"/>
</svg>
