<svg width="31" height="33" viewBox="0 0 31 33" fill="none" xmlns="http://www.w3.org/2000/svg">
<path d="M8.25 0C9.16438 0 9.9 0.735625 9.9 1.65V4.4H20.9V1.65C20.9 0.735625 21.6356 0 22.55 0C23.4644 0 24.2 0.735625 24.2 1.65V4.4H26.4C28.8269 4.4 30.8 6.37313 30.8 8.8V28.6C30.8 31.0269 28.8269 33 26.4 33H4.4C1.97313 33 0 31.0269 0 28.6V8.8C0 6.37313 1.97313 4.4 4.4 4.4H6.6V1.65C6.6 0.735625 7.33563 0 8.25 0ZM8.25 7.7H4.4C3.795 7.7 3.3 8.195 3.3 8.8V12.1H27.5V8.8C27.5 8.195 27.005 7.7 26.4 7.7H8.25ZM3.3 15.4V28.6C3.3 29.205 3.795 29.7 4.4 29.7H26.4C27.005 29.7 27.5 29.205 27.5 28.6V15.4H3.3Z" fill="#F9F9F9"/>
</svg>
