<svg width="33" height="33" viewBox="0 0 33 33" fill="none" xmlns="http://www.w3.org/2000/svg">
<path d="M0 16.5C0 7.38633 7.38633 0 16.5 0C25.6137 0 33 7.38633 33 16.5C33 25.6137 25.6137 33 16.5 33C7.38633 33 0 25.6137 0 16.5ZM18.5625 6.1875C18.5625 5.04668 17.6408 4.125 16.5 4.125C15.3592 4.125 14.4375 5.04668 14.4375 6.1875C14.4375 7.32832 15.3592 8.25 16.5 8.25C17.6408 8.25 18.5625 7.32832 18.5625 6.1875ZM16.5 26.8125C18.7752 26.8125 20.625 24.9627 20.625 22.6875C20.625 21.6434 20.2383 20.683 19.5938 19.9611L24.0732 11.0086C24.4535 10.2416 24.1441 9.31348 23.3836 8.9332C22.623 8.55293 21.6885 8.8623 21.3082 9.62285L16.8287 18.5754C16.7191 18.5689 16.6096 18.5625 16.5 18.5625C14.2248 18.5625 12.375 20.4123 12.375 22.6875C12.375 24.9627 14.2248 26.8125 16.5 26.8125ZM11.3438 9.28125C11.3438 8.14043 10.4221 7.21875 9.28125 7.21875C8.14043 7.21875 7.21875 8.14043 7.21875 9.28125C7.21875 10.4221 8.14043 11.3438 9.28125 11.3438C10.4221 11.3438 11.3438 10.4221 11.3438 9.28125ZM6.1875 18.5625C7.32832 18.5625 8.25 17.6408 8.25 16.5C8.25 15.3592 7.32832 14.4375 6.1875 14.4375C5.04668 14.4375 4.125 15.3592 4.125 16.5C4.125 17.6408 5.04668 18.5625 6.1875 18.5625ZM28.875 16.5C28.875 15.3592 27.9533 14.4375 26.8125 14.4375C25.6717 14.4375 24.75 15.3592 24.75 16.5C24.75 17.6408 25.6717 18.5625 26.8125 18.5625C27.9533 18.5625 28.875 17.6408 28.875 16.5Z" fill="#F9F9F9"/>
</svg>
