<svg width="25" height="33" viewBox="0 0 25 33" fill="none" xmlns="http://www.w3.org/2000/svg">
<path d="M2.0625 0C0.92168 0 0 0.92168 0 2.0625C0 3.20332 0.92168 4.125 2.0625 4.125V4.83398C2.0625 7.5668 3.15176 10.19 5.08535 12.1236L9.46172 16.5L5.08535 20.8764C3.15176 22.81 2.0625 25.4332 2.0625 28.166V28.875C0.92168 28.875 0 29.7967 0 30.9375C0 32.0783 0.92168 33 2.0625 33H22.6875C23.8283 33 24.75 32.0783 24.75 30.9375C24.75 29.7967 23.8283 28.875 22.6875 28.875V28.166C22.6875 25.4332 21.5982 22.81 19.6646 20.8764L15.2883 16.5L19.6646 12.1236C21.5982 10.19 22.6875 7.5668 22.6875 4.83398V4.125C23.8283 4.125 24.75 3.20332 24.75 2.0625C24.75 0.92168 23.8283 0 22.6875 0H2.0625ZM6.1875 4.83398V4.125H18.5625V4.83398C18.5625 6.05859 18.2016 7.24453 17.5312 8.25H7.21875C6.55488 7.24453 6.1875 6.05859 6.1875 4.83398ZM7.21875 24.75C7.44434 24.4084 7.70859 24.0861 7.99863 23.7896L12.375 19.4133L16.7514 23.7896C17.0479 24.0861 17.3057 24.4084 17.5377 24.75H7.21875Z" fill="#F9F9F9"/>
</svg>
