<svg width="46" height="48" viewBox="0 0 46 48" fill="none" xmlns="http://www.w3.org/2000/svg">
<path d="M22.6143 0C23.048 0 23.4816 0.0942657 23.8775 0.27337L41.6371 7.80518C43.711 8.68185 45.2569 10.7274 45.2475 13.1972C45.2004 22.5483 41.3543 39.6575 25.1124 47.4344C23.5381 48.1885 21.7094 48.1885 20.1352 47.4344C3.88378 39.6575 0.0471756 22.5483 4.28766e-05 13.1972C-0.00938367 10.7274 1.53657 8.68185 3.61041 7.80518L21.3606 0.27337C21.7565 0.0942657 22.1807 0 22.6143 0ZM22.6143 6.29694V41.9387C35.623 35.6418 39.1202 21.6905 39.2051 13.3386L22.6143 6.30636V6.29694Z" fill="#F9F9F9"/>
</svg>
