<svg width="337" height="253" viewBox="0 0 337 253" fill="none" xmlns="http://www.w3.org/2000/svg">
<path d="M104.666 -14.4384H27.459V112.979H104.666V-14.4384Z" fill="#E0E0E0"/>
<path d="M102.098 -14.4384H24.8916V112.979H102.098V-14.4384Z" fill="#EBEBEB"/>
<path d="M98.8091 -11.8579H28.1807V110.392H98.8091V-11.8579Z" fill="white"/>
<path d="M85.0595 4.0282H41.627V94.5063H85.0595V4.0282Z" fill="#EBEBEB"/>
<path d="M41.627 62.472C41.5259 54.0182 49.1488 45.7661 57.5401 44.5834C61.5437 44.0256 65.7966 44.8186 69.5373 43.2864C76.2099 40.5581 78.3397 31.7146 85.0393 29.087L85.3493 94.4861H41.627V62.472Z" fill="#E0E0E0"/>
<path d="M306.569 -20.2243V49.8922H205.563L201.924 -19.7337L306.569 -20.2243Z" fill="#E0E0E0"/>
<path d="M201.931 -19.7338V49.7443L302.936 49.7443V-19.7338H201.931Z" fill="white"/>
<path d="M303.408 50.2215H201.445V-20.184H303.408V50.2215ZM202.409 49.2672H302.451V-19.2768H202.409V49.2672Z" fill="#E0E0E0"/>
<path d="M291.991 -11.0986H212.863V41.1158H291.991V-11.0986Z" fill="white"/>
<path d="M291.991 -11.0985H291.6H290.474H286.134L269.823 -11.038L212.863 -10.9238L213.092 -11.1523C213.092 4.80099 213.092 22.4477 213.092 41.0554L212.843 40.8068L291.97 40.8538L291.775 41.0554C291.815 25.1626 291.849 12.1594 291.876 3.06051C291.876 -1.46877 291.917 -5.00349 291.93 -7.44285C291.93 -8.63901 291.93 -9.55965 291.93 -10.2048C291.93 -10.8297 291.93 -11.159 291.93 -11.159C291.93 -11.159 291.93 -10.8566 291.93 -10.2451C291.93 -9.63357 291.93 -8.70621 291.93 -7.55709C291.93 -5.13789 291.93 -1.60989 291.977 2.90595C291.977 12.0048 292.038 25.082 292.085 41.0218V41.2167H291.883L212.755 41.2704H212.506V41.0218C212.506 22.441 212.506 4.76739 212.506 -11.1859V-11.4144H212.728L269.843 -11.3001L286.093 -11.2396H290.393H291.492C291.661 -11.2049 291.828 -11.1577 291.991 -11.0985Z" fill="#E0E0E0"/>
<path d="M302.848 49.7578L291.586 40.6522L302.848 49.7578Z" fill="white"/>
<path d="M291.586 40.6522C291.674 40.5514 294.282 42.5002 297.376 45.0135C300.469 47.5267 302.936 49.6503 302.848 49.7578C302.761 49.8653 300.152 47.9098 297.066 45.3965C293.979 42.8832 291.505 40.7597 291.586 40.6522Z" fill="#E0E0E0"/>
<path d="M201.924 49.7443C201.843 49.6368 204.195 47.6409 207.188 45.2822C210.18 42.9235 212.667 41.1024 212.755 41.2099C212.843 41.3174 210.484 43.3133 207.498 45.672C204.512 48.0307 202.012 49.8518 201.924 49.7443Z" fill="#E0E0E0"/>
<path d="M228.932 5.16386V22.6493L278.72 22.6493V5.16386L228.932 5.16386Z" fill="#E0E0E0"/>
<path d="M153.376 212.718C153.376 209.674 155.715 207.469 158.862 207.469C159.621 207.442 160.376 207.581 161.074 207.875C161.773 208.17 162.398 208.614 162.906 209.176L161.686 210.312C161.343 209.929 160.921 209.623 160.449 209.417C159.977 209.21 159.465 209.108 158.95 209.116C158.464 209.095 157.978 209.172 157.523 209.343C157.068 209.514 156.652 209.776 156.3 210.111C155.949 210.447 155.669 210.85 155.478 211.296C155.287 211.742 155.188 212.223 155.188 212.708C155.188 213.193 155.287 213.673 155.478 214.119C155.669 214.566 155.949 214.969 156.3 215.304C156.652 215.64 157.068 215.901 157.523 216.072C157.978 216.243 158.464 216.321 158.95 216.3C159.467 216.308 159.981 216.204 160.453 215.994C160.926 215.784 161.347 215.473 161.686 215.083L162.92 216.253C162.411 216.814 161.786 217.257 161.087 217.552C160.389 217.847 159.634 217.986 158.876 217.959C155.695 217.973 153.376 215.769 153.376 212.718Z" fill="#EBEBEB"/>
<path d="M142.976 220.721H130.277V208.061H142.976V220.721ZM130.951 220.049H142.302V208.733H130.951V220.049Z" fill="#EBEBEB"/>
<path d="M127.858 223.356C127.48 223.073 130.513 218.531 135.184 213.712C139.855 208.894 144.29 205.695 144.62 206.058C144.95 206.421 141.068 210.171 136.478 214.929C131.888 219.686 128.249 223.665 127.858 223.356Z" fill="#E0E0E0"/>
<path d="M144.796 223.08C144.385 223.376 140.921 219.176 136.344 214.304C131.768 209.432 127.805 205.695 128.121 205.306C128.438 204.916 132.967 208.128 137.625 213.108C142.282 218.087 145.18 222.838 144.796 223.08Z" fill="#E0E0E0"/>
<path d="M57.9642 171.423L51.7297 170.98L50.2941 173.775L47.9014 173.607L54.4055 161.558L56.6836 161.72L61.4016 174.562L58.9752 174.394L57.9642 171.423ZM57.3306 169.555L55.3693 163.944L52.6733 169.219L57.3306 169.555Z" fill="#EBEBEB"/>
<path d="M37.6031 174.286L22.2764 173.204L23.3682 157.896L38.6883 158.985L37.6031 174.286ZM22.9975 172.579L36.9763 173.574L37.9671 159.63L23.9883 158.642L22.9975 172.579Z" fill="#EBEBEB"/>
<path d="M19.0206 176.268C18.6702 175.966 22.8153 170.758 28.915 165.301C35.0147 159.845 40.6358 156.263 40.9054 156.639C41.175 157.016 36.0998 161.196 30.1214 166.598C24.143 172.001 19.3913 176.604 19.0206 176.268Z" fill="#E0E0E0"/>
<path d="M39.6789 177.424C39.2475 177.693 35.4597 172.216 30.2901 165.879C25.1205 159.542 20.5575 154.697 20.8945 154.328C21.2315 153.958 26.4078 158.319 31.6785 164.777C36.9492 171.235 40.0766 177.189 39.6789 177.424Z" fill="#E0E0E0"/>
<path d="M316.544 104.949C317.131 107.005 315.87 108.665 312.756 109.539L306.771 111.226L303.401 99.2237L309.043 97.6311C311.927 96.818 313.821 97.6311 314.361 99.4992C314.533 100.035 314.55 100.608 314.409 101.153C314.269 101.698 313.976 102.191 313.565 102.577C314.257 102.58 314.928 102.816 315.468 103.247C316.009 103.677 316.388 104.277 316.544 104.949ZM306.097 100.339L307.041 103.652L310.202 102.758C311.752 102.322 312.473 101.522 312.163 100.427C311.853 99.3312 310.815 99.0087 309.265 99.4455L306.097 100.339ZM314.233 105.359C313.889 104.163 312.824 103.887 311.139 104.365L307.533 105.386L308.51 108.847L312.123 107.825C313.808 107.348 314.57 106.562 314.233 105.359Z" fill="#EBEBEB"/>
<path d="M280.829 120.015L276.644 105.278L291.424 101.105L295.61 115.842L280.829 120.015ZM277.459 105.742L281.274 119.182L294.754 115.372L290.932 101.932L277.459 105.742Z" fill="#EBEBEB"/>
<path d="M278.814 124.007C278.375 123.832 280.499 117.536 284.374 110.332C288.25 103.128 292.32 97.8596 292.698 98.1284C293.075 98.3972 289.732 104.035 285.958 111.158C282.184 118.282 279.272 124.195 278.814 124.007Z" fill="#E0E0E0"/>
<path d="M298.637 118.087C298.32 118.483 292.894 114.619 285.871 110.412C278.848 106.206 272.903 103.188 273.106 102.725C273.308 102.261 279.657 104.613 286.774 108.914C293.892 113.215 298.933 117.731 298.637 118.087Z" fill="#E0E0E0"/>
<path d="M314.926 250.632C314.926 250.726 248.773 250.807 167.199 250.807C85.6245 250.807 19.4512 250.692 19.4512 250.632C19.4512 250.572 85.5908 250.457 167.199 250.457C248.807 250.457 314.926 250.498 314.926 250.632Z" fill="black"/>
<path d="M228.082 12.8986H54.9922V187.968H228.082V12.8986Z" fill="white"/>
<path d="M228.082 187.968C228.082 187.968 228.082 187.887 228.082 187.753C228.082 187.619 228.082 187.404 228.082 187.135C228.082 186.59 228.082 185.791 228.082 184.716C228.082 182.579 228.082 179.427 228.048 175.308C228.048 167.082 228.001 155.027 227.967 139.692C227.934 109.069 227.88 65.3347 227.812 12.8986L228.116 13.201L55.0458 13.248L55.3963 12.8986C55.3963 77.0544 55.3963 137.151 55.3491 187.961L55.0458 187.666L180.45 187.813L215.64 187.894L224.928 187.928H227.32H227.927H228.136H227.354H224.995L215.761 187.961L180.646 188.042L55.0458 188.19H54.7425V187.887C54.7425 137.077 54.7425 77.0074 54.6953 12.8247V12.4752H55.066L228.136 12.5223H228.446V12.8247C228.378 65.3415 228.324 109.136 228.291 139.833C228.25 155.141 228.223 167.17 228.21 175.381C228.21 179.467 228.21 182.605 228.169 184.729C228.169 185.777 228.169 186.577 228.169 187.115V187.713C228.15 187.801 228.121 187.887 228.082 187.968Z" fill="#263238"/>
<path d="M68.5801 41.4518V46.0954H67.7106V42.1776H66.7266V41.4518H68.5801Z" fill="black"/>
<path d="M69.4766 45.5914C69.4766 45.5199 69.4907 45.4491 69.5181 45.3831C69.5456 45.317 69.5858 45.257 69.6365 45.2065C69.6872 45.1559 69.7473 45.1158 69.8136 45.0885C69.8798 45.0611 69.9508 45.0471 70.0225 45.0471C70.0942 45.0471 70.1652 45.0611 70.2314 45.0885C70.2977 45.1158 70.3578 45.1559 70.4085 45.2065C70.4592 45.257 70.4994 45.317 70.5269 45.3831C70.5543 45.4491 70.5684 45.5199 70.5684 45.5914C70.5684 45.6629 70.5543 45.7336 70.5269 45.7997C70.4994 45.8657 70.4592 45.9257 70.4085 45.9763C70.3578 46.0268 70.2977 46.0669 70.2314 46.0943C70.1652 46.1216 70.0942 46.1357 70.0225 46.1357C69.9508 46.1357 69.8798 46.1216 69.8136 46.0943C69.7473 46.0669 69.6872 46.0268 69.6365 45.9763C69.5858 45.9257 69.5456 45.8657 69.5181 45.7997C69.4907 45.7336 69.4766 45.6629 69.4766 45.5914Z" fill="black"/>
<path d="M126.618 22.6829C126.595 22.1843 126.722 21.6902 126.984 21.2644C127.245 20.8385 127.628 20.5004 128.084 20.2936C128.539 20.0867 129.047 20.0206 129.54 20.1038C130.034 20.187 130.491 20.4156 130.853 20.7602C131.216 21.1048 131.466 21.5497 131.573 22.0374C131.679 22.5252 131.636 23.0336 131.45 23.4971C131.265 23.9605 130.944 24.3579 130.529 24.638C130.115 24.9181 129.626 25.068 129.125 25.0685C128.801 25.085 128.477 25.0354 128.173 24.9228C127.869 24.8102 127.591 24.637 127.357 24.4137C127.122 24.1904 126.935 23.9218 126.808 23.6242C126.681 23.3266 126.617 23.0063 126.618 22.6829ZM130.763 22.6829C130.763 22.36 130.667 22.0442 130.487 21.7757C130.307 21.5072 130.051 21.2979 129.752 21.1743C129.453 21.0507 129.123 21.0183 128.806 21.0813C128.488 21.1444 128.196 21.2999 127.967 21.5283C127.738 21.7566 127.582 22.0476 127.519 22.3644C127.456 22.6811 127.488 23.0094 127.612 23.3078C127.736 23.6062 127.946 23.8613 128.215 24.0407C128.485 24.2201 128.801 24.3159 129.125 24.3159C129.341 24.3215 129.557 24.283 129.757 24.2028C129.958 24.1226 130.141 24.0025 130.293 23.8496C130.446 23.6967 130.566 23.5144 130.645 23.3138C130.725 23.1132 130.763 22.8986 130.756 22.6829H130.763Z" fill="black"/>
<path d="M136.687 20.3645V25.008H135.979L133.412 21.8631V25.008H132.549V20.3645H133.263L135.831 23.496V20.3645H136.687Z" fill="black"/>
<path d="M137.941 20.3645H138.804V24.2755H141.244V25.008H137.941V20.3645Z" fill="black"/>
<path d="M141.925 20.3645H142.788V25.008H141.925V20.3645Z" fill="black"/>
<path d="M148.186 20.3645V25.008H147.472L144.911 21.8631V25.008H144.055V20.3645H144.769L147.33 23.496V20.3645H148.186Z" fill="black"/>
<path d="M152.931 24.2823V25.008H149.433V20.3645H152.803V21.0835H150.302V22.2931H152.553V22.9987H150.302V24.2823H152.931Z" fill="black"/>
<path d="M156.671 21.0903H155.128V20.3645H159.064V21.0903H157.521V25.008H156.651L156.671 21.0903Z" fill="black"/>
<path d="M163.23 24.2823V25.008H159.738V20.3645H163.108V21.0835H160.574V22.2931H162.818V22.9987H160.574V24.2823H163.23Z" fill="black"/>
<path d="M163.782 24.5175L164.086 23.8455C164.53 24.1748 165.068 24.3538 165.622 24.3562C166.35 24.3562 166.653 24.0941 166.653 23.7514C166.653 22.7501 163.883 23.4087 163.883 21.6816C163.883 20.929 164.483 20.2973 165.764 20.2973C166.309 20.2873 166.846 20.4293 167.314 20.7072L167.038 21.3792C166.651 21.1452 166.209 21.0176 165.757 21.0096C165.036 21.0096 164.746 21.2919 164.746 21.6413C164.746 22.6292 167.503 21.984 167.503 23.6909C167.503 24.4368 166.896 25.0349 165.622 25.0349C164.969 25.0647 164.324 24.8832 163.782 24.5175Z" fill="black"/>
<path d="M169.255 21.0903H167.712V20.3645H171.662V21.0903H170.118V25.008H169.255V21.0903Z" fill="black"/>
<path d="M90.1478 61.8538H87.8158L87.3575 62.929H86.4678L88.5639 58.2855H89.4132L91.516 62.929H90.6129L90.1478 61.8538ZM89.858 61.1818L88.9818 59.1658L88.1123 61.1818H89.858Z" fill="black"/>
<path d="M66.6723 25.0013C67.7183 25.0013 68.5662 24.1559 68.5662 23.113C68.5662 22.0701 67.7183 21.2247 66.6723 21.2247C65.6263 21.2247 64.7783 22.0701 64.7783 23.113C64.7783 24.1559 65.6263 25.0013 66.6723 25.0013Z" fill="black"/>
<path d="M72.4076 25.0013C73.4536 25.0013 74.3015 24.1559 74.3015 23.113C74.3015 22.0701 73.4536 21.2247 72.4076 21.2247C71.3616 21.2247 70.5137 22.0701 70.5137 23.113C70.5137 24.1559 71.3616 25.0013 72.4076 25.0013Z" fill="black"/>
<path d="M78.1439 25.0013C79.1899 25.0013 80.0379 24.1559 80.0379 23.113C80.0379 22.0701 79.1899 21.2247 78.1439 21.2247C77.0979 21.2247 76.25 22.0701 76.25 23.113C76.25 24.1559 77.0979 25.0013 78.1439 25.0013Z" fill="black"/>
<path d="M228.082 32.4538C228.082 32.5479 189.529 32.6285 141.978 32.6285C94.4277 32.6285 55.8682 32.5479 55.8682 32.4538C55.8682 32.3597 94.4142 32.2791 141.978 32.2791C189.543 32.2791 228.082 32.3597 228.082 32.4538Z" fill="black"/>
<path d="M209.156 45.4368C209.156 45.5309 179.143 45.6115 142.127 45.6115C105.111 45.6115 75.084 45.5309 75.084 45.4368C75.084 45.3427 105.097 45.2621 142.127 45.2621C179.156 45.2621 209.156 45.336 209.156 45.4368Z" fill="black"/>
<path d="M126.82 49.9795C126.82 50.0736 115.362 50.1543 101.208 50.1543C87.0541 50.1543 75.5557 50.0736 75.5557 49.9795C75.5557 49.8855 87.0137 49.8048 101.208 49.8048C115.403 49.8048 126.82 49.8787 126.82 49.9795Z" fill="black"/>
<path d="M82.9019 63.6615H76.7617V57.5396H82.9019V63.6615ZM77.4357 62.9895H82.2279V58.2116H77.4357V62.9895Z" fill="black"/>
<path d="M91.2331 73.2912C91.2331 74.0842 90.6063 74.5479 89.4065 74.5479H87.0947V69.9044H89.2717C90.3906 69.9044 90.9904 70.3748 90.9904 71.114C90.9974 71.3233 90.9448 71.5304 90.8387 71.7112C90.7325 71.8919 90.5771 72.039 90.3906 72.1354C90.6413 72.205 90.861 72.357 91.0139 72.5669C91.1669 72.7767 91.2441 73.0321 91.2331 73.2912ZM87.9574 70.6032V71.88H89.1841C89.7773 71.88 90.121 71.6717 90.121 71.2484C90.121 70.825 89.7773 70.5764 89.1841 70.5764L87.9574 70.6032ZM90.3569 73.224C90.3569 72.7604 90.0064 72.552 89.3526 72.552H87.9574V73.896H89.3526C90.0064 73.896 90.3569 73.6676 90.3569 73.224Z" fill="black"/>
<path d="M82.9019 75.2871H76.7617V69.192H82.9019V75.2871ZM77.4357 74.6151H82.2279V69.864H77.4357V74.6151Z" fill="black"/>
<path d="M86.7578 83.8483C86.782 83.3574 86.95 82.8843 87.241 82.4876C87.532 82.091 87.9333 81.7881 88.3953 81.6164C88.8572 81.4448 89.3595 81.412 89.8399 81.522C90.3203 81.632 90.7579 81.8801 91.0984 82.2355L90.539 82.7597C90.3821 82.5855 90.1897 82.4467 89.9746 82.3529C89.7596 82.259 89.5268 82.2121 89.292 82.2154C88.8577 82.2154 88.4411 82.3874 88.1339 82.6936C87.8268 82.9999 87.6542 83.4152 87.6542 83.8483C87.6542 84.2814 87.8268 84.6968 88.1339 85.003C88.4411 85.3092 88.8577 85.4813 89.292 85.4813C89.5275 85.4846 89.7608 85.4371 89.976 85.3419C90.1913 85.2468 90.3833 85.1064 90.539 84.9302L91.0984 85.4611C90.7579 85.8165 90.3203 86.0646 89.8399 86.1746C89.3595 86.2847 88.8572 86.2518 88.3953 86.0802C87.9333 85.9086 87.532 85.6057 87.241 85.209C86.95 84.8123 86.782 84.3392 86.7578 83.8483Z" fill="black"/>
<path d="M82.9019 86.9059H76.7617V80.784H82.9019V86.9059ZM77.4357 86.2339H82.2279V81.456H77.4357V86.2339Z" fill="black"/>
<path d="M87.0947 93.1488H89.1167C90.6265 93.1488 91.6577 94.0762 91.6577 95.4672C91.6577 96.8583 90.6265 97.7923 89.1167 97.7923H87.0947V93.1488ZM89.1167 97.0598C89.3348 97.074 89.5534 97.0434 89.7591 96.9699C89.9648 96.8964 90.1532 96.7817 90.3127 96.6327C90.4721 96.4837 90.5992 96.3038 90.6861 96.1039C90.773 95.904 90.8178 95.6884 90.8178 95.4706C90.8178 95.2527 90.773 95.0372 90.6861 94.8373C90.5992 94.6374 90.4721 94.4574 90.3127 94.3084C90.1532 94.1595 89.9648 94.0447 89.7591 93.9712C89.5534 93.8978 89.3348 93.8671 89.1167 93.8813H87.9574V97.0598H89.1167Z" fill="black"/>
<path d="M82.9019 98.5315H76.7617V92.4096H82.9019V98.5315ZM77.4357 97.8595H82.2279V93.0816H77.4357V97.8595Z" fill="black"/>
<path d="M142.12 60.6039C142.12 60.6979 132.01 60.7786 119.5 60.7786C106.991 60.7786 96.874 60.6979 96.874 60.6039C96.874 60.5098 106.984 60.4291 119.5 60.4291C132.016 60.4291 142.12 60.5031 142.12 60.6039Z" fill="black"/>
<path d="M204.397 72.2228C204.397 72.3236 180.322 72.3975 150.639 72.3975C120.956 72.3975 96.874 72.3236 96.874 72.2228C96.874 72.122 120.943 72.048 150.639 72.048C180.335 72.048 204.397 72.1287 204.397 72.2228Z" fill="black"/>
<path d="M111.669 95.4672C111.669 95.5613 108.359 95.6419 104.255 95.6419C100.15 95.6419 96.8408 95.5613 96.8408 95.4672C96.8408 95.3731 100.15 95.2925 104.255 95.2925C108.359 95.2925 111.669 95.4 111.669 95.4672Z" fill="black"/>
<path d="M150.632 83.8484C150.632 83.9424 138.601 84.0231 123.753 84.0231C108.905 84.0231 96.874 83.9424 96.874 83.8484C96.874 83.7543 108.905 83.6736 123.753 83.6736C138.601 83.6736 150.632 83.7476 150.632 83.8484Z" fill="black"/>
<path d="M68.7484 112.012V112.738H65.311V112.16L67.1645 110.412C67.6161 109.982 67.6969 109.707 67.6969 109.452C67.6969 109.021 67.4004 108.78 66.8275 108.78C66.6211 108.769 66.4152 108.807 66.2266 108.891C66.038 108.975 65.872 109.103 65.7423 109.263L65.1357 108.8C65.3494 108.543 65.6203 108.339 65.9269 108.205C66.2335 108.071 66.5673 108.01 66.9016 108.027C67.9126 108.027 68.5664 108.538 68.5664 109.371C68.5591 109.657 68.4861 109.938 68.3529 110.192C68.2197 110.446 68.0299 110.666 67.798 110.836L66.5511 112.019L68.7484 112.012Z" fill="black"/>
<path d="M69.2539 112.234C69.2539 112.089 69.3114 111.951 69.4138 111.849C69.5162 111.747 69.6551 111.689 69.7998 111.689C69.9446 111.689 70.0835 111.747 70.1859 111.849C70.2883 111.951 70.3458 112.089 70.3458 112.234C70.3458 112.378 70.2883 112.516 70.1859 112.619C70.0835 112.721 69.9446 112.778 69.7998 112.778C69.6551 112.778 69.5162 112.721 69.4138 112.619C69.3114 112.516 69.2539 112.378 69.2539 112.234Z" fill="black"/>
<path d="M88.517 128.496H86.1917L85.7333 129.571H84.8369L86.933 124.928H87.789L89.8919 129.571H88.9685L88.517 128.496ZM88.2339 127.824L87.3577 125.808L86.4815 127.824H88.2339Z" fill="black"/>
<path d="M207.524 112.079C207.524 112.173 177.511 112.254 140.495 112.254C103.479 112.254 73.4658 112.2 73.4658 112.079C73.4658 111.958 103.472 111.904 140.502 111.904C177.531 111.904 207.524 111.985 207.524 112.079Z" fill="black"/>
<path d="M125.196 116.622C125.196 116.716 113.738 116.796 99.5431 116.796C85.3486 116.796 73.8906 116.716 73.8906 116.622C73.8906 116.528 85.3486 116.447 99.5431 116.447C113.738 116.447 125.196 116.521 125.196 116.622Z" fill="black"/>
<path d="M81.2446 130.344H75.1045V124.222H81.2446V130.344ZM75.7785 129.672H80.5706V124.894H75.7785V129.672Z" fill="black"/>
<path d="M89.6022 139.933C89.6022 140.726 88.9754 141.19 87.7824 141.19H85.4639V136.547H87.6207C88.7395 136.547 89.3394 137.017 89.3394 137.756C89.3448 137.965 89.2915 138.172 89.1855 138.352C89.0795 138.533 88.925 138.68 88.7395 138.778C88.9946 138.842 89.2196 138.992 89.3767 139.203C89.5338 139.413 89.6134 139.671 89.6022 139.933ZM86.3333 137.245V138.529H87.5533C88.1531 138.529 88.4901 138.314 88.4901 137.891C88.4901 137.467 88.1531 137.219 87.5533 137.219L86.3333 137.245ZM88.7328 139.866C88.7328 139.403 88.3823 139.194 87.7285 139.194H86.3333V140.538H87.7285C88.3823 140.518 88.7328 140.31 88.7328 139.846V139.866Z" fill="black"/>
<path d="M81.2446 141.929H75.1045V135.807H81.2446V141.929ZM75.7785 141.257H80.5706V136.479H75.7785V141.257Z" fill="black"/>
<path d="M85.1329 150.504C85.1297 150.181 85.1929 149.861 85.3184 149.564C85.4439 149.266 85.6291 148.997 85.8628 148.774C86.0964 148.55 86.3734 148.377 86.6767 148.264C86.9801 148.152 87.3034 148.102 87.6267 148.118C87.9716 148.104 88.3153 148.166 88.6333 148.3C88.9514 148.433 89.236 148.635 89.4668 148.891L88.9141 149.415C88.7567 149.242 88.5642 149.104 88.3492 149.01C88.1343 148.916 87.9018 148.869 87.6672 148.871C87.2328 148.871 86.8162 149.043 86.5091 149.349C86.2019 149.656 86.0293 150.071 86.0293 150.504C86.0293 150.937 86.2019 151.352 86.5091 151.659C86.8162 151.965 87.2328 152.137 87.6672 152.137C87.9025 152.14 88.1357 152.092 88.3509 151.997C88.5661 151.902 88.7581 151.762 88.9141 151.586L89.4668 152.117C89.1272 152.473 88.69 152.722 88.2097 152.833C87.7294 152.943 87.2271 152.91 86.7652 152.738C86.3034 152.567 85.9024 152.263 85.6122 151.866C85.322 151.469 85.1553 150.995 85.1329 150.504Z" fill="black"/>
<path d="M81.2446 153.548H75.1045V147.426H81.2446V153.548ZM75.7785 152.876H80.5706V148.098H75.7785V152.876Z" fill="black"/>
<path d="M85.4639 159.791H87.4859C88.9956 159.791 90.0269 160.718 90.0269 162.116C90.0269 163.514 88.9956 164.435 87.4859 164.435H85.4639V159.791ZM87.4859 163.709C87.708 163.729 87.9319 163.703 88.1433 163.632C88.3548 163.562 88.5491 163.448 88.7139 163.298C88.8786 163.148 89.0103 162.965 89.1003 162.762C89.1904 162.559 89.2369 162.339 89.2369 162.116C89.2369 161.894 89.1904 161.674 89.1003 161.47C89.0103 161.267 88.8786 161.085 88.7139 160.935C88.5491 160.785 88.3548 160.671 88.1433 160.6C87.9319 160.529 87.708 160.503 87.4859 160.524H86.3603V163.709H87.4859Z" fill="black"/>
<path d="M81.2446 165.174H75.1045V159.052H81.2446V165.174ZM75.7785 164.502H80.5706V159.724H75.7785V164.502Z" fill="black"/>
<path d="M140.496 127.246C140.496 127.34 130.386 127.421 117.869 127.421C105.353 127.421 95.2432 127.34 95.2432 127.246C95.2432 127.152 105.353 127.071 117.869 127.071C130.386 127.071 140.496 127.152 140.496 127.246Z" fill="black"/>
<path d="M202.766 138.865C202.766 138.966 178.698 139.04 149.008 139.04C119.318 139.04 95.2432 138.966 95.2432 138.865C95.2432 138.764 119.312 138.69 149.008 138.69C178.705 138.69 202.766 138.771 202.766 138.865Z" fill="black"/>
<path d="M110.044 162.109C110.044 162.21 106.728 162.284 102.63 162.284C98.5319 162.284 95.2158 162.21 95.2158 162.109C95.2158 162.009 98.5319 161.935 102.63 161.935C106.728 161.935 110.044 162.015 110.044 162.109Z" fill="black"/>
<path d="M149.008 150.504C149.008 150.598 136.971 150.679 122.129 150.679C107.288 150.679 95.2432 150.598 95.2432 150.504C95.2432 150.41 107.281 150.329 122.129 150.329C136.977 150.329 149.008 150.39 149.008 150.504Z" fill="black"/>
<path d="M192.535 178.056H164.786C163.668 178.056 162.56 177.836 161.527 177.409C160.494 176.982 159.555 176.357 158.764 175.568C157.974 174.779 157.347 173.842 156.919 172.812C156.492 171.781 156.273 170.677 156.273 169.562C156.273 167.311 157.17 165.152 158.767 163.56C160.363 161.969 162.528 161.075 164.786 161.075H192.535C194.792 161.075 196.958 161.969 198.554 163.56C200.15 165.152 201.047 167.311 201.047 169.562C201.048 170.677 200.829 171.781 200.401 172.812C199.974 173.842 199.347 174.779 198.556 175.568C197.766 176.357 196.827 176.982 195.794 177.409C194.761 177.836 193.653 178.056 192.535 178.056Z" fill="#6F0000"/>
<path d="M171.716 167.546V172.163H170.833L168.501 169.36V172.163H167.442V167.546H168.325L170.624 170.348V167.546H171.716Z" fill="white"/>
<path d="M176.392 171.336V172.196H172.807V167.58H176.305V168.44H173.892V169.441H176.042V170.268H173.892V171.336H176.392Z" fill="white"/>
<path d="M180.113 172.163L178.994 170.563L177.896 172.163H176.669L178.381 169.817L176.757 167.546H177.97L179.035 169.044L180.079 167.546H181.239L179.621 169.777L181.353 172.163H180.113Z" fill="white"/>
<path d="M182.655 168.42H181.172V167.546H185.216V168.42H183.733V172.163H182.655V168.42Z" fill="white"/>
<path d="M191.073 171.813C191.016 171.812 190.961 171.798 190.912 171.771C190.863 171.744 190.821 171.705 190.79 171.659C190.741 171.584 190.723 171.494 190.741 171.407C190.759 171.321 190.81 171.244 190.884 171.195L193.034 169.764C193.068 169.742 193.096 169.713 193.115 169.677C193.134 169.642 193.143 169.602 193.142 169.562C193.142 169.521 193.131 169.481 193.111 169.446C193.091 169.411 193.062 169.381 193.027 169.36L190.898 168.104C190.822 168.057 190.768 167.984 190.747 167.898C190.726 167.812 190.739 167.722 190.785 167.646C190.83 167.571 190.903 167.515 190.988 167.493C191.074 167.47 191.164 167.482 191.241 167.526L193.371 168.776C193.504 168.855 193.615 168.967 193.693 169.101C193.771 169.235 193.814 169.386 193.818 169.541C193.822 169.696 193.787 169.849 193.716 169.986C193.645 170.124 193.54 170.241 193.412 170.328L191.261 171.753C191.206 171.791 191.14 171.812 191.073 171.813Z" fill="white"/>
<path d="M76.0002 75.1796C75.798 74.978 77.0988 73.345 78.9119 71.5306C80.7249 69.7162 82.3628 68.426 82.5717 68.6276C82.7806 68.8292 81.4731 70.4688 79.66 72.2765C77.847 74.0842 76.2091 75.3879 76.0002 75.1796Z" fill="#6F0000"/>
<path d="M83.6908 75.818C83.4886 76.0263 81.743 74.6151 79.7951 72.673C77.8472 70.7309 76.4251 68.9971 76.6408 68.7888C76.8565 68.5805 78.5954 69.9917 80.5365 71.9338C82.4776 73.8759 83.8998 75.6164 83.6908 75.818Z" fill="#6F0000"/>
<path d="M74.5249 130.64C74.3159 130.431 75.6235 128.798 77.4365 126.991C79.2496 125.183 80.8874 123.886 81.0964 124.088C81.3053 124.289 79.9977 125.922 78.1779 127.737C76.3581 129.551 74.7271 130.841 74.5249 130.64Z" fill="#6F0000"/>
<path d="M82.2279 131.278C82.019 131.48 80.2801 130.075 78.3322 128.133C76.3843 126.191 74.9622 124.451 75.1779 124.249C75.3936 124.047 77.1257 125.452 79.0736 127.394C81.0215 129.336 82.4166 131.07 82.2279 131.278Z" fill="#6F0000"/>
<path d="M205.246 267.123L157.924 251.976C157.798 251.937 157.666 251.921 157.534 251.929L121.138 254.617C114.741 239.161 106.727 219.841 103.081 211.018C102.474 209.571 101.495 208.31 100.243 207.36C98.991 206.41 97.5105 205.806 95.9502 205.608L56.5347 200.474C56.066 200.417 55.5906 200.484 55.1561 200.668C54.7215 200.852 54.3431 201.147 54.0585 201.522C53.7739 201.898 53.5933 202.341 53.5346 202.808C53.4759 203.275 53.5412 203.749 53.7241 204.183L75.9189 255.786C76.2127 256.471 76.646 257.087 77.1913 257.596C77.7366 258.105 78.3821 258.496 79.0867 258.743L124.171 276.679C125.201 277.088 126.317 277.236 127.419 277.109L130.304 276.793C140.293 275.751 189.616 270.745 205.044 269.132C205.288 269.12 205.52 269.02 205.697 268.852C205.875 268.683 205.986 268.457 206.01 268.214C206.035 267.971 205.971 267.728 205.831 267.527C205.691 267.327 205.483 267.184 205.246 267.123Z" fill="#E0E0E0"/>
<path d="M205.246 267.123C205.404 267.174 205.547 267.261 205.664 267.378C205.782 267.495 205.869 267.638 205.92 267.795C205.981 267.994 205.983 268.206 205.924 268.405C205.865 268.605 205.749 268.783 205.59 268.917C205.377 269.081 205.117 269.171 204.848 269.173L203.959 269.267L192.885 270.436L152.148 274.663L138.668 276.061L131.49 276.8L127.804 277.196C126.527 277.395 125.22 277.244 124.022 276.759L93.8676 264.784L85.8133 261.579L81.7087 259.953L79.6395 259.133C79.2957 258.985 78.9655 258.864 78.5948 258.709C78.2421 258.554 77.9076 258.36 77.5973 258.132C76.9731 257.671 76.4501 257.088 76.0605 256.418C75.6831 255.746 75.4405 255.04 75.1304 254.348L73.3308 250.175C72.1221 247.38 70.9067 244.555 69.6845 241.701C64.7845 230.277 59.7026 218.504 54.506 206.421L53.7916 204.761C53.4896 204.209 53.3341 203.589 53.34 202.96C53.3788 202.32 53.6314 201.71 54.0577 201.229C54.4839 200.748 55.0593 200.423 55.6923 200.306C55.8473 200.272 56.009 200.306 56.1708 200.259L56.6359 200.293L57.5255 200.413L59.2982 200.642L62.8299 201.099L76.7682 202.92L90.3831 204.694L93.7531 205.131C94.8652 205.299 95.9772 205.373 97.1231 205.635C99.337 206.204 101.259 207.574 102.515 209.479C103.077 210.427 103.548 211.426 103.924 212.462C104.337 213.466 104.75 214.465 105.164 215.46L107.61 221.38L112.382 232.911C115.496 240.451 118.496 247.695 121.347 254.59L121.198 254.496L156.664 251.882L157.648 251.808C157.826 251.806 158.002 251.838 158.167 251.902L158.632 252.057L160.412 252.648L163.997 253.797L170.758 256.008L182.687 259.845L199.369 265.221L203.75 266.653C204.741 266.975 205.246 267.15 205.246 267.15C205.246 267.15 204.734 267.002 203.736 266.693L199.342 265.309L182.654 259.973L170.717 256.169L163.91 253.992L160.324 252.85L158.484 252.265C158.195 252.147 157.891 252.068 157.581 252.03L156.597 252.104L121.138 254.792H121.037L120.989 254.691C118.132 247.803 115.132 240.579 112.005 233.026L107.226 221.494C106.418 219.541 105.6 217.567 104.773 215.574C104.362 214.579 103.944 213.558 103.533 212.577C103.163 211.562 102.7 210.584 102.151 209.653C100.947 207.825 99.1049 206.507 96.9815 205.957C95.9301 205.702 94.7977 205.621 93.6924 205.46L90.3224 205.023L76.7008 203.256L62.7625 201.442L59.224 200.985L57.4514 200.749C56.8839 200.635 56.3033 200.599 55.726 200.642C55.1712 200.747 54.6673 201.033 54.2938 201.455C53.9203 201.878 53.6986 202.412 53.6635 202.974C53.6593 203.55 53.8057 204.117 54.0881 204.62L54.8228 206.28L69.9945 241.567C71.2212 244.416 72.4344 247.241 73.6341 250.041C74.2407 251.438 74.8339 252.829 75.4337 254.214C75.737 254.886 75.9999 255.625 76.3504 256.23C76.7137 256.859 77.205 257.407 77.7927 257.836C78.0843 258.051 78.3984 258.233 78.7296 258.38C79.0531 258.521 79.4036 258.649 79.7541 258.79L81.8232 259.617L85.9212 261.25L94.0092 264.455L124.15 276.464C125.302 276.934 126.561 277.081 127.79 276.887L131.484 276.491L138.662 275.765L152.142 274.421L192.892 270.301L203.972 269.193L204.862 269.112C205.119 269.112 205.369 269.029 205.576 268.877C205.73 268.75 205.843 268.581 205.901 268.392C205.96 268.202 205.962 267.999 205.907 267.808C205.842 267.571 205.687 267.369 205.475 267.244C205.327 267.157 205.246 267.13 205.246 267.123Z" fill="#263238"/>
<path d="M54.8701 202.342H55.1667L56.0429 202.443L59.4129 202.88L71.774 204.56C76.9908 205.285 83.232 206.159 90.1001 207.174L95.3843 207.987L96.7323 208.215C96.9547 208.249 97.1906 208.303 97.4063 208.356C97.5208 208.356 97.6422 208.403 97.7567 208.437C98.3252 208.665 98.8412 209.005 99.2732 209.438C99.4483 209.624 99.5877 209.841 99.6844 210.077L99.9472 210.749C101.356 214.257 102.812 217.892 104.308 221.608C110.266 236.493 115.651 249.973 119.561 259.744C121.495 264.616 123.059 268.568 124.151 271.309C124.676 272.653 125.087 273.729 125.377 274.468C125.512 274.817 125.613 275.086 125.687 275.288C125.726 275.379 125.757 275.474 125.782 275.57C125.734 275.483 125.691 275.393 125.654 275.301L125.31 274.488L124.023 271.363C122.91 268.621 121.327 264.69 119.305 259.832L104.018 221.736C102.522 218.02 101.066 214.384 99.6574 210.876L99.3946 210.204C99.3133 210.006 99.1969 209.824 99.0508 209.667C98.7494 209.34 98.3849 209.077 97.9792 208.894C97.8783 208.846 97.7748 208.803 97.6691 208.766L97.3456 208.686C97.1299 208.639 96.9142 208.592 96.6716 208.558L95.3236 208.323L90.0394 207.496L71.7336 204.808L59.3859 203.014L56.0159 202.517L55.1465 202.376L54.8701 202.342Z" fill="black"/>
<path d="M89.7093 233.234C91.3943 235.485 91.7313 238.072 90.4709 239.013C89.2105 239.954 86.8111 238.899 85.1261 236.648C83.4411 234.397 83.1041 231.816 84.3645 230.868C85.6248 229.921 88.0243 230.989 89.7093 233.234Z" fill="white"/>
<path d="M302.949 194.856C300.691 182.088 286.53 174.394 281.853 170.147L288.882 179.521C292.48 194.316 293.843 209.564 292.926 224.76C292.832 226.42 293.014 228.658 294.2 228.893C294.629 228.928 295.054 228.796 295.386 228.523C299.538 225.869 302.234 219.787 302.834 213.524C303.434 207.261 303.973 200.763 302.949 194.856Z" fill="#6F0000"/>
<path d="M292.583 180.556C291.909 179.272 292.186 175.18 288.539 179.454L288.304 177.854L265.772 160.584L215.552 163.185C210.733 163.487 203.494 171.806 201.688 175.281C200.205 188.203 199.908 199.674 199.908 199.674C199.908 199.674 198.183 214.042 199.908 220.835C201.634 227.629 203.676 230.082 206.345 235.364C208.298 238.973 210.733 242.3 213.584 245.256L215.929 263.4L268.394 268.104L292.408 266.76C292.408 266.76 290.258 230.976 290.258 230.344C290.258 230.049 293.257 223.14 296.479 215.809C301.952 203.263 298.865 192.665 292.583 180.556Z" fill="#455A64"/>
<path d="M160.829 245.639C161.092 245.639 163.714 227.972 165.433 223.96C167.05 220.177 201.687 175.274 201.687 175.274L209.842 201.482L206.344 215.5L187.472 238.14L182.141 254.55L160.829 245.639Z" fill="#455A64"/>
<path d="M299.566 193.982C297.079 178.264 284.799 178.95 284.799 178.95L272.593 200.124V243.912L213.705 248.992L212.613 263.736C212.613 263.736 271.285 277.109 284.839 272.627C293.81 269.663 301.386 262.184 302.215 249.96C303.044 237.736 302.06 209.707 299.566 193.982Z" fill="#455A64"/>
<path d="M187.534 238.113C187.362 237.111 187.137 236.12 186.86 235.142C186.121 232.794 184.788 230.676 182.988 228.991C181.189 227.307 178.985 226.113 176.588 225.526C175.591 225.303 174.583 225.132 173.568 225.015C173.846 224.982 174.127 224.982 174.404 225.015C175.16 225.046 175.911 225.145 176.649 225.311C179.108 225.854 181.374 227.05 183.208 228.772C185.041 230.495 186.373 232.68 187.062 235.095C187.274 235.82 187.418 236.562 187.493 237.313C187.54 237.577 187.553 237.845 187.534 238.113Z" fill="black"/>
<path d="M215.72 248.388C215.804 248.365 215.889 248.349 215.976 248.34L216.724 248.233L219.609 247.85L230.238 246.506L265.286 242.259L273.077 241.332L272.922 241.5C273.374 229.592 273.596 219.095 273.515 211.575C273.515 207.819 273.434 204.802 273.387 202.725C273.387 201.704 273.34 200.904 273.327 200.346V199.728C273.327 199.587 273.327 199.52 273.327 199.513C273.334 199.584 273.334 199.656 273.327 199.728C273.327 199.883 273.327 200.084 273.367 200.34C273.367 200.904 273.434 201.683 273.482 202.725C273.569 204.795 273.664 207.812 273.717 211.575C273.839 219.095 273.677 229.605 273.239 241.506V241.654H273.091L265.299 242.588L230.217 246.734L219.582 247.951L216.684 248.26L215.929 248.334L215.72 248.388Z" fill="black"/>
<path d="M303.016 248.387C303.025 248.477 303.025 248.567 303.016 248.656C303.016 248.844 303.016 249.106 302.976 249.436C302.915 250.438 302.8 251.436 302.632 252.426C302.367 253.997 301.982 255.545 301.479 257.056C300.791 259.053 299.868 260.961 298.73 262.741C297.344 264.909 295.596 266.823 293.56 268.4C291.221 270.21 288.517 271.496 285.634 272.17C284.082 272.542 282.505 272.804 280.916 272.956C279.262 273.104 277.602 273.166 275.942 273.144C272.461 273.074 268.989 272.75 265.555 272.176L245.666 268.917L236.991 267.479L229.436 266.088C224.832 265.228 221.098 264.576 218.51 264.186L215.524 263.749L214.749 263.642C214.66 263.634 214.572 263.616 214.486 263.588H214.749L215.531 263.669C216.205 263.743 217.23 263.857 218.53 264.038C221.125 264.388 224.866 265.006 229.483 265.833L237.025 267.177L245.706 268.581L265.596 271.82C269.018 272.401 272.478 272.731 275.948 272.808C277.633 272.808 279.278 272.761 280.889 272.633C282.46 272.489 284.018 272.233 285.553 271.867C288.4 271.21 291.071 269.95 293.385 268.171C295.401 266.623 297.138 264.744 298.521 262.614C299.661 260.855 300.59 258.97 301.291 256.996C301.806 255.5 302.209 253.968 302.497 252.413C302.72 251.129 302.854 250.121 302.902 249.436L302.983 248.656C302.988 248.566 302.999 248.476 303.016 248.387Z" fill="black"/>
<path d="M214.13 249.469C214.102 249.38 214.084 249.287 214.076 249.194C214.042 248.986 213.995 248.71 213.948 248.374C213.84 247.621 213.685 246.573 213.496 245.243V245.29L209.034 240.364C208.165 239.127 207.379 237.834 206.682 236.493C205.903 234.966 205.215 233.396 204.62 231.789C203.305 228.158 202.4 224.391 201.924 220.56C201.453 216.413 201.356 212.232 201.634 208.067C201.843 204.237 202.241 200.796 202.618 197.92C202.995 195.044 203.353 192.726 203.609 191.12L203.912 189.278C203.946 189.083 203.973 188.929 204 188.801C204.005 188.746 204.018 188.691 204.04 188.64C204.046 188.694 204.046 188.748 204.04 188.801C204.04 188.936 204.04 189.09 203.986 189.285C203.926 189.742 203.851 190.36 203.75 191.14C203.535 192.746 203.218 195.071 202.867 197.954C202.517 200.837 202.2 204.264 201.991 208.094C201.734 212.237 201.837 216.395 202.301 220.52C202.771 224.327 203.657 228.073 204.943 231.688C205.525 233.279 206.201 234.834 206.965 236.345C207.647 237.679 208.415 238.967 209.264 240.203L213.665 245.189L214.029 248.327C214.062 248.67 214.089 248.945 214.116 249.154C214.14 249.257 214.144 249.364 214.13 249.469Z" fill="black"/>
<path d="M281.563 251.102C281.119 250.611 280.711 250.087 280.343 249.537C279.609 248.549 278.577 247.205 277.371 245.773C276.165 244.342 275.025 243.085 274.183 242.198C273.699 241.738 273.249 241.244 272.835 240.72C273.383 241.1 273.89 241.537 274.345 242.024C275.503 243.138 276.599 244.316 277.627 245.552C278.662 246.779 279.632 248.06 280.532 249.389C280.933 249.924 281.278 250.498 281.563 251.102Z" fill="black"/>
<path d="M175.239 247.796C174.741 244.927 172.119 242.689 172.119 242.689C172.119 242.689 170.865 239.195 168.992 238.274C167.118 237.353 165.622 239.195 163.99 238.697C162.359 238.2 158.861 238.072 157.736 238.697C156.61 239.322 155.235 242.81 155.235 242.81C154.1 242.856 152.99 243.154 151.986 243.684C151.136 244.122 150.399 244.752 149.836 245.525C149.348 245.335 148.813 245.298 148.303 245.418C147.792 245.538 147.331 245.809 146.979 246.197C146.295 246.994 145.783 247.922 145.476 248.925L144.586 251.304C144.415 251.667 144.336 252.066 144.357 252.467C144.425 252.796 144.604 253.092 144.864 253.307C145.123 253.522 145.448 253.643 145.786 253.649C146.128 253.651 146.467 253.58 146.781 253.443C147.095 253.305 147.375 253.103 147.605 252.85C148.064 252.398 148.469 251.895 148.812 251.351L149.034 252.91C149.034 252.91 149.405 255.376 151.407 255.524C152.789 255.632 154.285 254.032 154.285 254.032L157.783 253.656L158.282 257.144C158.512 257.816 158.953 258.397 159.539 258.801C160.125 259.205 160.825 259.41 161.537 259.388C162.791 259.388 164.408 257.271 164.408 257.271L167.664 258.515C167.664 258.515 171.411 261.135 173.164 260.262C173.654 260.014 174.045 259.608 174.273 259.11C174.5 258.612 174.551 258.051 174.417 257.52C175.165 256.675 175.757 255.703 176.163 254.651C176.635 253.159 175.765 250.666 175.239 247.796Z" fill="#FFBE9D"/>
<path d="M148.953 252.312C148.811 251.078 148.854 249.83 149.081 248.609C149.198 247.374 149.503 246.164 149.984 245.021C150.079 245.021 149.708 246.654 149.425 248.663C149.142 250.672 149.081 252.312 148.953 252.312Z" fill="#EB996E"/>
<path d="M154.42 249.033C154.633 249.881 154.732 250.753 154.717 251.627C154.788 252.258 154.724 252.897 154.528 253.501C154.332 253.972 154.056 254.173 154.036 254.12C154.016 254.066 154.177 253.858 154.292 253.448C154.408 252.861 154.433 252.261 154.366 251.667C154.263 250.79 154.282 249.904 154.42 249.033Z" fill="#EB996E"/>
<path d="M156.752 247.547C156.82 247.615 156.361 248.219 155.721 248.838C155.081 249.456 154.515 249.953 154.44 249.886C154.366 249.819 154.831 249.214 155.472 248.596C156.112 247.978 156.685 247.48 156.752 247.547Z" fill="#EB996E"/>
<path d="M157.217 240.841C157.293 241.47 157.32 242.103 157.298 242.736C157.298 243.912 157.345 245.525 157.439 247.306C157.534 249.086 157.675 250.699 157.776 251.868C157.872 252.495 157.913 253.13 157.898 253.764C157.712 253.155 157.59 252.529 157.534 251.895C157.365 250.733 157.19 249.12 157.089 247.326C156.988 245.531 157.001 243.912 157.049 242.736C157.039 242.1 157.095 241.465 157.217 240.841Z" fill="#EB996E"/>
<path d="M170.333 242.178C170.333 242.178 170.184 242.514 169.948 243.119C169.62 243.976 169.358 244.856 169.167 245.753C169.045 246.331 168.917 246.956 168.776 247.621C168.642 248.35 168.443 249.065 168.183 249.758C167.892 250.542 167.401 251.237 166.76 251.774C166.41 252.077 165.993 252.293 165.543 252.404C165.093 252.515 164.624 252.518 164.172 252.413C163.703 252.307 163.279 252.058 162.959 251.7C162.664 251.345 162.475 250.915 162.413 250.457C162.317 249.641 162.302 248.817 162.366 247.998C162.442 246.623 162.654 245.259 162.999 243.925C163.231 243.027 163.528 242.146 163.889 241.291C164.017 240.989 164.118 240.76 164.199 240.619C164.234 240.537 164.279 240.46 164.334 240.391C164.25 240.718 164.144 241.039 164.017 241.352C163.708 242.216 163.449 243.098 163.242 243.993C162.936 245.317 162.751 246.667 162.689 248.025C162.636 248.818 162.656 249.614 162.75 250.404C162.805 250.798 162.968 251.171 163.222 251.479C163.497 251.779 163.856 251.99 164.253 252.084C164.653 252.175 165.069 252.171 165.468 252.072C165.866 251.973 166.235 251.781 166.545 251.512C167.146 251.009 167.61 250.361 167.893 249.631C168.316 248.337 168.665 247.02 168.937 245.686C169.149 244.784 169.447 243.904 169.827 243.059C169.932 242.827 170.051 242.603 170.184 242.387C170.265 242.245 170.319 242.172 170.333 242.178Z" fill="#EB996E"/>
<path d="M171.654 243.69C171.56 244.435 171.23 245.131 170.713 245.677C170.195 246.223 169.517 246.591 168.776 246.728C169.367 246.339 169.928 245.908 170.455 245.437C170.898 244.886 171.299 244.302 171.654 243.69Z" fill="#EB996E"/>
<path d="M164.415 252.379C164.637 253.312 164.694 254.276 164.584 255.228C164.548 256.076 164.428 256.918 164.227 257.742V257.789C164.201 257.802 164.174 257.809 164.145 257.81C164.117 257.81 164.088 257.805 164.063 257.793C164.037 257.782 164.014 257.764 163.995 257.743C163.977 257.721 163.964 257.695 163.957 257.668C163.957 257.601 163.957 257.574 163.957 257.574C163.957 257.574 163.957 257.607 164.004 257.634C164.051 257.661 164.099 257.688 164.119 257.634L164.078 257.688C164.078 257.231 164.179 256.277 164.24 255.175C164.233 254.24 164.291 253.306 164.415 252.379Z" fill="#EB996E"/>
<path d="M172.348 249.597C172.089 250.025 171.781 250.421 171.432 250.78C170.659 251.676 169.982 252.648 169.41 253.683C168.841 254.716 168.518 255.866 168.466 257.043C168.466 257.95 168.621 258.501 168.56 258.515C168.324 258.06 168.206 257.554 168.217 257.043C168.197 255.81 168.501 254.594 169.1 253.515C169.694 252.454 170.428 251.477 171.283 250.612C171.594 250.23 171.952 249.889 172.348 249.597Z" fill="#EB996E"/>
<path d="M170.967 255.793C170.756 255.037 170.791 254.235 171.067 253.5C171.344 252.766 171.846 252.138 172.504 251.707C174.856 250.041 181.899 245.659 182.047 245.659C182.196 245.659 190.317 242.971 193.735 242.622C197.152 242.272 212.108 249.678 212.108 249.678C212.108 249.678 215.579 254.664 215.019 259.449C214.46 264.233 211.333 264.509 211.333 264.509L206.992 263.454L202.517 262.6C202.517 262.6 192.616 265.349 191.059 264.845C189.502 264.341 188.963 262.654 190.648 261.74C192.333 260.826 197.179 259.395 197.179 259.395L200.906 257.822L188.774 259.549C188.774 259.549 178.516 261.565 177.316 261.283C176.116 261.001 175.934 260.107 175.833 259.267C175.833 259.267 171.702 261.283 170.475 260.181C169.248 259.079 168.709 256.68 170.967 255.793Z" fill="#FFBE9D"/>
<path d="M197.152 252.85C196.851 252.898 196.546 252.914 196.242 252.897C195.662 252.897 194.82 252.897 193.782 252.964C192.571 253.019 191.368 253.187 190.189 253.468C189.494 253.644 188.818 253.885 188.167 254.187C187.493 254.496 186.819 254.859 186.145 255.262C185.458 255.654 184.741 255.993 184.002 256.277C183.311 256.531 182.587 256.687 181.852 256.74C180.641 256.741 179.434 256.876 178.253 257.144C177.482 257.388 176.802 257.856 176.298 258.488C176.128 258.733 175.977 258.992 175.847 259.26C175.847 259.26 175.847 259.173 175.887 259.025C175.957 258.809 176.057 258.603 176.184 258.414C176.669 257.716 177.366 257.191 178.172 256.915C179.365 256.604 180.592 256.439 181.825 256.425C183.292 256.254 184.702 255.755 185.95 254.966C186.624 254.583 187.298 254.194 188.012 253.878C188.678 253.575 189.371 253.336 190.082 253.165C191.282 252.886 192.509 252.739 193.741 252.729C194.793 252.729 195.635 252.729 196.222 252.769C196.534 252.767 196.845 252.794 197.152 252.85Z" fill="#EB996E"/>
<path d="M193.485 247.749C193.415 247.795 193.34 247.833 193.262 247.863C193.121 247.931 192.898 248.018 192.588 248.119C191.761 248.373 190.916 248.566 190.061 248.697C188.989 248.885 187.695 249.026 186.32 249.369C184.839 249.815 183.416 250.435 182.081 251.217C179.594 252.596 176.997 253.77 174.316 254.725C173.292 255.087 172.449 255.356 171.863 255.531C171.566 255.638 171.259 255.717 170.946 255.766C171.226 255.617 171.519 255.495 171.822 255.403L174.229 254.489C176.87 253.474 179.437 252.277 181.912 250.908C183.272 250.113 184.726 249.49 186.239 249.053C187.489 248.771 188.754 248.56 190.027 248.421C190.876 248.314 191.717 248.159 192.548 247.957C192.856 247.871 193.169 247.801 193.485 247.749Z" fill="#EB996E"/>
<path d="M203.332 250.632C203.243 250.37 203.178 250.1 203.137 249.826C202.976 249.197 202.665 248.617 202.231 248.133C201.797 247.65 201.252 247.279 200.643 247.05C200.375 246.978 200.114 246.884 199.861 246.768C199.861 246.728 200.198 246.687 200.724 246.815C201.407 246.998 202.022 247.374 202.497 247.897C202.967 248.423 203.274 249.075 203.38 249.772C203.45 250.057 203.434 250.356 203.332 250.632Z" fill="#EB996E"/>
<path d="M175.873 259.254C175.701 259.406 175.502 259.525 175.286 259.603C174.723 259.868 174.142 260.092 173.547 260.275C173.138 260.418 172.719 260.532 172.294 260.618C171.781 260.685 171.259 260.632 170.771 260.463C170.495 260.363 170.243 260.205 170.031 260.002C169.82 259.798 169.654 259.552 169.544 259.281C169.265 258.729 169.153 258.108 169.22 257.493C169.29 257.029 169.531 256.608 169.894 256.31C170.204 256.039 170.552 255.812 170.926 255.638L170.838 255.84C170.564 255.007 170.626 254.101 171.013 253.313C171.334 252.723 171.767 252.201 172.287 251.774C172.621 251.497 172.977 251.247 173.352 251.029C173.481 250.936 173.624 250.865 173.777 250.82C173.81 250.867 173.231 251.203 172.429 251.929C171.955 252.36 171.562 252.872 171.269 253.441C170.937 254.167 170.898 254.992 171.161 255.746L171.202 255.874L171.074 255.941C170.44 256.27 169.679 256.754 169.605 257.547C169.548 258.094 169.646 258.645 169.888 259.14C169.977 259.372 170.114 259.583 170.291 259.759C170.467 259.935 170.679 260.072 170.912 260.161C171.343 260.318 171.803 260.378 172.26 260.336C172.674 260.261 173.083 260.165 173.487 260.047C174.235 259.838 174.835 259.63 175.239 259.482C175.442 259.384 175.654 259.307 175.873 259.254Z" fill="#EB996E"/>
<path d="M228.095 123.315C226.632 108.759 223.538 94.271 224.179 79.6349L212.175 87.1075C212.775 92.9002 207.551 97.3891 204.525 102.362C202.714 105.4 201.652 108.823 201.426 112.35C201.199 115.876 201.816 119.406 203.224 122.65C204.302 125.069 205.832 127.354 206.23 129.974C206.904 134.396 204.161 138.892 205.172 143.253C206.331 148.273 212.492 151.028 217.459 149.617C222.426 148.206 225.985 143.569 227.448 138.657C228.91 133.744 228.607 128.442 228.095 123.315Z" fill="#263238"/>
<path d="M212.822 84.648C213.486 81.0964 215.086 77.7848 217.456 75.0525C219.827 72.3201 222.883 70.2653 226.313 69.0987C229.742 67.9321 233.421 67.6956 236.972 68.4134C240.523 69.1312 243.819 70.7775 246.522 73.1837C248.713 75.1392 250.506 77.5785 253.04 79.0637C255.904 80.7369 256.275 80.1725 259.429 81.1872C262.584 82.2019 268.764 90.4137 268.865 93.72L271.319 108.101C271.4 111.494 267.153 113.678 263.864 112.805C260.575 111.931 258.257 109.035 256.369 106.199C254.482 103.363 252.689 100.292 249.784 98.5113C244.965 95.5613 238.778 97.0665 233.319 98.5113C227.859 99.9561 221.517 101.199 216.974 97.8393C213.092 94.9161 211.933 89.4057 212.822 84.648Z" fill="#263238"/>
<path d="M211.083 105.48C211.083 96.0182 216.671 84.0768 226.147 84.5068L256.005 90.1516C257.395 90.2129 258.711 90.7927 259.692 91.776C260.674 92.7594 261.248 94.0744 261.303 95.4604L262.428 166.356H262.631C262.631 166.356 252.258 192.363 232.442 187.484C228.513 186.516 231.418 176.766 230.38 172.492L230.184 172.532C230.144 172.015 230.11 171.538 230.07 171.047C229.49 167.849 229.248 164.599 229.348 161.35C228.937 155.645 228.796 153.286 228.796 153.36C228.796 153.434 216.596 152.083 213.145 136.526C211.434 128.825 211.049 115.997 211.083 105.48Z" fill="#FFBE9D"/>
<path d="M216.354 117.858C216.38 118.383 216.611 118.878 216.997 119.236C217.384 119.593 217.895 119.786 218.423 119.773C218.681 119.779 218.938 119.732 219.179 119.637C219.419 119.542 219.638 119.399 219.822 119.218C220.006 119.037 220.152 118.821 220.25 118.583C220.349 118.345 220.399 118.089 220.398 117.831C220.371 117.306 220.14 116.812 219.754 116.454C219.367 116.096 218.856 115.903 218.328 115.916C218.07 115.911 217.813 115.957 217.573 116.052C217.332 116.148 217.114 116.29 216.93 116.471C216.745 116.652 216.6 116.868 216.501 117.107C216.402 117.345 216.352 117.6 216.354 117.858Z" fill="#263238"/>
<path d="M214.271 111.978C214.533 112.227 215.996 111.004 218.173 110.883C220.35 110.762 222.008 111.743 222.217 111.468C222.332 111.34 222.042 110.883 221.321 110.419C220.34 109.824 219.197 109.547 218.052 109.626C216.932 109.706 215.865 110.136 215.005 110.856C214.331 111.38 214.136 111.871 214.271 111.978Z" fill="#263238"/>
<path d="M235.967 116.763C235.993 117.288 236.224 117.782 236.611 118.14C236.997 118.498 237.509 118.691 238.036 118.678C238.295 118.683 238.552 118.637 238.792 118.542C239.032 118.446 239.251 118.304 239.435 118.123C239.619 117.942 239.765 117.726 239.864 117.488C239.963 117.249 240.013 116.994 240.011 116.736C239.985 116.207 239.751 115.71 239.36 115.351C238.969 114.993 238.452 114.802 237.921 114.821C237.665 114.818 237.41 114.866 237.172 114.963C236.934 115.06 236.718 115.202 236.536 115.383C236.354 115.564 236.21 115.779 236.112 116.016C236.014 116.253 235.965 116.507 235.967 116.763Z" fill="#263238"/>
<path d="M235.671 111.105C235.933 111.347 237.396 110.13 239.573 110.003C241.75 109.875 243.408 110.869 243.617 110.587C243.725 110.459 243.449 110.003 242.721 109.539C241.738 108.946 240.597 108.67 239.452 108.746C238.322 108.814 237.242 109.235 236.365 109.949C235.738 110.5 235.536 110.99 235.671 111.105Z" fill="#263238"/>
<path d="M228.748 127.656C228.748 127.528 227.4 127.38 225.176 127.233C224.617 127.233 224.084 127.125 223.97 126.755C223.888 126.186 223.982 125.604 224.239 125.089C224.684 123.745 225.142 122.287 225.628 120.781C227.549 114.639 228.897 109.606 228.647 109.532C228.398 109.458 226.625 114.371 224.725 120.506L223.41 124.847C223.099 125.533 223.044 126.308 223.255 127.031C223.347 127.223 223.481 127.391 223.648 127.523C223.815 127.654 224.011 127.746 224.219 127.79C224.531 127.855 224.851 127.88 225.169 127.864C227.38 127.851 228.748 127.777 228.748 127.656Z" fill="#263238"/>
<path d="M228.796 153.4C236.221 153.065 243.407 150.683 249.555 146.519C249.555 146.519 244.891 157.775 229.039 157.271L228.796 153.4Z" fill="#EB996E"/>
<path d="M229.982 132.824C230.363 132.279 230.878 131.841 231.478 131.55C232.077 131.26 232.741 131.127 233.406 131.164C233.888 131.176 234.363 131.286 234.801 131.487C235.239 131.688 235.631 131.976 235.954 132.333C236.266 132.677 236.466 133.108 236.525 133.568C236.584 134.028 236.5 134.496 236.284 134.907C235.959 135.317 235.518 135.621 235.019 135.78C234.519 135.94 233.983 135.947 233.48 135.801C232.43 135.5 231.452 134.993 230.602 134.309C230.34 134.152 230.112 133.947 229.928 133.704C229.841 133.589 229.79 133.452 229.782 133.308C229.773 133.164 229.808 133.022 229.881 132.898" fill="#EB996E"/>
<path d="M235.226 128.771C234.868 128.771 235.003 131.123 233.089 132.911C231.175 134.699 228.641 134.598 228.641 134.927C228.641 135.075 229.227 135.35 230.292 135.317C231.676 135.254 232.993 134.707 234.012 133.771C234.99 132.872 235.577 131.628 235.65 130.304C235.697 129.316 235.394 128.745 235.226 128.771Z" fill="#263238"/>
<path d="M234.626 102.886C234.875 103.464 237.032 103.054 239.6 103.209C242.168 103.363 244.277 103.928 244.581 103.377C244.715 103.115 244.325 102.584 243.462 102.033C242.309 101.399 241.026 101.036 239.711 100.971C238.396 100.906 237.083 101.14 235.873 101.656C234.963 102.12 234.552 102.611 234.626 102.886Z" fill="#263238"/>
<path d="M214.688 105.655C215.1 106.125 216.569 105.527 218.369 105.393C220.168 105.258 221.739 105.527 222.035 104.989C222.177 104.727 221.907 104.25 221.206 103.827C220.278 103.319 219.219 103.099 218.165 103.195C217.111 103.29 216.109 103.698 215.288 104.364C214.682 104.909 214.506 105.426 214.688 105.655Z" fill="#263238"/>
<path d="M226.417 80.4614L227.643 78.6739C236.809 79.1474 245.867 80.8611 254.57 83.7677C258.047 84.9302 261.579 86.3616 264.073 89.0428C267.51 92.7254 268.353 98.0477 269.027 103.034C271.602 122.004 273.974 141.566 269.094 160.087C267.504 157.856 264.605 156.989 261.882 156.633C259.159 156.276 256.322 156.29 253.794 155.195C252.422 154.568 251.196 153.662 250.195 152.535C249.195 151.407 248.442 150.084 247.985 148.649C247.084 145.754 247.235 142.635 248.409 139.839C249.683 136.728 252.103 133.65 251.26 130.431C250.377 127.024 246.286 125.297 245.14 121.971C243.165 116.219 251.071 110.453 249.043 104.721C248.288 102.604 246.306 101.152 244.23 100.279C242.154 99.4051 239.917 98.9817 237.821 98.1686C234.335 96.7291 231.375 94.2612 229.336 91.0962C227.298 87.9312 226.279 84.2203 226.417 80.4614Z" fill="#263238"/>
<path d="M273.044 89.8358C263.244 76.1405 256.605 74.4806 247.385 73.9699L260.191 102.597C262.112 107.207 264.754 112.798 265.165 117.764C265.65 123.658 263.601 128.59 260.858 133.825C257.569 140.115 253.956 146.109 248.302 150.41C242.647 154.711 230.056 160.12 223.519 157.332L232.638 162.419L254.421 162.499L279.798 162.6C279.798 162.6 282.763 160.006 285.372 153.313C291.916 136.547 283.976 105.11 273.044 89.8358Z" fill="#6F0000"/>
<path d="M291.114 179.037C291.114 179.037 285.654 167.868 278.53 161.726C271.406 155.584 267.032 155.645 256.868 156.505C246.704 157.365 232.482 158.964 229.112 158.111L228.796 153.407C227.124 153.239 220.269 149.913 218.935 147.903C216.387 150.504 215.275 153.279 215.855 156.229L214.19 156.854C211.734 157.75 209.695 159.516 208.462 161.815C207.229 164.115 206.888 166.786 207.504 169.32C208.137 171.739 209.667 173.224 212.741 173.755C224.94 175.859 257.555 167.069 267.375 167.035C277.196 167.002 291.114 179.037 291.114 179.037Z" fill="#6F0000"/>
<path d="M211.636 173.628C211.922 173.619 212.208 173.635 212.492 173.675C213.044 173.728 213.84 173.816 214.911 173.89C217.885 174.121 220.869 174.17 223.849 174.037C228.263 173.811 232.65 173.217 236.965 172.263C239.405 171.732 241.946 171.087 244.554 170.335L252.601 167.855C258.122 166.182 263.655 165.039 268.717 165.537C273.176 165.943 277.492 167.319 281.361 169.569C283.958 171.086 286.306 172.992 288.323 175.22C288.872 175.822 289.385 176.455 289.86 177.115C290.036 177.327 290.196 177.552 290.339 177.787C290.126 177.599 289.936 177.387 289.773 177.156C289.429 176.719 288.883 176.107 288.162 175.341C283.018 169.97 276.089 166.649 268.67 166C263.709 165.543 258.263 166.672 252.763 168.339C250.007 169.165 247.331 170.046 244.709 170.805C242.087 171.564 239.533 172.196 237.072 172.714C232.726 173.654 228.306 174.212 223.862 174.38C220.868 174.48 217.87 174.37 214.891 174.051C213.84 173.943 213.024 173.822 212.478 173.735C212.195 173.723 211.913 173.687 211.636 173.628Z" fill="#263238"/>
<path d="M291.7 175.368C279.393 159.415 255.796 153.32 237.261 161.303L217.715 165.436C212.559 166.323 204.289 167.996 203.898 172.761C203.541 177.807 204.643 182.849 207.072 187.289C211.615 195.179 209.148 205.749 213.691 213.638C215.834 217.368 218.025 221.151 221.152 224.115C224.28 227.078 228.526 229.155 232.812 228.691C237.584 228.18 241.494 224.706 244.527 220.997C251.058 213.007 255.135 203.303 261.248 194.997C267.362 186.691 274.573 180.576 287.42 179.79C289.752 179.642 296.404 182.74 296.404 182.74C296.593 181.799 292.286 176.114 291.7 175.368Z" fill="#6F0000"/>
<g opacity="0.3">
<path d="M265.394 165.879C256.895 165.879 248.544 169.952 240.307 171.766C207.174 179.037 207.174 166.578 207.174 166.578C206.136 172.431 211.649 175.119 217.452 176.463C228.533 179.017 240.368 180.388 248.362 177.841C254.805 175.825 261.532 174.326 268.036 172.465C274.54 170.604 283.908 171.316 288.835 175.926C284.427 168.702 273.893 165.859 265.394 165.879Z" fill="black"/>
</g>
<g opacity="0.3">
<path d="M222.332 164.986C222.728 165.851 223.306 166.621 224.027 167.244C224.749 167.866 225.596 168.327 226.511 168.594C228.346 169.122 230.267 169.286 232.166 169.078C239.095 168.608 245.754 166.303 252.312 164.018C247.068 163.836 241.993 165.658 236.85 166.706C231.708 167.754 225.911 167.821 221.732 164.69" fill="black"/>
</g>
<path d="M293.365 180.482C293.365 180.482 293.305 180.435 293.21 180.334L292.799 179.864C292.442 179.44 291.896 178.849 291.175 178.096C289.144 175.967 286.69 174.285 283.97 173.157C282.071 172.443 280.077 172.013 278.052 171.88C275.73 171.693 273.395 171.767 271.09 172.102C266.196 172.774 261.027 174.488 255.54 176.047C250.054 177.606 244.817 179.232 239.836 179.494C235.445 179.683 231.046 179.369 226.727 178.56C223.047 177.888 220.115 177.108 218.086 176.604L215.754 176.013L215.154 175.852L214.945 175.785C215.017 175.774 215.089 175.774 215.161 175.785L215.774 175.912L218.12 176.443C220.142 176.907 223.094 177.639 226.774 178.284C231.075 179.059 235.45 179.347 239.816 179.145C244.743 178.869 249.987 177.317 255.446 175.684C260.905 174.051 266.109 172.404 271.042 171.753C273.373 171.425 275.734 171.362 278.079 171.564C280.594 171.709 283.055 172.35 285.319 173.45C287.584 174.551 289.606 176.089 291.269 177.975C291.984 178.748 292.516 179.353 292.853 179.79L293.237 180.28L293.365 180.482Z" fill="black"/>
<path d="M280.991 164.045C280.94 164.011 280.892 163.973 280.849 163.931L280.458 163.574C280.128 163.252 279.609 162.802 278.935 162.23C276.994 160.666 274.866 159.348 272.599 158.306C269.236 156.769 265.66 155.745 261.991 155.268C257.494 154.712 252.944 154.723 248.45 155.302C243.952 155.895 239.488 156.725 235.078 157.788C233.129 158.245 231.123 158.403 229.126 158.259C227.371 158.128 225.685 157.519 224.253 156.498C223.104 155.628 222.122 154.558 221.355 153.34C220.776 152.431 220.274 151.475 219.852 150.484C219.508 149.671 219.279 149.019 219.131 148.575L218.976 148.071C218.954 148.015 218.94 147.957 218.936 147.897C218.936 147.897 218.969 147.95 219.01 148.058C219.05 148.165 219.124 148.354 219.198 148.555C219.367 148.985 219.616 149.624 219.98 150.43C220.42 151.403 220.936 152.34 221.524 153.232C222.292 154.417 223.266 155.455 224.402 156.297C225.806 157.275 227.451 157.853 229.16 157.97C231.124 158.097 233.096 157.929 235.01 157.473C239.426 156.387 243.9 155.548 248.41 154.959C252.934 154.377 257.514 154.377 262.038 154.959C265.734 155.459 269.331 156.517 272.707 158.098C274.98 159.16 277.104 160.516 279.023 162.13C279.543 162.57 280.04 163.036 280.512 163.527L280.876 163.904C280.957 163.998 280.997 164.038 280.991 164.045Z" fill="black"/>
<path d="M277.014 163.716H276.845L276.347 163.635L274.426 163.319C272.072 162.958 269.701 162.718 267.322 162.6C263.791 162.427 260.252 162.539 256.74 162.936C252.443 163.511 248.185 164.344 243.988 165.429C239.513 166.504 235.159 167.445 231.121 167.385C229.216 167.397 227.316 167.171 225.466 166.713C223.854 166.258 222.362 165.452 221.099 164.354C219.287 162.775 217.814 160.845 216.772 158.682C216.375 157.899 216.061 157.077 215.835 156.229C215.867 156.277 215.892 156.329 215.909 156.384L216.091 156.854C216.26 157.271 216.516 157.869 216.893 158.615C217.971 160.732 219.455 162.618 221.261 164.166C222.505 165.223 223.965 165.996 225.541 166.43C227.367 166.873 229.242 167.088 231.121 167.069C235.111 167.069 239.432 166.175 243.927 165.093C248.14 163.999 252.417 163.169 256.733 162.607C260.263 162.228 263.818 162.14 267.362 162.345C269.749 162.483 272.125 162.759 274.48 163.171C275.315 163.326 275.956 163.453 276.394 163.554L276.886 163.668C276.967 163.689 277.014 163.709 277.014 163.716Z" fill="black"/>
<path d="M277.634 133.556C277.574 133.938 277.488 134.315 277.378 134.685C277.273 135.127 277.142 135.562 276.987 135.989C276.812 136.493 276.643 137.071 276.374 137.682C276.104 138.294 275.841 138.979 275.484 139.698C275.127 140.417 274.729 141.136 274.291 141.909C272.323 145.212 269.762 148.126 266.735 150.504C266.028 151.042 265.387 151.559 264.713 151.976C264.039 152.392 263.433 152.789 262.846 153.118C262.26 153.447 261.721 153.716 261.249 153.951C260.845 154.162 260.429 154.349 260.002 154.509C259.651 154.67 259.288 154.805 258.917 154.912C259.246 154.71 259.591 154.535 259.948 154.388C260.285 154.234 260.696 154.039 261.161 153.777C261.626 153.515 262.166 153.266 262.725 152.903C263.285 152.54 263.918 152.191 264.552 151.734C265.185 151.277 265.852 150.786 266.574 150.255C269.542 147.867 272.073 144.984 274.055 141.734C274.493 140.975 274.924 140.263 275.261 139.564C275.598 138.865 275.935 138.22 276.185 137.602C276.434 136.983 276.65 136.432 276.859 135.942C277.068 135.451 277.189 135.014 277.297 134.665C277.377 134.286 277.49 133.916 277.634 133.556Z" fill="black"/>
<path d="M276.616 173.614C276.433 173.614 276.25 173.598 276.07 173.567L275.396 173.48C275.14 173.446 274.837 173.48 274.507 173.433C272.6 173.387 270.702 173.681 268.899 174.3C267.656 174.725 266.446 175.242 265.279 175.845C263.943 176.547 262.645 177.319 261.39 178.157C258.735 179.924 255.958 182.088 252.979 184.272L237.773 195.528L233.13 198.888L231.856 199.762C231.714 199.876 231.56 199.975 231.397 200.057C231.526 199.931 231.663 199.814 231.809 199.708L233.042 198.754L237.618 195.293L252.783 183.99C255.763 181.812 258.539 179.649 261.229 177.888C262.496 177.05 263.808 176.281 265.158 175.583C266.345 174.987 267.576 174.479 268.838 174.064C270.67 173.459 272.599 173.2 274.527 173.298C274.864 173.298 275.167 173.332 275.423 173.372L276.097 173.493C276.273 173.518 276.447 173.559 276.616 173.614Z" fill="black"/>
<path d="M298.366 194.218C298.235 193.913 298.136 193.595 298.069 193.27C297.908 192.659 297.679 191.765 297.355 190.676C296.991 189.399 296.529 188.153 295.973 186.947C295.298 185.479 294.374 184.138 293.244 182.982C292.119 181.821 290.712 180.972 289.159 180.515C287.882 180.174 286.554 180.058 285.236 180.173C284.017 180.309 282.806 180.516 281.61 180.791C281.683 180.743 281.762 180.707 281.846 180.683C282.008 180.623 282.244 180.542 282.52 180.455C283.4 180.195 284.303 180.019 285.216 179.931C286.57 179.773 287.941 179.867 289.26 180.206C290.874 180.662 292.338 181.533 293.506 182.733C294.667 183.918 295.607 185.299 296.283 186.812C296.836 188.039 297.287 189.309 297.631 190.609C297.921 191.711 298.117 192.625 298.238 193.243C298.309 193.564 298.352 193.89 298.366 194.218Z" fill="black"/>
<path d="M286.41 68.7973C299.662 68.1834 309.906 56.9745 309.29 43.7615C308.675 30.5485 297.432 20.3349 284.18 20.9487C270.928 21.5626 260.684 32.7715 261.299 45.9845C261.915 59.1975 273.157 69.4112 286.41 68.7973Z" fill="white"/>
<path d="M271.932 72.552C272.154 72.4896 272.379 72.438 272.606 72.3974C273.255 72.3172 273.913 72.4418 274.487 72.7536C274.882 72.9585 275.227 73.2476 275.498 73.6003C275.798 74.0103 275.974 74.4979 276.003 75.0047C276.066 75.5877 275.949 76.1759 275.667 76.6903C275.385 77.2046 274.951 77.6205 274.425 77.8818C273.898 78.1431 273.304 78.2374 272.722 78.1519C272.141 78.0665 271.599 77.8054 271.171 77.4038C270.785 77.0749 270.5 76.6439 270.348 76.1606C270.224 75.7236 270.199 75.2645 270.274 74.8166C270.373 74.1718 270.67 73.5733 271.124 73.103C271.447 72.7737 271.683 72.6595 271.669 72.6393C271.61 72.6576 271.553 72.6847 271.501 72.72C271.433 72.755 271.367 72.7954 271.305 72.8409C271.221 72.9034 271.14 72.9707 271.063 73.0425C270.647 73.4388 270.345 73.9388 270.189 74.4907C270.032 75.0425 270.027 75.6261 270.173 76.1807C270.323 76.7033 270.623 77.1706 271.036 77.5247C271.486 77.9237 272.04 78.1891 272.633 78.2908C273.272 78.4253 273.938 78.3405 274.523 78.0502C275.108 77.7599 275.577 77.2811 275.855 76.6915C276.129 76.1566 276.25 75.5568 276.205 74.9577C276.169 74.4146 275.975 73.8939 275.646 73.4592C275.359 73.0849 274.987 72.7833 274.561 72.5788C273.955 72.2669 273.264 72.1607 272.593 72.2764C272.49 72.2915 272.388 72.3163 272.29 72.3504C272.213 72.3699 272.138 72.3969 272.067 72.431C271.986 72.5049 271.926 72.552 271.932 72.552Z" fill="#263238"/>
<path d="M265.293 58.5005L265.098 58.1577L264.505 57.1766C264.377 56.9549 264.228 56.7129 264.067 56.4509C263.905 56.1888 263.783 55.8662 263.622 55.5302C263.46 55.1942 263.291 54.8582 263.109 54.455C263.01 54.2604 262.927 54.0582 262.86 53.8502C262.786 53.6352 262.705 53.4201 262.624 53.1782C261.808 50.9984 261.328 48.7077 261.202 46.3843C261.016 43.3072 261.423 40.223 262.402 37.2989L262.826 36.0758C262.995 35.6659 263.19 35.2694 263.372 34.8595C263.46 34.6579 263.554 34.4563 263.649 34.248C263.734 34.0379 263.838 33.8355 263.959 33.6432L264.633 32.4403C264.747 32.2387 264.862 32.0371 264.983 31.8355L265.401 31.2576L266.244 30.0883C266.533 29.7053 266.877 29.3491 267.201 28.9728L267.693 28.415C267.774 28.3277 267.854 28.2269 267.942 28.1395L268.218 27.8841C268.941 27.1598 269.714 26.4862 270.53 25.8681C270.948 25.5657 271.352 25.1961 271.797 24.9341L273.145 24.1075C273.374 23.9731 273.597 23.8185 273.819 23.6976L274.554 23.3481C275.046 23.1197 275.531 22.8643 276.037 22.6761C277.076 22.2639 278.141 21.9182 279.225 21.6413L280.047 21.4329L280.465 21.3321L280.89 21.2717L282.595 21.0163C283.174 20.9558 283.754 20.9424 284.34 20.9088C284.63 20.9088 284.927 20.8617 285.223 20.9088L286.106 20.9491C287.302 20.9927 288.493 21.1162 289.672 21.3187L291.444 21.7421L291.889 21.8496C292.038 21.8899 292.179 21.9437 292.327 21.9907L293.197 22.2931L294.073 22.5888L294.922 22.9651L295.771 23.3549L296.196 23.543C296.338 23.6169 296.466 23.6976 296.607 23.7782L298.238 24.7123L299.789 25.8144C303.948 28.9226 306.978 33.2993 308.416 38.28C308.578 38.8915 308.733 39.5097 308.888 40.1145L309.171 41.976L309.238 42.4397V42.9033L309.285 43.8307L309.332 44.7581L309.292 45.6787L309.251 46.5993V47.0563L309.191 47.5065C309.103 48.1113 309.022 48.7094 308.941 49.3075C308.703 50.4788 308.385 51.6327 307.991 52.7616L307.708 53.5949C307.614 53.8771 307.472 54.1325 307.358 54.4013C307.108 54.9321 306.893 55.4697 306.623 55.9805C306.353 56.4912 306.05 56.9818 305.767 57.479L305.551 57.8486C305.47 57.9696 305.383 58.0838 305.302 58.1981L304.81 58.8701C304.159 59.7753 303.45 60.6373 302.687 61.4505C302.303 61.847 301.891 62.2032 301.5 62.5795L300.901 63.1305C300.705 63.312 300.476 63.4665 300.267 63.6278L299 64.5955C298.569 64.8979 298.104 65.1533 297.652 65.4288C296.788 65.9658 295.887 66.4419 294.956 66.8534L294.619 67.0147L294.268 67.1491L293.594 67.3977C293.123 67.559 292.671 67.7539 292.206 67.8883L290.804 68.2445L290.13 68.4192L289.456 68.5267L288.108 68.735C287.885 68.774 287.66 68.7965 287.434 68.8022H286.76C286.315 68.8022 285.87 68.8627 285.412 68.8694L284.111 68.8157C281.023 68.6642 277.993 67.9204 275.188 66.6249C274.878 66.4838 274.567 66.3562 274.271 66.215L273.435 65.7312L272.626 65.2742C272.492 65.1936 272.357 65.1264 272.235 65.0457L271.878 64.7904L270.53 63.8227C270.106 63.5001 269.742 63.1507 269.371 62.8416L268.845 62.3846C268.676 62.2449 268.516 62.0945 268.367 61.9344L267.457 61.128C267.207 60.8592 266.965 60.6173 266.783 60.3821L266.264 59.7101L265.59 58.8029C265.435 58.6013 265.347 58.5005 265.347 58.5005L265.576 58.8163C265.731 59.0313 265.96 59.3337 266.25 59.7369L266.756 60.4089C266.958 60.6509 267.201 60.8928 267.43 61.1616L268.239 62.0419C268.386 62.2059 268.546 62.3587 268.717 62.4989L269.243 62.9625C269.607 63.2717 269.971 63.6345 270.395 63.9504L271.743 64.9315L272.101 65.1869C272.229 65.2742 272.363 65.3414 272.492 65.4221L273.3 65.8857L274.143 66.3763L275.059 66.7929C277.877 68.1078 280.924 68.8655 284.03 69.024L285.338 69.0845C285.776 69.0845 286.228 69.0441 286.686 69.024L287.36 68.9837C287.586 68.9828 287.811 68.9625 288.034 68.9232L289.416 68.7149L290.09 68.6073L290.764 68.4326L292.179 68.0765C292.644 67.9421 293.102 67.7539 293.574 67.5926L294.282 67.3373C294.397 67.2902 294.518 67.2566 294.632 67.2029L294.976 67.0416C295.922 66.6273 296.839 66.1491 297.719 65.6102C298.164 65.3347 298.629 65.0793 299.067 64.7769L300.348 63.8025C300.564 63.6345 300.786 63.4867 301.022 63.3053L301.622 62.7475C302.013 62.3712 302.437 62.0083 302.822 61.6118C303.592 60.792 304.307 59.9233 304.965 59.0112C305.127 58.776 305.295 58.5475 305.464 58.3392C305.544 58.2249 305.632 58.1107 305.713 57.9897L305.929 57.6134L306.798 56.1081C307.068 55.5907 307.29 55.0464 307.54 54.5155C307.654 54.24 307.802 53.9779 307.897 53.7024L308.18 52.8557C308.579 51.7188 308.899 50.5557 309.137 49.3747C309.225 48.7766 309.312 48.1651 309.393 47.5603L309.46 47.1033V46.6397L309.501 45.719L309.541 44.7849L309.494 43.8509L309.44 42.9168V42.4397L309.366 41.976L309.083 40.1011C308.928 39.4829 308.773 38.8646 308.611 38.2464C307.189 33.2071 304.149 28.7717 299.957 25.6195L298.393 24.504L296.742 23.5632C296.607 23.4825 296.472 23.4019 296.331 23.328L295.9 23.1331L295.044 22.7433L294.188 22.367L293.305 22.0646L292.422 21.7622L291.984 21.6144L291.532 21.5136C290.939 21.3657 290.339 21.2246 289.746 21.0902C288.556 20.8822 287.354 20.7565 286.147 20.7139L285.257 20.6736C284.961 20.6736 284.664 20.6736 284.367 20.6736C283.774 20.7139 283.188 20.7206 282.608 20.7811L280.883 21.0432L280.458 21.1104C280.317 21.1104 280.175 21.1776 280.04 21.2112L279.205 21.4262C278.113 21.7014 277.041 22.0494 275.996 22.4678C275.484 22.6829 274.992 22.9449 274.493 23.1734L273.759 23.5296C273.516 23.6505 273.294 23.8051 273.085 23.9462L271.737 24.7795C271.292 25.0752 270.881 25.4179 270.463 25.727C269.64 26.3452 268.861 27.0187 268.131 27.743L267.854 28.0051C267.767 28.0925 267.686 28.1933 267.605 28.2873C267.524 28.3814 267.275 28.6637 267.106 28.8451C266.783 29.2281 266.432 29.5843 266.149 29.9673L265.3 31.1501L264.882 31.7347C264.761 31.9363 264.646 32.1446 264.532 32.3462L263.858 33.5558C263.74 33.7513 263.639 33.9558 263.554 34.1673L263.271 34.7856C263.089 35.1955 262.894 35.5987 262.732 36.0086C262.57 36.4185 262.449 36.8352 262.307 37.2451C261.33 40.1877 260.931 43.291 261.135 46.3843C261.269 48.7191 261.762 51.0195 262.597 53.2051L262.84 53.8771C262.907 54.0851 262.99 54.2873 263.089 54.4819L263.615 55.5571C263.783 55.8864 263.918 56.1955 264.073 56.471L264.518 57.1901L265.131 58.1645C265.212 58.3862 265.293 58.5005 265.293 58.5005Z" fill="#263238"/>
<path d="M273.166 45.4771L276.725 41.9289L283.586 48.0105L297.053 35.088L300.355 38.6361L283.081 54.8515L273.166 45.4771Z" fill="#6F0000"/>
</svg>
