<svg width="40" height="50" viewBox="0 0 40 50" fill="none" xmlns="http://www.w3.org/2000/svg">
<g filter="url(#filter0_d_2429_823)">
<path d="M4 5.25C4 2.3543 6.3543 0 9.25 0H21.5137C22.9082 0 24.2453 0.549609 25.2297 1.53398L33.966 10.2785C34.9504 11.2629 35.5 12.6 35.5 13.9945V36.75C35.5 39.6457 33.1457 42 30.25 42H9.25C6.3543 42 4 39.6457 4 36.75V5.25ZM21.0625 4.79883V12.4688C21.0625 13.5598 21.9402 14.4375 23.0312 14.4375H30.7012L21.0625 4.79883ZM13.8438 21C12.7527 21 11.875 21.8777 11.875 22.9688C11.875 24.0598 12.7527 24.9375 13.8438 24.9375H25.6562C26.7473 24.9375 27.625 24.0598 27.625 22.9688C27.625 21.8777 26.7473 21 25.6562 21H13.8438ZM13.8438 28.875C12.7527 28.875 11.875 29.7527 11.875 30.8438C11.875 31.9348 12.7527 32.8125 13.8438 32.8125H25.6562C26.7473 32.8125 27.625 31.9348 27.625 30.8438C27.625 29.7527 26.7473 28.875 25.6562 28.875H13.8438Z" fill="#F9F9F9"/>
</g>
<defs>
<filter id="filter0_d_2429_823" x="0" y="0" width="39.5" height="50" filterUnits="userSpaceOnUse" color-interpolation-filters="sRGB">
<feFlood flood-opacity="0" result="BackgroundImageFix"/>
<feColorMatrix in="SourceAlpha" type="matrix" values="0 0 0 0 0 0 0 0 0 0 0 0 0 0 0 0 0 0 127 0" result="hardAlpha"/>
<feOffset dy="4"/>
<feGaussianBlur stdDeviation="2"/>
<feComposite in2="hardAlpha" operator="out"/>
<feColorMatrix type="matrix" values="0 0 0 0 0 0 0 0 0 0 0 0 0 0 0 0 0 0 0.25 0"/>
<feBlend mode="normal" in2="BackgroundImageFix" result="effect1_dropShadow_2429_823"/>
<feBlend mode="normal" in="SourceGraphic" in2="effect1_dropShadow_2429_823" result="shape"/>
</filter>
</defs>
</svg>
