<svg width="18" height="18" viewBox="0 0 18 18" fill="none" xmlns="http://www.w3.org/2000/svg">
<path d="M9.34755 0.144358C9.01071 -0.0481193 8.59483 -0.0481193 8.25455 0.144358L0.555474 4.54383C0.122401 4.7913 -0.0906988 5.29999 0.0364735 5.78118C0.163646 6.26238 0.603593 6.59921 1.10197 6.59921H2.20184V13.7484L0.44205 15.0682C0.163646 15.2744 0.00210258 15.6009 0.00210258 15.9481C0.00210258 16.5565 0.493606 17.048 1.10197 17.048H16.5001C17.1085 17.048 17.6 16.5565 17.6 15.9481C17.6 15.6009 17.4385 15.2744 17.1601 15.0682L15.4003 13.7484V6.59921H16.5001C16.9985 6.59921 17.435 6.26238 17.5622 5.78118C17.6894 5.29999 17.4763 4.7913 17.0432 4.54383L9.34411 0.144358H9.34755ZM13.7505 6.59921V13.7484H11.5507V6.59921H13.7505ZM9.90092 6.59921V13.7484H7.70118V6.59921H9.90092ZM6.05138 6.59921V13.7484H3.85164V6.59921H6.05138ZM8.80105 2.74967C9.40942 2.74967 9.90092 3.24118 9.90092 3.84954C9.90092 4.45791 9.40942 4.94941 8.80105 4.94941C8.19269 4.94941 7.70118 4.45791 7.70118 3.84954C7.70118 3.24118 8.19269 2.74967 8.80105 2.74967Z" fill="#F9F9F9"/>
</svg>
