<svg width="50" height="50" viewBox="0 0 50 50" fill="none" xmlns="http://www.w3.org/2000/svg">
<g filter="url(#filter0_d_2429_746)">
<path d="M31.6306 17.839C32.4778 17.6098 33.3667 18.0126 33.7487 18.7973L35.0403 21.4084C35.7556 21.5057 36.457 21.7001 37.1167 21.9709L39.5472 20.3529C40.2764 19.8668 41.2417 19.964 41.8597 20.582L43.1931 21.9154C43.8111 22.5334 43.9083 23.5056 43.4222 24.2279L41.8042 26.6515C41.9361 26.9778 42.0542 27.3181 42.1514 27.6723C42.2486 28.0265 42.3111 28.3737 42.3597 28.7278L44.9778 30.0195C45.7625 30.4084 46.1653 31.2973 45.9361 32.1375L45.45 33.957C45.2208 34.7972 44.4361 35.3667 43.5611 35.3111L40.6445 35.1236C40.207 35.6861 39.7 36.207 39.1236 36.6514L39.3111 39.5611C39.3667 40.4361 38.7973 41.2278 37.957 41.45L36.1375 41.9361C35.2903 42.1653 34.4084 41.7625 34.0195 40.9778L32.7278 38.3667C32.0126 38.2694 31.3112 38.075 30.6515 37.8042L28.2209 39.4222C27.4918 39.9083 26.5265 39.8111 25.9084 39.1931L24.5751 37.8597C23.9571 37.2417 23.8598 36.2764 24.3459 35.5472L25.964 33.1167C25.832 32.7903 25.714 32.45 25.6168 32.0959C25.5195 31.7417 25.457 31.3875 25.4084 31.0403L22.7904 29.7487C22.0057 29.3598 21.6098 28.4709 21.8321 27.6306L22.3182 25.8112C22.5473 24.9709 23.3321 24.4015 24.2071 24.457L27.1168 24.6445C27.5543 24.082 28.0612 23.5612 28.6376 23.1168L28.4501 20.214C28.3945 19.339 28.964 18.5473 29.8042 18.3251L31.6237 17.839H31.6306ZM33.8876 26.832C32.2001 26.832 30.832 28.2001 30.839 29.8945C30.839 31.582 32.207 32.9431 33.8945 32.9431C35.582 32.9431 36.95 31.575 36.95 29.8876C36.9431 28.1931 35.575 26.832 33.8876 26.832ZM18.3668 0.0613276L20.1862 0.547436C21.0265 0.776601 21.596 1.56826 21.5404 2.43631L21.3529 5.33908C21.9293 5.78352 22.4362 6.2974 22.8737 6.86685L25.7904 6.67935C26.6584 6.62379 27.4501 7.19323 27.6793 8.03351L28.1654 9.85294C28.3876 10.6932 27.9918 11.5821 27.207 11.971L24.589 13.2626C24.5404 13.6168 24.4709 13.971 24.3807 14.3182C24.2904 14.6654 24.1654 15.0126 24.0334 15.339L25.6515 17.7696C26.1376 18.4987 26.0404 19.464 25.4223 20.082L24.089 21.4154C23.4709 22.0334 22.5057 22.1306 21.7765 21.6445L19.346 20.0265C18.6862 20.2973 17.9849 20.4918 17.2696 20.589L15.9779 23.2001C15.589 23.9848 14.7002 24.3806 13.8599 24.1584L12.0405 23.6723C11.1932 23.4431 10.6307 22.6515 10.6863 21.7834L10.8738 18.8737C10.2974 18.4293 9.79046 17.9154 9.35297 17.346L6.43631 17.5335C5.56826 17.589 4.7766 17.0196 4.54744 16.1793L4.06133 14.3599C3.83911 13.5196 4.23494 12.6307 5.01966 12.2418L7.6377 10.9502C7.68631 10.596 7.75575 10.2488 7.84603 9.89461C7.94325 9.54044 8.05436 9.20017 8.19325 8.87378L6.5752 6.45018C6.08909 5.72102 6.18632 4.75575 6.80437 4.13769L8.13769 2.80437C8.75575 2.18632 9.72102 2.08909 10.4502 2.5752L12.8807 4.19325C13.5404 3.92242 14.2418 3.72797 14.9571 3.63075L16.2488 1.01966C16.6376 0.234938 17.5196 -0.160893 18.3668 0.0613276ZM16.1099 9.05433C14.4224 9.05433 13.0543 10.4224 13.0543 12.1099C13.0543 13.7974 14.4224 15.1654 16.1099 15.1654C17.7974 15.1654 19.1654 13.7974 19.1654 12.1099C19.1654 10.4224 17.7974 9.05433 16.1099 9.05433Z" fill="#F9F9F9"/>
</g>
<defs>
<filter id="filter0_d_2429_746" x="0" y="0" width="50" height="50" filterUnits="userSpaceOnUse" color-interpolation-filters="sRGB">
<feFlood flood-opacity="0" result="BackgroundImageFix"/>
<feColorMatrix in="SourceAlpha" type="matrix" values="0 0 0 0 0 0 0 0 0 0 0 0 0 0 0 0 0 0 127 0" result="hardAlpha"/>
<feOffset dy="4"/>
<feGaussianBlur stdDeviation="2"/>
<feComposite in2="hardAlpha" operator="out"/>
<feColorMatrix type="matrix" values="0 0 0 0 0 0 0 0 0 0 0 0 0 0 0 0 0 0 0.25 0"/>
<feBlend mode="normal" in2="BackgroundImageFix" result="effect1_dropShadow_2429_746"/>
<feBlend mode="normal" in="SourceGraphic" in2="effect1_dropShadow_2429_746" result="shape"/>
</filter>
</defs>
</svg>
