<svg width="40" height="50" viewBox="0 0 40 50" fill="none" xmlns="http://www.w3.org/2000/svg">
<g filter="url(#filter0_d_2429_742)">
<path d="M6.625 0C5.17305 0 4 1.17305 4 2.625C4 4.07695 5.17305 5.25 6.625 5.25V6.15234C6.625 9.63047 8.01133 12.9691 10.4723 15.4301L16.0422 21L10.4723 26.5699C8.01133 29.0309 6.625 32.3695 6.625 35.8477V36.75C5.17305 36.75 4 37.923 4 39.375C4 40.827 5.17305 42 6.625 42H32.875C34.327 42 35.5 40.827 35.5 39.375C35.5 37.923 34.327 36.75 32.875 36.75V35.8477C32.875 32.3695 31.4887 29.0309 29.0277 26.5699L23.4578 21L29.0277 15.4301C31.4887 12.9691 32.875 9.63047 32.875 6.15234V5.25C34.327 5.25 35.5 4.07695 35.5 2.625C35.5 1.17305 34.327 0 32.875 0H6.625ZM11.875 6.15234V5.25H27.625V6.15234C27.625 7.71094 27.1656 9.22031 26.3125 10.5H13.1875C12.3426 9.22031 11.875 7.71094 11.875 6.15234ZM13.1875 31.5C13.4746 31.0652 13.8109 30.6551 14.1801 30.2777L19.75 24.7078L25.3199 30.2777C25.6973 30.6551 26.0254 31.0652 26.3207 31.5H13.1875Z" fill="#F9F9F9"/>
</g>
<defs>
<filter id="filter0_d_2429_742" x="0" y="0" width="39.5" height="50" filterUnits="userSpaceOnUse" color-interpolation-filters="sRGB">
<feFlood flood-opacity="0" result="BackgroundImageFix"/>
<feColorMatrix in="SourceAlpha" type="matrix" values="0 0 0 0 0 0 0 0 0 0 0 0 0 0 0 0 0 0 127 0" result="hardAlpha"/>
<feOffset dy="4"/>
<feGaussianBlur stdDeviation="2"/>
<feComposite in2="hardAlpha" operator="out"/>
<feColorMatrix type="matrix" values="0 0 0 0 0 0 0 0 0 0 0 0 0 0 0 0 0 0 0.25 0"/>
<feBlend mode="normal" in2="BackgroundImageFix" result="effect1_dropShadow_2429_742"/>
<feBlend mode="normal" in="SourceGraphic" in2="effect1_dropShadow_2429_742" result="shape"/>
</filter>
</defs>
</svg>
