<svg width="48" height="48" viewBox="0 0 48 48" fill="none" xmlns="http://www.w3.org/2000/svg">
<path d="M30.8571 13.7143H41.1429V6.85714H30.8571V13.7143ZM0 13.7143V5.14286C0 2.30357 2.30357 0 5.14286 0H42.8571C45.6964 0 48 2.30357 48 5.14286V15.4286C48 18.2679 45.6964 20.5714 42.8571 20.5714H5.14286C2.30357 20.5714 0 18.2679 0 15.4286V13.7143ZM17.1429 41.1429H41.1429V34.2857H17.1429V41.1429ZM0 41.1429V32.5714C0 29.7321 2.30357 27.4286 5.14286 27.4286H42.8571C45.6964 27.4286 48 29.7321 48 32.5714V42.8571C48 45.6964 45.6964 48 42.8571 48H5.14286C2.30357 48 0 45.6964 0 42.8571V41.1429Z" fill="#F9F9F9"/>
</svg>
