<svg width="17" height="18" viewBox="0 0 17 18" fill="none" xmlns="http://www.w3.org/2000/svg">
<path d="M8.29192 0C8.45092 0 8.60991 0.0345641 8.75508 0.100236L15.2669 2.8619C16.0274 3.18335 16.5942 3.93339 16.5907 4.83896C16.5735 8.26771 15.1633 14.5411 9.20787 17.3926C8.63065 17.6691 7.96011 17.6691 7.38289 17.3926C1.42405 14.5411 0.0172977 8.26771 1.57214e-05 4.83896C-0.00344068 3.93339 0.563409 3.18335 1.32382 2.8619L7.83222 0.100236C7.97739 0.0345641 8.13293 0 8.29192 0ZM8.29192 2.30888V15.3775C13.0618 13.0687 14.3441 7.95318 14.3752 4.89081L8.29192 2.31233V2.30888Z" fill="#F9F9F9"/>
</svg>
