<svg width="17" height="17" viewBox="0 0 17 17" fill="none" xmlns="http://www.w3.org/2000/svg">
<path d="M9.02888 0.139436C8.70353 -0.0464788 8.30182 -0.0464788 7.97315 0.139436L0.536537 4.38893C0.118228 4.62796 -0.0876068 5.11931 0.0352301 5.5841C0.158067 6.04889 0.583016 6.37424 1.0644 6.37424H2.12678V13.2797L0.42698 14.5545C0.158067 14.7537 0.0020309 15.0691 0.0020309 15.4044C0.0020309 15.992 0.476779 16.4668 1.0644 16.4668H15.9376C16.5253 16.4668 17 15.992 17 15.4044C17 15.0691 16.844 14.7537 16.5751 14.5545L14.8753 13.2797V6.37424H15.9376C16.419 6.37424 16.8406 6.04889 16.9635 5.5841C17.0863 5.11931 16.8805 4.62796 16.4622 4.38893L9.02556 0.139436H9.02888ZM13.2817 6.37424V13.2797H11.1569V6.37424H13.2817ZM9.56339 6.37424V13.2797H7.43864V6.37424H9.56339ZM5.84508 6.37424V13.2797H3.72034V6.37424H5.84508ZM8.50102 2.65593C9.08864 2.65593 9.56339 3.13068 9.56339 3.71831C9.56339 4.30593 9.08864 4.78068 8.50102 4.78068C7.91339 4.78068 7.43864 4.30593 7.43864 3.71831C7.43864 3.13068 7.91339 2.65593 8.50102 2.65593Z" fill="#FF0000"/>
</svg>
