<svg width="17" height="17" viewBox="0 0 17 17" fill="none" xmlns="http://www.w3.org/2000/svg">
<path d="M11.0175 6.92539C11.0174 4.66533 9.18549 2.83324 6.92539 2.83324C4.66543 2.83341 2.83341 4.66543 2.83324 6.92539C2.83324 9.18549 4.66533 11.0174 6.92539 11.0175C9.1856 11.0175 11.0175 9.1856 11.0175 6.92539ZM13.8508 6.92539C13.8508 8.32388 13.4348 9.62448 12.7219 10.7132L16.5858 14.5812C17.1386 15.1348 17.138 16.0329 16.5844 16.5858C16.0308 17.1386 15.1327 17.138 14.5798 16.5844L10.7201 12.7178C9.63003 13.4333 8.32677 13.8508 6.92539 13.8508C3.10058 13.8506 0 10.7503 0 6.92539C0.000166099 3.10068 3.10068 0.000166095 6.92539 0C10.7503 0 13.8506 3.10058 13.8508 6.92539Z" fill="#FF0000"/>
</svg>
