<svg width="45" height="45" viewBox="0 0 45 45" fill="none" xmlns="http://www.w3.org/2000/svg">
<path d="M22.9521 0C28.0802 0.0486342 33.2276 1.16255 38.0889 3.43359C38.6909 3.71471 39.6393 4.18229 40.5625 4.69531C41.1532 5.02358 41.8396 5.43099 42.4365 5.86133L43.1064 6.28027L43.1074 6.28125L44.6338 7.26465L44.6729 9.07715C44.68 9.41831 44.6787 9.75484 44.6738 10.0771C44.6772 10.2989 44.674 10.5167 44.666 10.708V10.7158L44.6436 11.2266C44.5162 15.6603 43.3447 20.6641 41.5273 24.9531L41.1777 25.8232L40.8076 26.6973L40.5264 27.3447L40.4717 27.4727L40.4023 27.5938L38.3711 31.1982C35.7202 36.1239 31.2776 40.1093 26.8594 42.8643L26.8457 42.8779L26.5693 43.0469C26.3936 43.154 25.8002 43.5208 25.2109 43.8496C24.9177 44.0132 24.5632 44.2027 24.2236 44.3564C24.1082 44.4087 23.9438 44.4795 23.7549 44.5479L23.5576 44.6152C23.4289 44.6556 22.9507 44.8058 22.3369 44.7998C21.7256 44.8051 21.2492 44.6558 21.1201 44.6152C20.9845 44.5726 20.857 44.5248 20.7441 44.4795L20.4551 44.3564C20.1153 44.2027 19.7612 44.0133 19.4678 43.8496C18.8784 43.5208 18.2851 43.154 18.1094 43.0469L17.832 42.8779L17.8164 42.8623C13.3998 40.1078 8.95811 36.1247 6.30762 31.2012L5.98438 30.6006L4.28125 27.6025L4.20898 27.4775L4.15137 27.3447L3.87012 26.6973C3.61716 26.1161 3.37736 25.5337 3.14941 24.9531C1.33226 20.6641 0.162495 15.6596 0.0351562 11.2266L0.0126953 10.7158L0.0117188 10.708C0.00400523 10.5243 0.000596494 10.3046 0.00390625 10.0771L0 9.58105C0.000249815 9.41454 0.00133781 9.2465 0.00488281 9.07812L0.0439453 7.26465L1.57031 6.28125L1.57227 6.28027C1.79522 6.13696 2.01865 5.99767 2.24023 5.86133C2.83807 5.43034 3.52587 5.02286 4.11523 4.69531C4.80779 4.31047 5.51452 3.95068 6.07812 3.67676L6.58887 3.43359C11.4505 1.16225 16.5982 0.0486239 21.7266 0H22.9521ZM36.9414 5.89355C25.8623 0.717183 13.1922 2.03764 3.04004 8.56348L2.72754 8.76562L2.71973 9.13672C2.6598 11.9859 3.11241 14.9426 3.72754 17.6748C4.34379 20.4079 5.24676 23.0613 6.3584 25.6152L6.64062 26.2627L7.28613 25.9736C9.60673 24.9287 11.9254 23.9736 14.3564 23.4717L16.8936 26.5518C16.804 26.564 16.7118 26.5786 16.6182 26.5908C13.9811 26.9338 11.3719 27.766 8.99805 28.957L8.35645 29.2803L8.69727 29.9131C11.1085 34.3933 15.2732 38.1298 19.5215 40.7285L19.5225 40.7305C19.7169 40.849 20.2579 41.182 20.791 41.4795C21.0566 41.6277 21.3345 41.7753 21.5742 41.8838C21.693 41.9375 21.8175 41.9886 21.9346 42.0254C22.0195 42.0521 22.2161 42.111 22.4277 42.0801L22.5586 42.0498C22.5951 42.0386 22.6251 42.0283 22.6426 42.0215C22.6903 42.0029 22.7395 41.9805 22.7852 41.959C22.8773 41.9156 22.9862 41.8593 23.1006 41.7979C23.3312 41.6739 23.6155 41.5119 23.8975 41.3477C24.4626 41.0185 25.0443 40.6654 25.2314 40.5498L26.1396 39.9648C28.5658 38.3422 30.5072 36.4252 32.5557 34.3594L28.2676 32.9375L27.9746 33.1904C26.7964 34.2095 25.6766 35.2123 24.457 36.0869C24.2845 36.2108 23.6762 36.6335 23.085 37.0156C22.7886 37.2072 22.5065 37.3827 22.29 37.5039C22.2681 37.5161 22.246 37.5247 22.2266 37.5352C19.3867 35.8363 16.8147 33.6895 14.6562 31.1934C14.6594 31.1925 14.6629 31.1913 14.666 31.1904C20.908 29.4277 27.4812 30.5237 33.5264 32.5254C34.8908 30.8549 36.2502 29.1712 37.3389 27.3027C40.0006 22.7353 41.7887 16.3951 41.9316 11.1055L41.9551 10.5938C41.9637 10.3881 41.9686 10.1615 41.959 9.95703C41.9402 9.55958 41.8642 8.95921 41.4424 8.5459C40.9588 8.07211 40.0759 7.52907 39.2451 7.06738C38.3896 6.59198 37.5002 6.15448 36.9414 5.89355ZM17.2295 7.23145C23.6078 6.0957 30.3218 7.10444 36.0742 10.0459C36.2546 10.138 36.7849 10.4141 37.2676 10.7002C37.491 10.8326 37.6897 10.9597 37.8359 11.0654C37.8332 11.0754 37.8307 11.0856 37.8281 11.0957C37.8097 11.1684 37.7883 11.2711 37.7842 11.3857C37.7433 12.6035 37.7091 13.6515 37.5527 14.8223C36.9325 19.4554 35.1375 24.0054 32.4521 27.8145C29.1086 26.8697 25.6354 26.1916 22.0957 26.1758C20.7281 25.1363 19.5817 23.5991 18.5986 22.2129C16.8247 19.7123 15.522 16.7619 15.333 13.751C15.4597 13.693 15.6197 13.6279 15.7988 13.5625C16.2421 13.4008 16.7262 13.2565 16.9062 13.2051C20.8666 12.0734 25.1849 12.2596 29.0703 13.624C29.0369 15.5256 28.5247 17.4009 27.9736 19.3291C24.9109 18.6499 21.7523 18.4354 18.623 18.6387L17.502 18.7109L18.0635 19.6846C18.1419 19.8204 18.5102 20.4782 18.874 21.0918C19.0569 21.4002 19.2471 21.7115 19.4082 21.9541C19.4876 22.0737 19.568 22.1885 19.6416 22.2812C19.6778 22.3269 19.7217 22.3803 19.7705 22.4287C19.7991 22.457 19.9066 22.5649 20.0693 22.626L20.1992 22.6748L20.3379 22.6699C23.4845 22.5642 26.6426 23.1386 29.7275 23.9717L30.2832 24.1221L30.5361 23.6055C30.5361 23.6055 30.5382 23.6023 30.5391 23.6006C30.5409 23.5967 30.5433 23.5902 30.5469 23.583C30.5541 23.5684 30.5658 23.5476 30.5791 23.5205C30.606 23.4656 30.6444 23.3859 30.6914 23.2891C30.7857 23.0946 30.9145 22.8264 31.0508 22.5371C31.3161 21.9739 31.6327 21.279 31.7686 20.8877C32.548 18.6439 33.1252 15.926 33.2344 13.5312C33.244 13.3194 33.2711 12.8135 33.2607 12.3311C33.2556 12.0917 33.241 11.834 33.2051 11.6094C33.1872 11.4978 33.1612 11.3733 33.1191 11.2549C33.0917 11.1778 33.0413 11.0572 32.9492 10.9404L32.8418 10.8262C32.7489 10.7439 32.6372 10.6768 32.5557 10.6309C32.4628 10.5785 32.3563 10.524 32.2451 10.4707C32.0215 10.3636 31.752 10.2466 31.4854 10.1357C30.9533 9.91465 30.3957 9.70356 30.1543 9.62012C25.1537 7.88836 19.3785 7.89513 14.3857 9.69824L13.9043 9.87891C13.7369 9.94421 13.2494 10.1469 12.7891 10.3486C12.5586 10.4496 12.3274 10.5535 12.1426 10.6426C12.0508 10.6868 11.9618 10.7312 11.8887 10.7715C11.8474 10.7942 11.7158 10.8652 11.6172 10.9639C11.4494 11.1324 11.3663 11.3382 11.3203 11.4883C11.271 11.6498 11.2419 11.8242 11.2246 11.9902C11.1899 12.3227 11.1929 12.7062 11.21 13.0713C11.2444 13.8058 11.3434 14.5657 11.3867 14.8975C11.5897 16.4609 11.9635 18.0428 12.4668 19.542C11.2326 19.8379 10.0073 20.2153 8.82227 20.6914C8.80042 20.627 8.7761 20.5571 8.75195 20.4814C8.58669 19.9637 8.3921 19.2579 8.20117 18.5215C8.00972 17.783 7.82593 17.0278 7.68262 16.4189L7.40723 15.1914C7.1516 13.8292 6.94694 12.435 6.88477 11.0889C10.1112 9.27803 13.6039 7.87661 17.2295 7.23145Z" fill="#F9F9F9"/>
</svg>
