<svg width="17" height="17" viewBox="0 0 17 17" fill="none" xmlns="http://www.w3.org/2000/svg">
<path d="M8.00924 0C8.16282 0 8.31639 0.0333858 8.45661 0.0968186L14.7465 2.76434C15.481 3.07482 16.0285 3.79929 16.0252 4.674C16.0085 7.98586 14.6463 14.0454 8.89397 16.7997C8.33642 17.0668 7.68874 17.0668 7.1312 16.7997C1.37551 14.0454 0.016708 7.98586 1.51855e-05 4.674C-0.00332338 3.79929 0.544202 3.07482 1.27869 2.76434L7.56522 0.0968186C7.70544 0.0333858 7.85567 0 8.00924 0ZM8.00924 2.23017V14.8533C12.6165 12.6231 13.8551 7.68205 13.8851 4.72408L8.00924 2.2335V2.23017Z" fill="#FF0000"/>
</svg>
