<svg width="19" height="20" viewBox="0 0 19 20" fill="none" xmlns="http://www.w3.org/2000/svg">
<path d="M5 0C5.55417 0 6 0.445833 6 1V2.66667H12.6667V1C12.6667 0.445833 13.1125 0 13.6667 0C14.2208 0 14.6667 0.445833 14.6667 1V2.66667H16C17.4708 2.66667 18.6667 3.8625 18.6667 5.33333V17.3333C18.6667 18.8042 17.4708 20 16 20H2.66667C1.19583 20 0 18.8042 0 17.3333V5.33333C0 3.8625 1.19583 2.66667 2.66667 2.66667H4V1C4 0.445833 4.44583 0 5 0ZM5 4.66667H2.66667C2.3 4.66667 2 4.96667 2 5.33333V7.33333H16.6667V5.33333C16.6667 4.96667 16.3667 4.66667 16 4.66667H5ZM2 9.33333V17.3333C2 17.7 2.3 18 2.66667 18H16C16.3667 18 16.6667 17.7 16.6667 17.3333V9.33333H2Z" fill="#6F0000"/>
</svg>
