<svg width="68" height="48" viewBox="0 0 68 48" fill="none" xmlns="http://www.w3.org/2000/svg">
<path d="M66.0194 38.7358V45.684C66.0194 46.9624 64.9818 48 63.7034 48H61.3873C60.1089 48 59.0713 46.9624 59.0713 45.684V38.7358C59.0713 37.4574 60.1089 36.4198 61.3873 36.4198V18.9591L35.4523 16.884C35.0331 17.4792 34.3753 17.8914 33.5948 17.8914C32.3163 17.8914 31.2787 16.8538 31.2787 15.5754C31.2787 14.2969 32.3163 13.2593 33.5948 13.2593C34.5119 13.2593 35.2901 13.8036 35.6653 14.5795L61.5726 16.6524C62.7677 16.7473 63.7034 17.7617 63.7034 18.9614V36.4198C64.9818 36.4198 66.0194 37.4574 66.0194 38.7358ZM33.5948 33.4668C32.3279 33.4668 31.061 33.2098 29.8822 32.6933L15.0664 26.2107V31.3685C15.0664 33.9995 16.5533 36.4059 18.9064 37.5824C23.5316 39.8962 28.562 41.0519 33.5948 41.0519C38.6276 41.0519 43.658 39.8962 48.2808 37.5848C50.6362 36.4082 52.1231 34.0018 52.1231 31.3708V26.213L37.3074 32.6956C36.1285 33.2098 34.8617 33.4668 33.5948 33.4668ZM65.8017 13.4539L36.3787 0.581327C35.4916 0.192231 34.5444 0 33.5948 0C32.6452 0 31.698 0.194547 30.8109 0.583643L1.38789 13.4539C-0.46263 14.2645 -0.46263 16.8886 1.38789 17.6969L30.8086 30.5718C32.5804 31.3453 34.6092 31.3453 36.3787 30.5718L58.1865 21.0274L36.3277 19.2787C35.5472 19.8786 34.6 20.2075 33.5948 20.2075C31.0402 20.2075 28.9627 18.13 28.9627 15.5754C28.9627 13.0208 31.0402 10.9433 33.5948 10.9433C34.8732 10.9433 36.0544 11.4621 36.909 12.3538L61.7579 14.3409C63.708 14.4961 65.2898 15.8834 65.8133 17.6876C67.6499 16.8747 67.6476 14.2622 65.8017 13.4539Z" fill="#F9F9F9"/>
</svg>
