<svg width="17" height="13" viewBox="0 0 17 13" fill="none" xmlns="http://www.w3.org/2000/svg">
<path d="M16.7042 9.80093V11.5589C16.7042 11.8824 16.4417 12.1449 16.1182 12.1449H15.5322C15.2087 12.1449 14.9462 11.8824 14.9462 11.5589V9.80093C14.9462 9.47746 15.2087 9.21493 15.5322 9.21493V4.79704L8.97012 4.27197C8.86405 4.42258 8.69763 4.52689 8.50015 4.52689C8.17667 4.52689 7.91414 4.26436 7.91414 3.94088C7.91414 3.61741 8.17667 3.35488 8.50015 3.35488C8.7322 3.35488 8.9291 3.49259 9.02403 3.6889L15.5791 4.21337C15.8815 4.2374 16.1182 4.49407 16.1182 4.79762V9.21493C16.4417 9.21493 16.7042 9.47746 16.7042 9.80093ZM8.50015 8.46777C8.1796 8.46777 7.85906 8.40272 7.56078 8.27204L3.81211 6.63182V7.93685C3.81211 8.60255 4.18832 9.21141 4.7837 9.5091C5.95396 10.0945 7.22676 10.3869 8.50015 10.3869C9.77353 10.3869 11.0463 10.0945 12.216 9.50969C12.812 9.212 13.1882 8.60314 13.1882 7.93743V6.6324L9.43951 8.27263C9.14123 8.40272 8.82069 8.46777 8.50015 8.46777ZM16.6491 3.4041L9.20452 0.147087C8.98008 0.0486384 8.74041 0 8.50015 0C8.25988 0 8.02021 0.0492243 7.79577 0.147673L0.351163 3.4041C-0.117054 3.6092 -0.117054 4.27315 0.351163 4.47766L7.79518 7.73526C8.24348 7.93099 8.75681 7.93099 9.20452 7.73526L14.7223 5.32034L9.19163 4.8779C8.99415 5.02968 8.75447 5.11289 8.50015 5.11289C7.85378 5.11289 7.32814 4.58725 7.32814 3.94088C7.32814 3.29452 7.85378 2.76887 8.50015 2.76887C8.82362 2.76887 9.12248 2.90014 9.33872 3.12575L15.626 3.62854C16.1194 3.6678 16.5196 4.01882 16.6521 4.47532C17.1168 4.26963 17.1162 3.60862 16.6491 3.4041Z" fill="#FF0000"/>
</svg>
