<svg width="50" height="50" viewBox="0 0 50 50" fill="none" xmlns="http://www.w3.org/2000/svg">
<g filter="url(#filter0_d_2153_834)">
<path fill-rule="evenodd" clip-rule="evenodd" d="M25 0C36.598 0 46 9.40202 46 21C46 32.598 36.598 42 25 42C13.402 42 4 32.598 4 21C4 9.40202 13.402 0 25 0ZM10.4477 29.4C12.5972 33.116 16.1294 35.9314 20.3406 37.1446C18.7263 34.7929 17.4535 32.1877 16.5967 29.4H10.4477ZM33.4049 29.4C32.5482 32.1876 31.2745 34.7921 29.6602 37.1437C33.871 35.9304 37.4029 33.1157 39.5523 29.4H33.4049ZM21.0289 29.4C21.9656 31.95 23.3162 34.2997 25.0008 36.3686C26.6854 34.2997 28.0361 31.95 28.9728 29.4H21.0289ZM8.72992 16.8C8.38439 18.1425 8.2 19.5497 8.2 21C8.2 22.4503 8.38439 23.8575 8.72992 25.2H15.6484C15.4463 23.8292 15.3408 22.4267 15.3408 21C15.3408 19.5732 15.4463 18.1708 15.6484 16.8H8.72992ZM29.6602 4.85543C31.2746 7.20719 32.5481 9.81219 33.4049 12.6H39.5523C37.4029 8.88426 33.8711 6.06874 29.6602 4.85543ZM25.0008 5.63062C23.316 7.69962 21.9657 10.0498 21.0289 12.6H28.9728C28.036 10.0499 26.6856 7.6996 25.0008 5.63062ZM20.3406 4.85461C16.1293 6.06776 12.5973 8.88397 10.4477 12.6H16.5967C17.4535 9.81211 18.7262 7.20642 20.3406 4.85461ZM19.5408 21C19.5408 22.4323 19.6648 23.8357 19.9018 25.2H30.0999C30.3369 23.8357 30.4608 22.4323 30.4608 21C30.4608 19.5676 30.3369 18.1643 30.0999 16.8H19.9018C19.6648 18.1643 19.5408 19.5676 19.5408 21ZM34.6608 21C34.6608 22.4267 34.5553 23.8292 34.3532 25.2H41.2701C41.6156 23.8575 41.8 22.4503 41.8 21C41.8 19.5497 41.6156 18.1425 41.2701 16.8H34.3532C34.5554 18.1708 34.6608 19.5732 34.6608 21Z" fill="#F9F9F9"/>
</g>
<defs>
<filter id="filter0_d_2153_834" x="0" y="0" width="50" height="50" filterUnits="userSpaceOnUse" color-interpolation-filters="sRGB">
<feFlood flood-opacity="0" result="BackgroundImageFix"/>
<feColorMatrix in="SourceAlpha" type="matrix" values="0 0 0 0 0 0 0 0 0 0 0 0 0 0 0 0 0 0 127 0" result="hardAlpha"/>
<feOffset dy="4"/>
<feGaussianBlur stdDeviation="2"/>
<feComposite in2="hardAlpha" operator="out"/>
<feColorMatrix type="matrix" values="0 0 0 0 0 0 0 0 0 0 0 0 0 0 0 0 0 0 0.25 0"/>
<feBlend mode="normal" in2="BackgroundImageFix" result="effect1_dropShadow_2153_834"/>
<feBlend mode="normal" in="SourceGraphic" in2="effect1_dropShadow_2153_834" result="shape"/>
</filter>
</defs>
</svg>
