<svg width="18" height="20" viewBox="0 0 18 20" fill="none" xmlns="http://www.w3.org/2000/svg">
<path d="M9.63328 0.366229C9.14498 -0.122076 8.35197 -0.122076 7.86366 0.366229L2.86342 5.36647C2.37512 5.85478 2.37512 6.64779 2.86342 7.13609C3.35173 7.6244 4.14473 7.6244 4.63304 7.13609L7.50037 4.26876V12.4996C7.50037 13.1911 8.05899 13.7497 8.75043 13.7497C9.44187 13.7497 10.0005 13.1911 10.0005 12.4996V4.26876L12.8678 7.13609C13.3561 7.6244 14.1491 7.6244 14.6374 7.13609C15.1257 6.64779 15.1257 5.85478 14.6374 5.36647L9.63719 0.366229H9.63328ZM2.50012 13.7497C2.50012 13.0583 1.9415 12.4996 1.25006 12.4996C0.558621 12.4996 0 13.0583 0 13.7497V16.2498C0 18.3202 1.67977 20 3.75018 20H13.7507C15.8211 20 17.5009 18.3202 17.5009 16.2498V13.7497C17.5009 13.0583 16.9422 12.4996 16.2508 12.4996C15.5594 12.4996 15.0007 13.0583 15.0007 13.7497V16.2498C15.0007 16.9413 14.4421 17.4999 13.7507 17.4999H3.75018C3.05874 17.4999 2.50012 16.9413 2.50012 16.2498V13.7497Z" fill="#6F0000"/>
</svg>
