<svg width="20" height="14" viewBox="0 0 20 14" fill="none" xmlns="http://www.w3.org/2000/svg">
<path d="M19.2557 11.2979V13.3245C19.2557 13.6974 18.953 14 18.5801 14H17.9046C17.5317 14 17.2291 13.6974 17.2291 13.3245V11.2979C17.2291 10.9251 17.5317 10.6224 17.9046 10.6224V5.52975L10.3402 4.92449C10.218 5.09809 10.0261 5.21834 9.79848 5.21834C9.4256 5.21834 9.12297 4.91571 9.12297 4.54282C9.12297 4.16994 9.4256 3.86731 9.79848 3.86731C10.066 3.86731 10.293 4.02606 10.4024 4.25235L17.9587 4.85694C18.3072 4.88463 18.5801 5.18051 18.5801 5.53042V10.6224C18.953 10.6224 19.2557 10.9251 19.2557 11.2979ZM9.79848 9.76116C9.42897 9.76116 9.05947 9.68618 8.71563 9.53554L4.39438 7.64478V9.14914C4.39438 9.91653 4.82806 10.6184 5.51438 10.9615C6.86338 11.6364 8.33059 11.9735 9.79848 11.9735C11.2664 11.9735 12.7336 11.6364 14.0819 10.9622C14.7689 10.6191 15.2026 9.9172 15.2026 9.14982V7.64545L10.8813 9.53621C10.5375 9.68618 10.168 9.76116 9.79848 9.76116ZM19.1922 3.92405L10.6104 0.169554C10.3517 0.0560675 10.0754 0 9.79848 0C9.52152 0 9.24523 0.056743 8.98651 0.170229L0.404801 3.92405C-0.134934 4.16048 -0.134934 4.92584 0.404801 5.16159L8.98584 8.91677C9.5026 9.14239 10.0944 9.14239 10.6104 8.91677L16.9711 6.13298L10.5956 5.62297C10.3679 5.79792 10.0917 5.89385 9.79848 5.89385C9.05339 5.89385 8.44745 5.28791 8.44745 4.54282C8.44745 3.79773 9.05339 3.1918 9.79848 3.1918C10.1714 3.1918 10.5159 3.34311 10.7651 3.60318L18.0127 4.18277C18.5815 4.22803 19.0429 4.63267 19.1955 5.15889C19.7312 4.92178 19.7305 4.15981 19.1922 3.92405Z" fill="#1A1C1C"/>
</svg>
