<svg width="50" height="50" viewBox="0 0 50 50" fill="none" xmlns="http://www.w3.org/2000/svg">
<g filter="url(#filter0_d_2153_820)">
<path d="M46 21C46 25.1534 44.7684 29.2135 42.4609 32.667C40.1534 36.1204 36.8736 38.812 33.0364 40.4015C29.1991 41.9909 24.9767 42.4068 20.9031 41.5965C16.8295 40.7862 13.0877 38.7861 10.1508 35.8492C7.21386 32.9123 5.21381 29.1705 4.40352 25.0969C3.59323 21.0233 4.0091 16.8009 5.59854 12.9636C7.18798 9.1264 9.8796 5.84665 13.333 3.53914C16.7865 1.23163 20.8466 0 25 0C27.7578 0 30.4885 0.543181 33.0364 1.59853C35.5842 2.65388 37.8992 4.20073 39.8492 6.15076C41.7993 8.10079 43.3461 10.4158 44.4015 12.9636C45.4568 15.5115 46 18.2422 46 21ZM37.2546 29.2308L30.8249 22.8011C32.2686 20.6197 32.8505 17.9798 32.4578 15.3937C32.065 12.8075 30.7257 10.4594 28.6996 8.80487C26.6736 7.15035 24.1051 6.30739 21.4927 6.43951C18.8802 6.57163 16.4099 7.66942 14.5611 9.5199C12.7123 11.3704 11.6167 13.8416 11.4869 16.4542C11.3571 19.0668 12.2024 21.6345 13.8587 23.6591C15.515 25.6837 17.8643 27.0209 20.4508 27.4113C23.0374 27.8017 25.6767 27.2174 27.8568 25.7719L34.2865 32.1989C34.4815 32.3938 34.7131 32.5484 34.9679 32.6538C35.2227 32.7592 35.4958 32.8134 35.7715 32.8133C36.0472 32.8131 36.3203 32.7587 36.575 32.6531C36.8297 32.5474 37.0611 32.3927 37.256 32.1976C37.4509 32.0025 37.6054 31.771 37.7108 31.5162C37.8162 31.2614 37.8704 30.9883 37.8703 30.7126C37.8702 30.4368 37.8158 30.1638 37.7101 29.9091C37.6045 29.6544 37.4497 29.4257 37.2546 29.2308ZM28.0053 10.9867C29.3891 12.3705 30.2504 14.1913 30.4422 16.1389C30.6341 18.0865 30.1447 20.0403 29.0575 21.6675C27.9702 23.2948 26.3524 24.4946 24.4797 25.0628C22.607 25.6309 20.5952 25.5321 18.7871 24.7832C16.9791 24.0343 15.4866 22.6817 14.5641 20.9558C13.6415 19.2299 13.3459 17.2375 13.7277 15.3181C14.1094 13.3987 15.1449 11.671 16.6577 10.4295C18.1704 9.18793 20.0669 8.50933 22.0239 8.50928C23.1352 8.50606 24.2361 8.72337 25.2628 9.14864C26.2896 9.5739 27.2217 10.1987 28.0053 10.9867Z" fill="#F9F9F9"/>
</g>
<defs>
<filter id="filter0_d_2153_820" x="0" y="0" width="50" height="50" filterUnits="userSpaceOnUse" color-interpolation-filters="sRGB">
<feFlood flood-opacity="0" result="BackgroundImageFix"/>
<feColorMatrix in="SourceAlpha" type="matrix" values="0 0 0 0 0 0 0 0 0 0 0 0 0 0 0 0 0 0 127 0" result="hardAlpha"/>
<feOffset dy="4"/>
<feGaussianBlur stdDeviation="2"/>
<feComposite in2="hardAlpha" operator="out"/>
<feColorMatrix type="matrix" values="0 0 0 0 0 0 0 0 0 0 0 0 0 0 0 0 0 0 0.25 0"/>
<feBlend mode="normal" in2="BackgroundImageFix" result="effect1_dropShadow_2153_820"/>
<feBlend mode="normal" in="SourceGraphic" in2="effect1_dropShadow_2153_820" result="shape"/>
</filter>
</defs>
</svg>
