<svg width="28" height="28" viewBox="0 0 28 28" fill="none" xmlns="http://www.w3.org/2000/svg">
<path d="M10.4609 4.39061C14.3331 3.70118 18.4092 4.31287 21.9015 6.09841C22.011 6.15431 22.3334 6.32316 22.6265 6.49685C22.7622 6.57728 22.883 6.65453 22.9718 6.71873C22.9702 6.72443 22.9686 6.73015 22.9671 6.73591C22.9559 6.78 22.9431 6.84298 22.9405 6.91247C22.9157 7.65185 22.8949 8.28915 22.7999 8.99997C22.4232 11.8127 21.3333 14.575 19.7031 16.8874C17.6732 16.3139 15.5645 15.9018 13.4156 15.8921C12.5852 15.261 11.889 14.3275 11.2921 13.4859C10.2151 11.9676 9.42401 10.1765 9.30934 8.34841C9.38627 8.31322 9.48344 8.27401 9.59215 8.23434C9.86111 8.13623 10.1545 8.04842 10.264 8.01716C12.6686 7.33005 15.2909 7.44336 17.6499 8.27184C17.6296 9.42633 17.3173 10.5653 16.9827 11.7359C15.1234 11.3236 13.206 11.1937 11.3062 11.3171L10.6265 11.3609L10.9671 11.9515C11.0149 12.0342 11.2385 12.4338 11.4593 12.8062C11.5703 12.9933 11.6851 13.1825 11.7828 13.3296C11.831 13.4022 11.8803 13.4718 11.925 13.5281C11.9469 13.5557 11.9735 13.5878 12.0031 13.6171C12.0203 13.6342 12.0856 13.7003 12.1843 13.7374L12.264 13.7671L12.3484 13.764C14.2586 13.6999 16.1756 14.0489 18.0484 14.5546L18.3859 14.6453L18.539 14.3312L18.5421 14.3296C18.5433 14.3273 18.5447 14.3231 18.5468 14.3187C18.5512 14.3098 18.5575 14.2961 18.5656 14.2796C18.5819 14.2462 18.6058 14.1977 18.6343 14.139C18.6916 14.021 18.7689 13.8582 18.8515 13.6828C19.0126 13.3407 19.205 12.9187 19.2874 12.6812C19.7606 11.319 20.1117 9.66943 20.1781 8.21559C20.1839 8.087 20.2 7.77881 20.1937 7.48591C20.1905 7.34082 20.1811 7.18456 20.1593 7.04841C20.1485 6.98071 20.1333 6.9046 20.1077 6.83279C20.0911 6.78597 20.0603 6.71284 20.0046 6.64216L19.939 6.57341C19.8826 6.52344 19.8151 6.48257 19.7656 6.45466C19.7092 6.42289 19.644 6.39013 19.5765 6.35779C19.4408 6.2928 19.2773 6.22034 19.1156 6.1531C18.7927 6.01895 18.4542 5.89124 18.3077 5.8406C15.2719 4.78926 11.7655 4.79292 8.73434 5.88748L8.44216 5.99842C8.34051 6.03807 8.04353 6.16029 7.76403 6.28279C7.62416 6.34409 7.48404 6.40841 7.37185 6.46248C7.31661 6.4891 7.26289 6.51477 7.21872 6.53904C7.1939 6.55269 7.11314 6.59618 7.0531 6.65623C6.95115 6.7585 6.90133 6.88379 6.87341 6.97497C6.84345 7.07299 6.82612 7.1789 6.8156 7.27966C6.79455 7.4815 6.79586 7.71426 6.80623 7.93591C6.82711 8.38185 6.88774 8.84384 6.91404 9.04528C7.03724 9.99414 7.2633 10.9541 7.56872 11.864C6.81944 12.0437 6.07569 12.2734 5.35623 12.5625C5.34294 12.5233 5.32873 12.4803 5.31404 12.4343C5.21374 12.12 5.09553 11.6922 4.97967 11.2453C4.86343 10.7969 4.75106 10.3384 4.66405 9.96871L4.49686 9.2234C4.34167 8.39641 4.21743 7.55002 4.17967 6.73279C6.13857 5.63336 8.25966 4.78231 10.4609 4.39061Z" fill="#FF0000"/>
<path fill-rule="evenodd" clip-rule="evenodd" d="M13.9359 0C17.0491 0.0296246 20.1737 0.705634 23.1249 2.08437C23.4903 2.25498 24.0659 2.53854 24.6265 2.84999C24.9851 3.04931 25.4031 3.29649 25.7655 3.5578L26.1718 3.81249L27.0983 4.41092L27.1218 5.51092C27.1261 5.71785 27.1263 5.92166 27.1233 6.11716C27.1254 6.25186 27.1235 6.38533 27.1187 6.50154V6.50623L27.1046 6.8156C27.0273 9.50756 26.3158 12.5458 25.2124 15.1499L25.0015 15.6781L24.7765 16.2093L24.6046 16.6015L24.5718 16.6796L24.5296 16.7531L23.2968 18.9421C21.6874 21.9322 18.9899 24.3508 16.3078 26.0233L16.2999 26.0327L16.1312 26.1358C16.024 26.2012 15.6636 26.4239 15.3062 26.6233C15.1285 26.7225 14.9135 26.8364 14.7078 26.9296C14.6376 26.9613 14.5366 27.0052 14.4218 27.0468L14.3031 27.0874C14.225 27.1119 13.9348 27.2034 13.5625 27.1999C13.1916 27.2032 12.9022 27.1121 12.8234 27.0874C12.7411 27.0616 12.6638 27.0321 12.5953 27.0046L12.4187 26.9296C12.2126 26.8362 11.9967 26.7226 11.8187 26.6233C11.4616 26.4241 11.1026 26.2013 10.9953 26.1358L10.8265 26.0327L10.8171 26.0233C8.13578 24.351 5.43892 21.9328 3.82967 18.9437L3.6328 18.5781L2.59843 16.7593L2.55624 16.6828L2.5203 16.6015L2.34999 16.2093C2.19643 15.8565 2.05088 15.5024 1.91249 15.1499C0.809166 12.5458 0.0991615 9.50714 0.0218749 6.8156L0.00781247 6.50623L0.00624998 6.50154C0.00156405 6.38992 -0.000453057 6.25536 0.00156249 6.11716L0 5.81717C0.00015164 5.71606 0.000972623 5.61315 0.00312499 5.51092L0.0265624 4.41092L0.953122 3.81249C1.08856 3.72543 1.22633 3.64062 1.36093 3.5578C1.7238 3.29626 2.14077 3.04876 2.49843 2.84999C2.91891 2.61634 3.34842 2.39911 3.69061 2.2328L3.99999 2.08437C6.95151 0.705413 10.0771 0.0295872 13.1906 0H13.9359ZM22.428 3.57811C15.7016 0.435546 8.00895 1.23797 1.84531 5.19998L1.65624 5.32186L1.65156 5.54685C1.61513 7.27677 1.889 9.07227 2.26249 10.7312C2.63663 12.3905 3.18603 14.001 3.86092 15.5515L4.03124 15.9453L4.42342 15.7703C5.83243 15.1358 7.2411 14.5547 8.71716 14.2499L10.2562 16.1203C10.2019 16.1277 10.1458 16.1379 10.089 16.1453C8.48813 16.3535 6.90356 16.8581 5.46248 17.5812L5.07342 17.7765L5.27967 18.1609C6.74353 20.8809 9.27227 23.1502 11.8515 24.728C11.9696 24.8 12.2997 25.0037 12.6234 25.1843C12.7845 25.2742 12.953 25.3638 13.0984 25.4296C13.1705 25.4622 13.246 25.4932 13.3171 25.5155C13.3687 25.5317 13.4885 25.5672 13.6171 25.5483L13.6968 25.5296C13.7187 25.5229 13.7363 25.5165 13.7468 25.5124C13.7759 25.5011 13.8065 25.488 13.8343 25.4749C13.8902 25.4486 13.9556 25.4137 14.0249 25.3765C14.165 25.3012 14.3381 25.2027 14.5093 25.103C14.8519 24.9035 15.2047 24.6906 15.3187 24.6202L15.8703 24.264C17.3432 23.2788 18.5219 22.1151 19.7656 20.8609L17.1624 19.9968L16.9843 20.1515C16.269 20.7702 15.5888 21.3783 14.8484 21.9093C14.7436 21.9845 14.3745 22.2413 14.0156 22.4734C13.8356 22.5897 13.6642 22.6967 13.5328 22.7702C13.5195 22.7776 13.5054 22.7826 13.4937 22.789C11.7698 21.7576 10.2087 20.4543 8.89841 18.939C8.90034 18.9384 8.90272 18.938 8.90466 18.9374C12.6941 17.8673 16.6846 18.5317 20.3546 19.7468C21.183 18.7326 22.0093 17.7108 22.6702 16.5765C24.2862 13.8034 25.371 9.95365 25.4577 6.74216L25.4718 6.43123C25.477 6.30656 25.4807 6.16923 25.4749 6.04529C25.4635 5.80401 25.4169 5.43998 25.1608 5.18904C24.8672 4.90136 24.3309 4.57093 23.8265 4.29061C23.3072 4.00208 22.7672 3.73648 22.428 3.57811Z" fill="#FF0000"/>
</svg>
