<svg width="48" height="48" viewBox="0 0 48 48" fill="none" xmlns="http://www.w3.org/2000/svg">
<path d="M31.1083 19.554C31.1079 13.1727 25.9355 7.99974 19.554 7.99974C13.173 8.0002 8.0002 13.173 7.99974 19.554C7.99974 25.9355 13.1727 31.1079 19.554 31.1083C25.9358 31.1083 31.1083 25.9358 31.1083 19.554ZM39.1081 19.554C39.1081 23.5027 37.9335 27.175 35.9207 30.249L46.8305 41.1705C48.3914 42.7336 48.3896 45.2695 46.8266 46.8305C45.2635 48.3914 42.7276 48.3896 41.1666 46.8266L30.2685 35.909C27.1907 37.9294 23.5109 39.1081 19.554 39.1081C8.75457 39.1076 0 30.3536 0 19.554C0.000468984 8.75486 8.75486 0.000468975 19.554 0C30.3536 0 39.1076 8.75457 39.1081 19.554Z" fill="#F9F9F9"/>
</svg>
