<svg width="28" height="28" viewBox="0 0 28 28" fill="none" xmlns="http://www.w3.org/2000/svg">
<path d="M24.9086 16.7391C25.569 16.7391 26.1043 17.2744 26.1043 17.9348C26.1043 18.5951 25.569 19.1304 24.9086 19.1304H2.59058C1.93024 19.1304 1.39493 18.5951 1.39493 17.9348C1.39493 17.2744 1.93024 16.7391 2.59058 16.7391H24.9086Z" fill="#6F0000"/>
<path d="M24.9086 8.36957C25.569 8.36957 26.1043 8.90488 26.1043 9.56522C26.1043 10.2256 25.569 10.7609 24.9086 10.7609H2.59058C1.93024 10.7609 1.39493 10.2256 1.39493 9.56522C1.39493 8.90488 1.93024 8.36957 2.59058 8.36957H24.9086Z" fill="#6F0000"/>
<path d="M25.1087 13.75C25.1087 7.47677 20.0232 2.3913 13.75 2.3913C7.47677 2.3913 2.3913 7.47677 2.3913 13.75C2.3913 20.0232 7.47677 25.1087 13.75 25.1087C20.0232 25.1087 25.1087 20.0232 25.1087 13.75ZM27.5 13.75C27.5 21.3439 21.3439 27.5 13.75 27.5C6.15608 27.5 0 21.3439 0 13.75C0 6.15608 6.15608 0 13.75 0C21.3439 0 27.5 6.15608 27.5 13.75Z" fill="#6F0000"/>
<path d="M13.7506 26.0508L12.7543 27.0271C13.0165 27.2949 13.3757 27.4457 13.7506 27.4457C14.1254 27.4457 14.4844 27.2949 14.7468 27.0271L13.7506 26.0508ZM13.7506 1.44936L14.7468 0.473052C14.4844 0.205324 14.1254 0.0544342 13.7506 0.0544342C13.3757 0.0544342 13.0165 0.205324 12.7542 0.473052L13.7506 1.44936ZM17.3774 13.7501C17.3774 18.1595 15.6154 22.1546 12.7543 25.0744L14.7468 27.0271C18.0984 23.6068 20.1672 18.9186 20.1672 13.7501H17.3774ZM12.7542 2.42567C15.6154 5.34558 17.3774 9.34068 17.3774 13.7501H20.1672C20.1672 8.58149 18.0984 3.89329 14.7468 0.473052L12.7542 2.42567ZM10.1237 13.7501C10.1237 9.34068 11.8855 5.34558 14.7468 2.42567L12.7542 0.473052C9.40267 3.89329 7.33388 8.58149 7.33388 13.7501H10.1237ZM14.7468 25.0744C11.8855 22.1546 10.1237 18.1595 10.1237 13.7501H7.33388C7.33388 18.9186 9.40268 23.6068 12.7543 27.0271L14.7468 25.0744Z" fill="#6F0000"/>
</svg>
